<svg width="16" height="16" viewBox="0 0 16 16" fill="none" xmlns="http://www.w3.org/2000/svg">
<path d="M8.00012 2.66712C11.3138 2.66717 14.0001 5.35344 14.0001 8.66712C14 10.099 13.4974 11.4131 12.6603 12.4445L13.7697 14.422C13.9046 14.6628 13.8189 14.9676 13.5782 15.1027C13.3375 15.2377 13.0327 15.1519 12.8976 14.9113L11.9347 13.1935C10.8811 14.11 9.50618 14.6671 8.00012 14.6671C6.49381 14.6671 5.11821 14.1103 4.06458 13.1935L3.10266 14.9113C2.96758 15.1519 2.66278 15.2376 2.422 15.1027C2.18137 14.9676 2.09565 14.6628 2.23059 14.422L3.33899 12.4445C2.5021 11.4131 2.00023 10.0988 2.00012 8.66712C2.00012 5.35342 4.68641 2.66712 8.00012 2.66712ZM8.00012 4.83314C7.72409 4.83314 7.5003 5.05715 7.50012 5.33314V8.66712C7.50027 8.83413 7.58381 8.99049 7.72278 9.08314L9.72278 10.4161C9.95251 10.5692 10.263 10.5072 10.4161 10.2775C10.5693 10.0478 10.5071 9.73732 10.2775 9.58412L8.50012 8.39955V5.33314C8.49995 5.05717 8.27612 4.83318 8.00012 4.83314ZM4.59778 1.54212C4.85074 1.43164 5.14537 1.547 5.25598 1.79994C5.36639 2.05286 5.25103 2.34752 4.99817 2.45814C3.67128 3.03838 2.54429 3.99223 1.75012 5.18666C1.59731 5.41649 1.28668 5.4789 1.05676 5.3263C0.826838 5.17343 0.764293 4.86289 0.917114 4.63294C1.81645 3.28033 3.09328 2.20003 4.59778 1.54212ZM10.7443 1.79994C10.8549 1.54694 11.1495 1.43151 11.4025 1.54212C12.907 2.20003 14.1838 3.28033 15.0831 4.63294C15.2359 4.86288 15.1734 5.17345 14.9435 5.3263C14.7136 5.47901 14.403 5.41647 14.2501 5.18666C13.456 3.99226 12.3289 3.03839 11.0021 2.45814C10.7491 2.34753 10.6338 2.0529 10.7443 1.79994Z" fill="#A8A8A8"/>
</svg>
