<svg width="44" height="44" viewBox="0 0 44 44" fill="none" xmlns="http://www.w3.org/2000/svg">
<path d="M22 3.66699C32.1252 3.66699 40.333 11.8748 40.333 22C40.333 32.1252 32.1252 40.333 22 40.333C11.8748 40.333 3.66699 32.1252 3.66699 22C3.66699 11.8748 11.8748 3.66699 22 3.66699ZM22.9727 13.6943C22.4357 13.1574 21.5643 13.1574 21.0273 13.6943L15.5273 19.1943C14.9906 19.7312 14.9908 20.6017 15.5273 21.1387C16.0643 21.6756 16.9357 21.6756 17.4727 21.1387L20.625 17.9863V29.333C20.625 30.0924 21.2406 30.708 22 30.708C22.7594 30.708 23.375 30.0924 23.375 29.333V17.9863L26.5273 21.1387C27.0643 21.6756 27.9357 21.6756 28.4727 21.1387C29.0092 20.6017 29.0094 19.7312 28.4727 19.1943L22.9727 13.6943Z" fill="#4A7155"/>
</svg>
