<svg width="20" height="20" viewBox="0 0 20 20" fill="none" xmlns="http://www.w3.org/2000/svg">
<path d="M10 0C15.5228 0 20 4.47715 20 10C20 15.5228 15.5228 20 10 20C4.47715 20 0 15.5228 0 10C0 4.47715 4.47715 0 10 0ZM11.5303 6.46973C11.2374 6.17683 10.7626 6.17683 10.4697 6.46973C10.1768 6.76262 10.1768 7.23738 10.4697 7.53027L12.1895 9.25H6C5.58579 9.25 5.25 9.58579 5.25 10C5.25 10.4142 5.58579 10.75 6 10.75H12.1895L10.4697 12.4697C10.1768 12.7626 10.1768 13.2374 10.4697 13.5303C10.7626 13.8232 11.2374 13.8232 11.5303 13.5303L14.5303 10.5303C14.8232 10.2374 14.8232 9.76262 14.5303 9.46973L11.5303 6.46973Z" fill="#2E2E2E"/>
</svg>
