<svg width="69" height="63" viewBox="0 0 69 63" fill="none" xmlns="http://www.w3.org/2000/svg">
<path d="M30.1631 1.3584C42.6987 0.275694 55.214 1.02375 67.7383 2.15723C67.7421 2.16177 67.7465 2.16651 67.751 2.17188C67.7598 2.1825 67.77 2.19502 67.7812 2.20898C62.0075 6.6456 55.7044 10.2809 49.332 14.0664C42.8194 17.9353 36.2463 21.9592 30.1855 27.1396L30.626 28.0068C39.6957 25.8469 48.0264 23.8661 56.3467 21.876L56.3457 21.875C59.9918 21.0059 63.6574 20.1559 67.3105 19.2451H67.3115C67.7387 19.1377 68.0251 19.1088 68.2051 19.123C68.2978 19.1304 68.34 19.1472 68.3564 19.1562C68.3627 19.1751 68.38 19.2431 68.3535 19.4043C68.3286 19.5559 68.2729 19.748 68.1826 19.9834L68.0801 20.2334C66.0206 25.0122 63.9602 29.7845 61.9492 34.5869H61.9482C61.7714 35.0104 61.5647 35.2752 61.3525 35.4473C61.1407 35.6189 60.8962 35.7212 60.6094 35.7803C60.3159 35.8407 59.9896 35.8541 59.6191 35.8525C59.4428 35.8518 59.2495 35.8469 59.0508 35.8447L58.4502 35.8506C54.212 35.9945 49.9808 35.7157 45.708 35.5176C41.4453 35.32 37.1516 35.203 32.8447 35.6826V35.6836C32.6738 35.701 32.5221 35.7527 32.3936 35.8008C32.2496 35.8546 32.1307 35.9044 31.9482 35.9668L31.2744 36.1973L31.7197 36.7529C40.0437 47.1337 50.7015 54.5769 61.5107 61.9297C53.3412 62.4028 45.275 62.3307 37.2412 61.3535C35.212 61.1036 33.1827 60.8492 31.1533 60.5918L25.0635 59.8145C22.297 59.4624 20.5923 58.8946 19.417 57.8066C18.2399 56.7169 17.5138 55.0314 16.8984 52.2324C16.3987 49.9638 16.0006 47.698 16.3633 45.502V45.501C17.1881 40.4896 15.2526 36.7377 12.042 34.8369C9.0377 33.0584 4.99334 32.9462 1.23145 34.8271C1.19355 33.3229 1.63999 32.0637 2.55078 31.0186C3.62254 29.7888 5.37753 28.8082 7.88184 28.1221H7.88281C11.5574 27.1134 14.2087 25.7133 16.0234 23.5684C17.8387 21.4227 18.7631 18.5956 19.1182 14.8477V14.8457C19.2261 13.6586 19.4317 12.4691 19.6328 11.2627L19.6338 11.2598C20.1586 8.02262 21.2088 5.70377 22.8809 4.12207C24.5515 2.54179 26.9067 1.63752 30.1631 1.3584Z" fill="#4A7155" stroke="#4A7155" stroke-width="2"/>
</svg>
