<svg width="128" height="124" viewBox="0 0 128 124" fill="none" xmlns="http://www.w3.org/2000/svg">
<path d="M72.6104 1.04175C73.3014 0.810909 74.2162 0.983651 75.1357 1.80347C75.9008 2.48558 76.458 3.34487 76.9678 4.29565C82.3362 14.318 84.8253 25.0095 84.3193 36.3679C84.1839 39.3748 83.1793 42.1334 81.4199 44.6316C79.6095 47.1922 77.8175 49.7562 76.0742 52.3611C73.2184 56.603 73.7605 61.5851 77.3027 65.1902V65.1912C81.0873 69.0343 82.8385 73.6497 81.7393 78.8865C78.9257 92.2235 76.3263 105.562 70.5752 117.969L70.5742 117.971C69.9591 119.311 69.2972 120.624 68.5488 121.885C68.3052 122.293 68.0281 122.623 67.708 122.831C67.401 123.03 67.033 123.132 66.5576 123.056C66.0405 122.974 65.6897 122.76 65.4248 122.464C65.1489 122.154 64.945 121.732 64.7744 121.206V121.204L64.71 120.993C64.4919 120.218 64.4592 119.426 64.4648 118.586L64.4785 117.648C64.6361 108.324 64.6487 98.9991 64.4414 89.6726L64.3389 85.6755C64.3136 84.7654 64.245 83.8549 64.1631 82.9509L63.9072 80.2654C63.885 80.0015 63.8286 79.6689 63.6602 79.3806C63.4743 79.0625 63.1626 78.8215 62.7119 78.7732C62.2588 78.7247 61.9056 78.8974 61.6592 79.1707C61.4386 79.4153 61.3152 79.7266 61.2354 79.9705C60.8271 81.1846 60.7891 82.4272 60.7891 83.6101V119.54C60.7891 120.411 60.8431 121.216 60.6631 121.887C60.5779 122.205 60.4466 122.458 60.2529 122.65C60.0616 122.84 59.7778 123.003 59.333 123.09C58.5024 123.251 57.8679 123.011 57.3496 122.55C56.8107 122.069 56.3913 121.338 56.0742 120.536L56.0732 120.535C53.7151 114.612 51.5785 108.615 49.8594 102.487L49.5215 101.26C47.4611 93.6181 45.524 86.0219 45.0176 78.1277C44.675 72.7222 46.0526 67.9507 49.4531 63.8386L49.4541 63.8396C50.4938 62.5857 51.1404 61.2916 51.4229 59.906C51.7048 58.5229 51.6176 57.0784 51.2344 55.53V55.5291L51.041 54.7927C50.0307 51.1348 48.3735 47.7743 46.0508 44.8494C41.3824 38.962 40.6648 32.6164 42.4502 25.6033L42.6309 24.9226C44.2481 19.0272 45.7193 13.1645 48.1367 7.60718L48.6328 6.49976C49.1169 5.45251 49.6505 4.41482 50.2236 3.40698L50.2227 3.40601C50.6927 2.58493 51.17 1.92061 51.7461 1.54175C52.2828 1.18886 52.9547 1.05362 53.9268 1.40991C54.899 1.76626 55.358 2.32589 55.5586 2.96069C55.7435 3.54592 55.7243 4.24361 55.5811 4.99292L55.5117 5.31714C54.1327 11.1726 52.5865 16.9877 51.124 22.8474C50.4979 25.3333 49.8691 27.8966 49.9033 30.5593L49.9199 31.0935C49.9942 32.6422 50.4735 33.9795 51.3105 34.988C52.1501 35.9997 53.326 36.6519 54.7344 36.864L54.7363 36.865C55.9493 37.0441 56.993 36.9388 57.627 36.2751C58.1866 35.6891 58.2853 34.8189 58.1152 33.8083L58.0264 33.3669L57.751 32.239C57.1391 29.8154 56.4468 27.512 56.2617 25.074L56.2285 24.5085L56.2188 24.1794C56.1927 22.5573 56.5126 21.2715 57.1514 20.2937C57.8278 19.2584 58.8986 18.5122 60.4404 18.0925H60.4414C61.893 17.6945 63.1731 17.793 64.2812 18.3318C65.396 18.8739 66.3888 19.8867 67.209 21.407V21.408C68.4461 23.6918 68.6901 26.0522 67.9121 28.5095V28.5105C67.7066 29.1662 67.4588 29.8067 67.2129 30.4832C66.9703 31.1507 66.7336 31.8423 66.5713 32.5593L66.5703 32.5623C66.429 33.2001 66.1702 34.0501 66.1826 34.8328C66.1892 35.2436 66.2678 35.6666 66.4805 36.0701C66.6941 36.4753 67.0275 36.8323 67.501 37.1326H67.502C68.4368 37.7227 69.6684 37.8501 70.7988 37.6462C71.9306 37.4421 73.0505 36.8901 73.75 36.0115L73.749 36.0105C75.2739 34.1091 76.1191 31.9114 76.1191 29.4197C76.1191 26.0347 75.446 22.7749 74.54 19.5837V19.5828L73.7109 16.655C73.1618 14.6961 72.6178 12.726 72.0654 10.7644L71.2295 7.83081C70.7858 6.29168 70.7918 4.73247 71.0811 3.17065V3.16968C71.3025 1.95372 71.922 1.27185 72.6104 1.04175Z" fill="#4A7155" stroke="#4A7155" stroke-width="2"/>
<path d="M21.4766 40.3989C21.6344 40.4093 21.7072 40.457 21.752 40.5015C21.808 40.5572 21.8644 40.6541 21.9141 40.8208C21.964 40.9884 21.9958 41.1833 22.0293 41.4126C22.0605 41.6262 22.0949 41.8834 22.1572 42.1118V42.1128C22.8951 44.7989 23.2582 47.5502 23.1895 50.3179C23.1764 50.8366 23.2116 51.2804 23.3174 51.6333C23.4243 51.9899 23.6249 52.3174 23.9834 52.4819C24.3296 52.6406 24.705 52.5916 25.0361 52.48C25.3725 52.3666 25.7389 52.1639 26.126 51.9067L26.1289 51.9048C26.6173 51.5761 27.1455 51.3021 27.6943 51.0845L27.6963 51.0835C27.9144 50.9956 28.1245 50.8619 28.292 50.7544C28.4758 50.6364 28.6198 50.5423 28.7588 50.4771C28.8952 50.413 28.9736 50.4039 29.0186 50.4087C29.0467 50.4117 29.1115 50.4236 29.2148 50.5405C29.3293 50.6711 29.3534 50.8162 29.2441 51.1069C29.1878 51.2567 29.1053 51.4165 29.0059 51.5972C28.913 51.7659 28.7968 51.9665 28.708 52.1548C27.91 53.8296 26.9714 55.3881 25.6641 56.6382V56.6392C25.1537 57.1284 24.7849 57.6626 24.8145 58.2788C24.8402 58.8135 25.1593 59.2631 25.5957 59.6646L25.79 59.8345C27.3133 61.1103 28.3035 62.804 28.9746 64.7026L29.1045 65.0854C29.1615 65.2593 29.2405 65.4546 29.2988 65.6089C29.3623 65.7769 29.4125 65.9233 29.4404 66.0571C29.4931 66.3099 29.4579 66.4412 29.3359 66.5571L29.334 66.5581C29.234 66.6537 29.1756 66.663 29.1514 66.6646C29.1147 66.6669 29.0498 66.6568 28.9375 66.5991C28.822 66.5398 28.7016 66.4542 28.5469 66.3433C28.4073 66.2432 28.2269 66.1128 28.04 66.021H28.0391C27.1593 65.5858 26.3228 65.0512 25.4717 64.5005L25.4697 64.4995L25.2227 64.3491C24.9793 64.2109 24.7476 64.1098 24.5293 64.0581C24.2301 63.9873 23.9003 63.9994 23.6211 64.2056C23.3588 64.3995 23.2385 64.695 23.1797 64.9653C23.1194 65.2422 23.107 65.5683 23.1201 65.9185V65.9204C23.2388 68.8789 23.0381 71.7557 21.918 74.4692L21.917 74.4702C21.8445 74.6472 21.7848 74.8498 21.7344 75.0083C21.6795 75.1808 21.6302 75.3215 21.5713 75.438C21.5133 75.5527 21.459 75.6157 21.4111 75.6509C21.3713 75.6801 21.3094 75.7095 21.1895 75.7095C21.0108 75.7094 20.8687 75.6294 20.7041 75.4185C20.5147 75.1758 20.3967 74.9032 20.1934 74.5503H20.1924C19.3409 73.062 18.8701 71.47 18.8066 69.769L18.7998 69.4272V63.9517L17.9795 64.6362C16.6551 65.7416 15.5482 66.6467 14.4648 67.5796C13.0495 68.7886 11.5549 69.8047 9.83887 70.3862L9.83691 70.3872C9.68132 70.441 9.50803 70.5179 9.38184 70.5698C9.24017 70.6281 9.12587 70.6696 9.02441 70.6909C8.92656 70.7115 8.86352 70.7079 8.81934 70.6958C8.7809 70.6852 8.72302 70.6587 8.64746 70.5718L8.64551 70.5708L8.57422 70.4683C8.51885 70.3649 8.51156 70.2551 8.53711 70.1089C8.55608 70.0005 8.59246 69.8805 8.64258 69.7388C8.68636 69.615 8.75601 69.4342 8.80469 69.2856L8.80664 69.2817C9.60379 66.7764 11.3348 64.9306 13.3223 63.1519C13.3994 63.084 13.4752 63.0268 13.5859 62.9351C13.686 62.8522 13.8032 62.7506 13.9082 62.6333C14.1225 62.3937 14.3382 62.0234 14.2139 61.5444H14.2129C14.1484 61.2921 14.0259 61.081 13.8457 60.9224C13.6695 60.7674 13.4674 60.6875 13.2852 60.645C13.1057 60.6033 12.9255 60.5931 12.7744 60.5903H12.3691C8.75744 60.5205 5.27629 60.2488 2.07422 58.6431H2.07324C1.92531 58.5691 1.76201 58.5126 1.64062 58.4692C1.50582 58.4211 1.40757 58.3841 1.32715 58.3413C1.25017 58.3004 1.21915 58.2689 1.20605 58.2505C1.19808 58.2392 1.17975 58.2104 1.17969 58.1304C1.17969 58.0531 1.19721 58.0185 1.20996 57.9995C1.22717 57.9741 1.26274 57.9373 1.33984 57.8921C1.41937 57.8455 1.51772 57.8036 1.64746 57.7524C1.76442 57.7063 1.92324 57.6468 2.06348 57.5767C4.83683 56.1901 7.81828 55.6781 10.9336 55.5894H10.9346C11.8662 55.5611 12.7921 55.5857 14.2363 55.5884L14.2383 55.5903H14.4697V55.0806L14.8301 54.7544C12.4013 52.0734 10.6323 49.7287 9.86816 46.8813L9.72852 46.3042C9.67554 46.0565 9.59182 45.7912 9.52148 45.5581C9.44737 45.3125 9.38471 45.0918 9.35059 44.8892C9.31627 44.6853 9.31811 44.539 9.3457 44.4351C9.36894 44.3478 9.41312 44.2745 9.51562 44.2065C9.67566 44.1005 9.85649 44.0986 10.2188 44.3276C10.3964 44.44 10.5785 44.5843 10.7812 44.7476C10.9738 44.9026 11.1915 45.0805 11.4082 45.2202C13.6477 46.6676 15.4154 48.6444 17.7178 50.8042L18.4424 51.4849L18.5566 50.4976C18.9305 47.2542 19.1655 44.4855 20.4082 41.9712L20.4072 41.9702C20.511 41.7621 20.6026 41.525 20.6826 41.3247C20.768 41.1108 20.8463 40.9254 20.9355 40.77C21.0245 40.6151 21.1077 40.5211 21.1855 40.4673C21.2356 40.4327 21.2959 40.4059 21.3809 40.3989H21.4766Z" fill="#4A7155" stroke="#4A7155" stroke-width="2"/>
<path d="M107.751 40.61C108.034 40.6108 108.256 40.7768 108.499 41.2194C108.619 41.4375 108.725 41.6888 108.837 41.9645C108.918 42.1632 109.003 42.3792 109.097 42.5846L109.192 42.7858C109.803 44.0137 110.021 45.3081 110.084 46.694C110.116 47.3886 110.108 48.0999 110.095 48.8356C110.081 49.5667 110.062 50.3262 110.069 51.0953L110.076 51.8141L110.747 51.5573C111.583 51.2376 112.185 50.7401 112.693 50.2516C113.224 49.7414 113.595 49.3063 114.075 48.9518C114.942 48.3176 115.656 47.6883 116.506 47.2301L116.508 47.2291C116.861 47.0366 117.248 46.7866 117.616 46.5533C117.994 46.3141 118.362 46.0873 118.711 45.9147C119.065 45.7394 119.358 45.6417 119.588 45.6256C119.795 45.6113 119.931 45.6619 120.045 45.7828L120.046 45.7838C120.281 46.0317 120.37 46.2839 120.378 46.5465C120.386 46.825 120.303 47.1451 120.136 47.5065C119.794 48.2476 119.197 48.9791 118.693 49.6783L118.691 49.6803C117.473 51.3894 115.929 52.81 114.248 54.6647L113.581 55.401L114.57 55.4977C116.213 55.658 117.854 55.6867 119.354 55.7877C120.69 55.8776 121.964 56.0259 123.197 56.3668L123.724 56.525C124.127 56.657 124.598 56.7712 125.049 56.8834C125.51 56.998 125.957 57.1121 126.353 57.2477C126.754 57.3853 127.06 57.5315 127.256 57.6901C127.439 57.8378 127.491 57.9633 127.489 58.0914C127.484 58.377 127.381 58.5747 127.203 58.7399C127.009 58.9206 126.713 59.072 126.318 59.2047C125.927 59.3364 125.483 59.4354 125.018 59.5367C124.565 59.6353 124.082 59.7375 123.663 59.8746L123.66 59.8756C122.339 60.3175 120.964 60.5206 119.514 60.6442C118.788 60.7059 118.05 60.7471 117.291 60.7897C116.534 60.8321 115.758 60.8764 114.968 60.942L114.129 61.0114L114.591 61.7145C115.835 63.6053 116.976 65.2079 117.989 66.9059L117.99 66.9069C118.752 68.1759 119.109 69.6406 119.408 71.1754V71.1764C119.472 71.501 119.537 71.6974 119.541 71.9127C119.543 72.0023 119.53 72.0545 119.517 72.0846C119.506 72.1074 119.487 72.1367 119.43 72.1715C119.358 72.2139 119.299 72.225 119.144 72.1451C119.056 72.1002 118.962 72.0373 118.845 71.9547C118.791 71.9169 118.729 71.8733 118.664 71.8287L118.462 71.6989C115.838 70.1073 113.681 67.9348 111.258 65.441L110.557 64.7213L110.404 65.7145C110.133 67.4846 109.935 68.9013 109.705 70.3307V70.3336C109.494 71.6891 109.149 72.985 108.545 74.1647L108.421 74.399C108.31 74.6009 108.215 74.8379 108.135 75.0289C108.048 75.2357 107.97 75.4075 107.882 75.5465C107.795 75.6834 107.718 75.755 107.648 75.7906C107.589 75.8211 107.491 75.848 107.311 75.8102C107.148 75.7752 107.045 75.679 106.956 75.3785C106.91 75.2231 106.878 75.0447 106.845 74.8365C106.813 74.6406 106.778 74.4082 106.724 74.1959L106.723 74.1949L106.479 73.2057C105.937 70.8955 105.608 68.5686 105.719 66.2233V66.2223C105.745 65.631 105.712 65.1347 105.6 64.7467C105.485 64.353 105.266 64.0043 104.876 63.8395C104.506 63.6834 104.106 63.747 103.75 63.8727C103.477 63.9691 103.185 64.1182 102.877 64.3043L102.563 64.5026C101.951 64.9079 101.266 65.2223 100.548 65.5563C100.407 65.6198 100.26 65.7059 100.156 65.7633C100.036 65.8298 99.9477 65.8735 99.8721 65.8981C99.8019 65.9209 99.772 65.9167 99.7627 65.9147C99.7592 65.9139 99.7222 65.9072 99.6553 65.8307L99.6543 65.8297L99.6045 65.7614C99.5672 65.6933 99.5671 65.6233 99.5947 65.5153C99.6166 65.4299 99.6552 65.3332 99.71 65.2135C99.7561 65.1128 99.8347 64.9526 99.8887 64.8268L99.8906 64.8219C100.72 62.8316 101.846 61.0313 103.369 59.5367L103.368 59.5358C103.845 59.0692 104.188 58.5587 104.149 57.9713C104.111 57.3926 103.714 56.9279 103.228 56.525L103.227 56.524C101.453 55.0638 100.367 53.1095 99.6865 50.8932L99.6855 50.8893C99.5828 50.5639 99.4916 50.3205 99.4746 50.0885C99.4609 49.9015 99.5005 49.7961 99.6289 49.6998L99.6338 49.6959C99.6843 49.6571 99.7128 49.6544 99.7295 49.6539C99.7563 49.6532 99.8066 49.6606 99.8916 49.6989C99.9778 49.7377 100.073 49.7952 100.191 49.8727C100.298 49.9426 100.439 50.0392 100.573 50.1149L100.577 50.1178C101.933 50.8653 103.254 51.6409 104.99 52.6344L106.127 53.2838L105.729 52.0914C105.785 48.5808 105.614 45.6458 106.629 42.8502V42.8492C106.728 42.5742 106.8 42.2613 106.865 41.986C106.934 41.6964 106.999 41.4375 107.084 41.2125C107.17 40.9871 107.261 40.8386 107.36 40.7477C107.445 40.6695 107.558 40.6119 107.751 40.61Z" fill="#4A7155" stroke="#4A7155" stroke-width="2"/>
</svg>
