<svg width="24" height="24" viewBox="0 0 24 24" fill="none" xmlns="http://www.w3.org/2000/svg">
<path d="M20.5 8.87812C21.4141 9.61115 21.9999 10.7373 22 12.0002V16.0002C21.9998 18.2092 20.209 20.0002 18 20.0002H6C3.79098 20.0002 2.0002 18.2092 2 16.0002V12.0002C2.00008 10.7373 2.58587 9.61115 3.5 8.87812V12.8C3.50007 14.4375 4.82757 15.5878 6.23535 15.7395C7.71094 15.8983 9.5065 16.3153 10.6895 17.1047C11.4792 17.6315 12.5208 17.6315 13.3105 17.1047C14.4935 16.3153 16.2891 15.8983 17.7646 15.7395C19.1724 15.5878 20.4999 14.4375 20.5 12.8V8.87812ZM6.39648 4.00801C7.85674 4.1652 9.78873 4.57161 11.25 5.44453V15.6857C9.78869 14.8127 7.85682 14.4054 6.39648 14.2482C5.62795 14.1655 5 13.5541 5 12.8V5.29023C5.00004 4.53617 5.62798 3.9253 6.39648 4.00801ZM17.6035 4.00801C18.372 3.9253 19 4.53617 19 5.29023V12.8C19 13.5541 18.372 14.1655 17.6035 14.2482C16.1432 14.4054 14.2113 14.8127 12.75 15.6857V5.44453C14.2113 4.57161 16.1433 4.1652 17.6035 4.00801Z" fill="#28303F"/>
</svg>
