<svg width="46" height="50" viewBox="0 0 46 50" fill="none" xmlns="http://www.w3.org/2000/svg">
<path d="M41.0273 0.505859C42.6198 0.460646 43.5895 0.632781 44.1367 1.10742C44.6473 1.55042 44.9325 2.40025 44.7266 4.16992C43.527 14.496 41.5806 24.1434 32.4189 30.4961C30.9611 31.507 30.1483 32.7193 29.9209 34.1074C29.6967 35.4763 30.0547 36.9396 30.7725 38.4424V38.4434C32.61 42.2707 35.3365 45.4248 38.4756 49.002C33.9356 49.3108 29.5582 49.2705 25.168 49.1797C20.8362 49.0901 16.4851 48.9539 11.9775 49.0576C13.5191 47.3543 14.7732 46.0003 15.9629 44.6123C18.1848 42.0183 19.1426 39.1421 18.7637 36.4307C18.4079 33.8849 16.8843 31.5619 14.2783 29.8125L13.7432 29.4697L13.2871 29.1885C8.6237 26.2582 5.40189 22.6495 3.3584 18.4561C1.24697 14.123 0.380161 9.13668 0.513672 3.58008C0.537654 2.62558 0.727609 2.11318 1.02637 1.81934C1.32612 1.52469 1.84454 1.34159 2.80078 1.32715H2.80176C15.5423 1.11714 28.2851 0.876928 41.0283 0.506836L41.0273 0.505859Z" fill="#4A7155" stroke="#4A7155" stroke-width="2"/>
</svg>
