<svg width="16" height="16" viewBox="0 0 16 16" fill="none" xmlns="http://www.w3.org/2000/svg">
<path d="M8 2.33301C9.24248 2.33301 10.2869 3.18297 10.583 4.33301H10.667C12.5078 4.33318 14 5.82615 14 7.66699V10.333C14 12.1738 12.5078 13.6668 10.667 13.667H5.33301C3.49221 13.6668 2 12.1738 2 10.333V7.66699C2 5.82615 3.49221 4.33318 5.33301 4.33301H5.41699C5.7131 3.18297 6.75752 2.33301 8 2.33301ZM8 7C6.89543 7 6 7.89543 6 9C6 10.1046 6.89543 11 8 11C9.10457 11 10 10.1046 10 9C10 7.89543 9.10457 7 8 7ZM8 4C7.63181 4 7.33301 4.2988 7.33301 4.66699C7.33318 5.03503 7.63192 5.33301 8 5.33301C8.36808 5.33301 8.66682 5.03503 8.66699 4.66699C8.66699 4.2988 8.36819 4 8 4Z" fill="#4A7155"/>
</svg>
