<svg width="20" height="20" viewBox="0 0 20 20" fill="none" xmlns="http://www.w3.org/2000/svg">
<path d="M18.333 15.5C18.333 16.6046 17.4376 17.5 16.333 17.5H3.66699C2.56242 17.5 1.66699 16.6046 1.66699 15.5V9.79199H18.333V15.5ZM5 13.417C4.58579 13.417 4.25 13.7528 4.25 14.167C4.25018 14.5811 4.58589 14.917 5 14.917H6.66699C7.08095 14.9168 7.41682 14.5809 7.41699 14.167C7.41699 13.7529 7.08106 13.4172 6.66699 13.417H5ZM18.333 8.54199H1.66699V6.45801H18.333V8.54199ZM16.333 2.5C17.4376 2.5 18.333 3.39543 18.333 4.5V5.20801H1.66699V4.5C1.66699 3.39543 2.56242 2.5 3.66699 2.5H16.333Z" fill="#D9D9FF"/>
</svg>
