<svg width="20" height="20" viewBox="0 0 20 20" fill="none" xmlns="http://www.w3.org/2000/svg">
<path fill-rule="evenodd" clip-rule="evenodd" d="M16.6667 14.9999C16.6667 16.8409 15.1744 18.3333 13.3334 18.3333L6.66675 18.3333C4.8258 18.3333 3.33342 16.8409 3.33342 14.9999L3.33342 4.99992C3.33342 3.15897 4.8258 1.66658 6.66675 1.66658L13.3334 1.66658C15.1744 1.66658 16.6667 3.15897 16.6667 4.99992L16.6667 14.9999ZM8.33342 9.99992C8.33342 9.07944 9.07961 8.33325 10.0001 8.33325C10.9206 8.33325 11.6667 9.07944 11.6667 9.99992C11.6667 10.9204 10.9206 11.6666 10.0001 11.6666C9.07961 11.6666 8.33342 10.9204 8.33342 9.99992ZM13.7501 14.5833C13.2898 14.5833 12.9167 14.9563 12.9167 15.4166C12.9167 15.8768 13.2898 16.2499 13.7501 16.2499C14.2103 16.2499 14.5834 15.8768 14.5834 15.4166C14.5834 14.9563 14.2103 14.5833 13.7501 14.5833ZM12.9167 4.58325C12.9167 4.12301 13.2898 3.74992 13.7501 3.74992C14.2103 3.74992 14.5834 4.12301 14.5834 4.58325C14.5834 5.04349 14.2103 5.41658 13.7501 5.41658C13.2898 5.41658 12.9167 5.04349 12.9167 4.58325ZM6.25008 14.5833C5.78984 14.5833 5.41675 14.9563 5.41675 15.4166C5.41675 15.8768 5.78984 16.2499 6.25008 16.2499C6.71032 16.2499 7.08342 15.8768 7.08342 15.4166C7.08342 14.9563 6.71032 14.5833 6.25008 14.5833ZM5.41675 4.58325C5.41675 4.12301 5.78984 3.74992 6.25008 3.74992C6.71032 3.74992 7.08342 4.12301 7.08342 4.58325C7.08342 5.04349 6.71032 5.41658 6.25008 5.41658C5.78984 5.41658 5.41675 5.04349 5.41675 4.58325Z" fill="#4A7155"/>
</svg>
