<svg width="19" height="16" viewBox="0 0 19 16" fill="none" xmlns="http://www.w3.org/2000/svg">
<path d="M16.7686 11.6729C17.0413 11.3613 17.5155 11.3298 17.8271 11.6025C18.1387 11.8753 18.1702 12.3495 17.8975 12.6611L15.6113 15.2744C14.9946 15.9789 13.9314 16.0732 13.2002 15.4883L11.8643 14.4189C11.5413 14.1603 11.4889 13.6885 11.7471 13.3652C12.0058 13.0418 12.4783 12.9893 12.8018 13.248L14.1377 14.3174C14.242 14.4007 14.3943 14.3864 14.4824 14.2861L16.7686 11.6729ZM17.334 9.5C17.334 10.0521 16.886 10.4996 16.334 10.5H14.667C12.4579 10.5 10.667 12.2909 10.667 14.5C10.667 15.0522 10.2191 15.4998 9.66699 15.5H4.66699C2.45785 15.5 0.666993 13.7091 0.666992 11.5V7.79199H17.334V9.5ZM4 11.333C3.53991 11.3332 3.16699 11.7069 3.16699 12.167C3.16717 12.627 3.54002 12.9998 4 13C4.45998 12.9998 4.83381 12.627 4.83398 12.167C4.83398 11.7069 4.46009 11.3332 4 11.333ZM17.334 4.5V6.54199H0.666992V4.5C0.666992 4.48598 0.667825 4.47199 0.667969 4.45801H17.333C17.3332 4.47199 17.334 4.48599 17.334 4.5ZM13.334 0.5C15.0906 0.50028 16.5818 1.63326 17.1191 3.20801H0.881836C1.41928 1.63317 2.91018 0.5 4.66699 0.5H13.334Z" fill="#4A7155"/>
</svg>
