<svg width="18" height="16" viewBox="0 0 18 16" fill="none" xmlns="http://www.w3.org/2000/svg">
<path fill-rule="evenodd" clip-rule="evenodd" d="M8.16675 0.5H9.83342C13.9756 0.5 17.3334 3.85786 17.3334 8C17.3334 12.1421 13.9756 15.5 9.83342 15.5H4.00008C2.15913 15.5 0.666748 14.0076 0.666748 12.1667V8C0.666748 3.85786 4.02461 0.5 8.16675 0.5ZM9.00008 8.83333C9.46032 8.83333 9.83342 8.46024 9.83342 8C9.83342 7.53976 9.46032 7.16667 9.00008 7.16667C8.53984 7.16667 8.16675 7.53976 8.16675 8C8.16675 8.46024 8.53984 8.83333 9.00008 8.83333ZM13.1667 8C13.1667 8.46024 12.7937 8.83333 12.3334 8.83333C11.8732 8.83333 11.5001 8.46024 11.5001 8C11.5001 7.53976 11.8732 7.16667 12.3334 7.16667C12.7937 7.16667 13.1667 7.53976 13.1667 8ZM5.66675 8.83333C6.12699 8.83333 6.50008 8.46024 6.50008 8C6.50008 7.53976 6.12699 7.16667 5.66675 7.16667C5.20651 7.16667 4.83342 7.53976 4.83342 8C4.83342 8.46024 5.20651 8.83333 5.66675 8.83333Z" fill="#4A7155"/>
</svg>
