<svg width="80" height="128" viewBox="0 0 80 128" fill="none" xmlns="http://www.w3.org/2000/svg">
<path d="M79.0918 49.9758C77.0718 49.9758 75.4718 49.9758 73.8718 49.9758C70.0318 49.9758 67.0818 51.6158 64.8718 54.7258C62.6118 57.9158 60.0918 60.7158 56.2618 62.2658C51.1518 64.3258 44.1618 61.9358 43.6918 55.1958C43.4318 51.4258 40.8818 50.2258 37.2618 51.5758C33.8918 52.8358 31.4818 55.6658 28.1918 57.0558C25.8418 58.0458 23.5418 59.2258 20.9118 58.9958C13.9018 58.3658 10.1318 54.1258 10.9718 46.7458C12.2518 35.4958 20.1618 25.0358 32.8618 22.5658C37.8918 21.5958 42.2018 23.9558 46.5618 25.7558C52.0718 28.0258 57.6318 28.8958 63.4518 27.4058C67.8118 26.2858 69.9218 23.6158 69.4618 19.9258C68.9418 15.7558 66.5918 13.9458 61.7318 14.0358C58.7118 14.0958 55.8218 14.8558 52.9618 15.7458C48.1118 17.2658 44.0118 16.1358 40.6218 12.3958C36.4718 7.81582 30.3018 7.36581 25.6718 11.4758C23.6118 13.3058 21.6318 15.2958 19.9318 17.4658C16.4618 21.8958 11.7718 24.5258 6.86181 26.9058C6.07181 27.2858 5.19181 27.7158 4.36181 27.7158C2.97181 27.7258 1.3018 28.0958 0.351799 26.7358C-0.618201 25.3558 0.661803 24.2258 1.2618 23.1358C3.4118 19.2858 6.1418 16.1958 10.4818 14.4458C14.3018 12.9058 17.0518 9.59581 20.1518 6.91581C23.4618 4.05581 26.9418 1.55582 31.2718 0.505816C35.9118 -0.614184 40.4318 -0.0141904 43.4718 3.72581C46.9718 8.01581 50.8218 8.75582 55.8218 7.21582C60.9018 5.65582 65.9418 5.66581 71.0218 7.91581C79.2418 11.5458 80.0418 21.4158 75.8818 27.5858C70.2418 35.9658 61.9418 36.5458 53.1418 35.7458C49.0418 35.3758 45.2118 33.9058 41.3718 32.4158C31.8518 28.7158 21.8618 33.7658 19.3818 43.3558C18.7318 45.8458 18.8218 48.3158 21.0018 49.9958C23.2418 51.7158 25.2318 50.1358 27.0418 48.8958C31.1118 46.1158 35.3818 43.8758 40.3718 43.2958C45.4118 42.7158 48.4218 44.8758 49.4218 49.7758C49.9418 52.3358 49.8118 55.4558 52.8818 56.4658C56.2518 57.5758 58.1718 54.9658 60.1018 52.8258C64.7718 47.6658 72.5418 45.9958 79.0518 49.9658L79.0918 49.9758Z" fill="#4A7155" stroke-width="2"/>
<path d="M60.2359 127.622C48.7101 128.548 38.1555 127.433 26.6649 127.812C28.9115 125.274 30.6199 123.436 32.2347 121.526C37.2663 115.572 36.4003 108.539 29.7774 104.459C18.1112 97.2837 13.6998 86.5501 14.0157 73.231C14.0742 70.8708 14.9401 70.0168 17.2687 69.9813C32.1762 69.7322 47.0836 69.4475 61.9911 69.0087C65.7004 68.902 67.4088 69.7322 66.9174 74.0138C65.5132 86.2655 63.2197 97.9598 52.2673 105.657C49.0612 107.911 48.9091 110.888 50.5355 114.339C52.7939 119.107 56.2224 122.985 60.2359 127.622Z" fill="#4A7155" stroke-width="2"/>
</svg>
