<svg width="78" height="120" viewBox="0 0 78 120" fill="none" xmlns="http://www.w3.org/2000/svg">
<path d="M59.8703 35.7146C59.7194 35.4709 59.7226 35.2529 59.6932 35.0533C59.3677 32.7474 59.0096 30.4493 58.4511 28.1872C58.15 26.9672 57.7618 25.7775 57.2173 24.6372C56.1285 22.3601 54.2956 20.9299 51.8972 20.1288C49.793 19.4256 47.6081 19.092 45.4136 18.8266C44.168 18.6752 42.9191 18.5454 41.6736 18.4047C41.6077 18.3988 41.5277 18.4182 41.4708 18.3121C41.6911 18.1721 41.951 18.1922 42.188 18.1591C44.9038 17.7749 47.6197 17.3979 50.2589 16.64C51.9275 16.1615 53.5163 15.5237 54.843 14.3656C56.1013 13.266 56.8644 11.8792 57.387 10.3433C58.1037 8.24626 58.4314 6.07444 58.7115 3.8928C58.8547 2.7787 58.9651 1.66522 59.09 0.547887C59.0996 0.476233 59.0982 0.404789 59.1702 0.346239C59.2914 0.379662 59.257 0.491095 59.2695 0.569476C59.6593 3.18503 60.0237 5.80822 60.7231 8.36784C61.2102 10.1453 61.8497 11.8627 63.0943 13.297C64.1182 14.4746 65.4266 15.2287 66.8876 15.7512C68.8492 16.4535 70.899 16.7932 72.9619 17.0576C74.4459 17.2509 75.9299 17.4441 77.4233 17.5514C77.4818 17.5539 77.5372 17.5814 77.6622 17.6183C77.358 17.7671 77.0873 17.758 76.8286 17.7986C73.7999 18.2602 70.7476 18.6329 67.8276 19.6177C66.2769 20.1404 64.8467 20.8574 63.7032 22.037C62.7102 23.0601 62.0794 24.2907 61.6222 25.6145C60.9642 27.5282 60.6438 29.5105 60.3675 31.5026C60.1811 32.8463 60.0021 34.1933 59.9146 35.5494C59.9152 35.5815 59.8939 35.6141 59.8557 35.7149L59.8703 35.7146Z" fill="#4A7155" stroke-width="2"/>
<path d="M46.5135 119.427C36.6635 120.207 27.6435 119.267 17.8235 119.587C19.7435 117.447 21.2035 115.897 22.5835 114.287C26.8835 109.267 26.1434 103.337 20.4834 99.8973C10.5134 93.8473 6.74345 84.7973 7.01345 73.5673C7.06345 71.5773 7.80345 70.8573 9.79345 70.8273C22.5335 70.6173 35.2735 70.3773 48.0135 70.0073C51.1835 69.9173 52.6435 70.6173 52.2235 74.2273C51.0235 84.5573 49.0635 94.4173 39.7035 100.907C36.9635 102.807 36.8335 105.317 38.2235 108.227C40.1535 112.247 43.0835 115.517 46.5135 119.427Z" fill="#4A7155" stroke-width="2"/>
<path d="M46.7036 10.0177C35.5207 5.86887 24.7761 9.35487 20.3674 18.5608C15.2309 29.2807 18.2169 41.0316 27.4561 46.457C37.0592 52.0952 45.1569 48.8873 54.9999 35.5653C55.0412 49.9266 43.7177 62.5777 28.796 63.1505C6.95949 63.9852 -4.3558 42.7255 1.55826 25.721C5.84285 13.3809 12.3442 4.0113 25.6694 0.754435C34.2469 -1.34044 42.3032 2.35014 46.7036 10.0177Z" fill="#4A7155" stroke-width="2"/>
</svg>
