<svg width="128" height="48" viewBox="0 0 128 48" fill="none" xmlns="http://www.w3.org/2000/svg">
<path d="M64.4189 0.504883C73.7351 0.646178 83.0457 3.85105 92.2188 10.0361C102.349 16.8637 113.009 21.808 125.41 22.4365V22.4375C126.158 22.4768 126.63 22.5989 126.915 22.8271C127.164 23.0269 127.362 23.3876 127.344 24.1729C127.335 24.5421 127.269 24.7823 127.187 24.9404C127.108 25.0913 127.001 25.1917 126.865 25.2656C126.555 25.4342 126.101 25.4702 125.461 25.4912H125.459C113.135 25.9371 102.492 30.7417 92.5742 37.6152C83.9724 43.5688 74.4777 47.1376 64.5645 47.3359L64.0742 47.3457C53.307 47.1306 44.1119 43.7941 35.8496 38.1162V38.1152L34.8965 37.4697C25.0317 30.8461 14.5832 25.8833 2.34375 25.4707H2.34277C1.73477 25.4514 1.28 25.3536 0.981445 25.1475C0.722616 24.9687 0.509801 24.6582 0.5 24.0049C0.5 23.3454 0.698414 23.0208 0.946289 22.833C1.22675 22.6205 1.66771 22.5063 2.29004 22.4775H2.29199C15.1432 21.8289 25.9864 16.3557 36.4648 9.41699C45.7426 3.28494 55.104 0.363711 64.4189 0.504883ZM63.8916 3.60449C52.5486 3.60467 43.2295 12.8301 43.291 24.0068C43.3527 35.2574 52.6663 44.4033 63.9717 44.3232V44.3242H63.9951C75.3236 44.2624 84.475 34.9898 84.3516 23.7178C84.248 12.6478 75.0343 3.60449 63.8916 3.60449ZM44.0908 8.91504C38.3289 11.1671 33.3621 14.4524 28.9297 18.5205L28.9287 18.5215C26.0531 21.1698 25.6055 25.5481 28.0986 28.3965L28.3486 28.667C32.7982 33.2181 38.1311 36.5791 44.9209 39.8027L46.4854 40.5449L45.5576 39.083C42.2526 33.8724 40.5519 28.9238 40.4121 24.0908C40.2725 19.2612 41.6905 14.5018 44.6973 9.66504L44.7734 9.54297V8.64844L44.0908 8.91504ZM82.8672 9.5459C85.9243 14.4136 87.3812 19.2138 87.2734 24.0537C87.1656 28.896 85.4899 33.8228 82.207 38.9404L81.3018 40.3516L82.832 39.667C89.3783 36.7373 94.442 33.3568 98.8994 29.1426L98.9004 29.1416C101.77 26.4214 102.055 22.1336 99.3809 19.3076L99.3799 19.3066L98.9609 18.874C94.6081 14.4441 89.3565 11.2659 83.4824 8.81836L82.0293 8.21387L82.8672 9.5459Z" fill="#4A7155" stroke="#4A7155" stroke-width="2"/>
<path d="M63.3115 14.0105C68.2099 13.5928 73.0318 17.6019 73.6045 22.5554V22.5564C74.2373 28.1765 70.8013 32.8046 65.3115 33.7419C60.5509 34.5538 55.5583 31.3111 54.3174 26.7166L54.21 26.2673C54.0703 25.6036 53.9958 25.1228 53.9941 24.7683C53.9926 24.4163 54.0636 24.2683 54.1328 24.1912C54.2072 24.1083 54.3657 24.0111 54.75 23.9519C55.0395 23.9073 55.4113 23.89 55.8887 23.8933V23.9099L56.376 23.9226C58.4775 23.9762 60.2536 23.1546 61.2783 21.7781C62.3105 20.3914 62.5282 18.5093 61.6367 16.574C61.3265 15.9003 61.1947 15.4231 61.1729 15.0886C61.1522 14.7722 61.2308 14.6145 61.3262 14.5134C61.4401 14.3927 61.6457 14.2811 62.002 14.1931C62.3539 14.1062 62.7908 14.0556 63.3115 14.0105Z" fill="#4A7155" stroke="#4A7155" stroke-width="2"/>
</svg>
