<svg width="15" height="10" viewBox="0 0 15 10" fill="none" xmlns="http://www.w3.org/2000/svg">
<path d="M7.5 5.66699C9.70914 5.66699 11.5 6.56242 11.5 7.66699C11.4996 8.77141 9.70892 9.66699 7.5 9.66699C5.29108 9.66699 3.50035 8.77141 3.5 7.66699C3.5 6.56242 5.29086 5.66699 7.5 5.66699ZM3.75488 5.67969C2.97429 6.20891 2.5 6.90471 2.5 7.66699C2.50006 8.09905 2.65268 8.50973 2.92676 8.88086C1.7 8.63483 0.833008 8.03432 0.833008 7.33301C0.833408 6.4825 2.1087 5.78121 3.75488 5.67969ZM11.2461 5.67969C12.892 5.78132 14.1666 6.48259 14.167 7.33301C14.167 8.03432 13.3 8.63483 12.0732 8.88086C12.3473 8.50973 12.4999 8.09905 12.5 7.66699C12.5 6.90487 12.0264 6.20887 11.2461 5.67969ZM4.16699 1.66699C4.30433 1.66702 4.43686 1.68797 4.56152 1.72656C4.52129 1.92243 4.50002 2.12524 4.5 2.33301C4.5 2.95993 4.69265 3.54211 5.02148 4.02344C4.79017 4.21674 4.492 4.33293 4.16699 4.33301C3.43061 4.33301 2.83301 3.73638 2.83301 3C2.83301 2.26362 3.43061 1.66699 4.16699 1.66699ZM7.5 0.333008C8.60446 0.333008 9.49982 1.22859 9.5 2.33301C9.5 3.43758 8.60457 4.33301 7.5 4.33301C6.39543 4.33301 5.5 3.43758 5.5 2.33301C5.50018 1.22859 6.39554 0.333008 7.5 0.333008ZM10.833 1.66699C11.5694 1.66699 12.167 2.26362 12.167 3C12.167 3.73638 11.5694 4.33301 10.833 4.33301C10.508 4.33294 10.2098 4.21674 9.97852 4.02344C10.3074 3.54211 10.5 2.95993 10.5 2.33301C10.5 2.12524 10.4787 1.92243 10.4385 1.72656C10.5632 1.68797 10.6957 1.66702 10.833 1.66699Z" fill="#4A7155"/>
</svg>
