<svg width="16" height="16" viewBox="0 0 16 16" fill="none" xmlns="http://www.w3.org/2000/svg">
<path d="M4.66699 10.833C5.67936 10.8332 6.5 11.6546 6.5 12.667C6.49982 13.6793 5.67926 14.4998 4.66699 14.5C3.82792 14.5 3.12009 13.9363 2.90234 13.167H2C1.72397 13.167 1.50018 12.943 1.5 12.667C1.5 12.3909 1.72386 12.167 2 12.167H2.90234C3.11999 11.3975 3.82781 10.833 4.66699 10.833ZM14 12.167C14.2761 12.167 14.5 12.3909 14.5 12.667C14.4998 12.943 14.276 13.167 14 13.167H8C7.72397 13.167 7.50018 12.943 7.5 12.667C7.5 12.3909 7.72386 12.167 8 12.167H14ZM11.333 6.16699C12.1722 6.16699 12.88 6.7305 13.0977 7.5H14C14.2761 7.5 14.5 7.72386 14.5 8C14.5 8.27614 14.2761 8.5 14 8.5H13.0977C12.88 9.2695 12.1722 9.83301 11.333 9.83301C10.3206 9.83283 9.5 9.01241 9.5 8C9.5 6.98759 10.3206 6.16717 11.333 6.16699ZM8 7.5C8.27614 7.5 8.5 7.72386 8.5 8C8.5 8.27614 8.27614 8.5 8 8.5H2C1.72386 8.5 1.5 8.27614 1.5 8C1.5 7.72386 1.72386 7.5 2 7.5H8ZM8 1.5C8.83911 1.5 9.54693 2.06362 9.76465 2.83301H14C14.276 2.83301 14.4998 3.05701 14.5 3.33301C14.5 3.60915 14.2761 3.83301 14 3.83301H9.76465C9.54701 4.60251 8.83919 5.16699 8 5.16699C7.16081 5.16699 6.45299 4.60251 6.23535 3.83301H2C1.72386 3.83301 1.5 3.60915 1.5 3.33301C1.50018 3.05701 1.72397 2.83301 2 2.83301H6.23535C6.45307 2.06362 7.16089 1.5 8 1.5Z" fill="#4A7155"/>
</svg>
