<svg width="67" height="66" viewBox="0 0 67 66" fill="none" xmlns="http://www.w3.org/2000/svg">
<path d="M39.2383 28.2129L39.1953 28.4668L39.7451 29.0166L40.0986 28.6553C42.6327 26.0604 44.4626 23.3093 46.2412 20.8115C47.9175 18.4575 49.5492 16.3262 51.7061 14.6494L52.1445 14.3203C56.5235 11.1419 61.24 10.5668 64.1543 13.5361C65.939 15.3542 66.5844 17.1825 66.4922 19.0273C66.3986 20.8988 65.543 22.8519 64.1943 24.8896C60.8673 29.9141 55.9658 32.0792 50.2871 33.2861C49.4395 33.465 48.27 33.6317 47.3184 33.9541C46.373 34.2744 45.4 34.8243 45.1719 35.9238V35.9248C45.0434 36.549 45.1404 37.0952 45.4141 37.5596C45.6792 38.0094 46.0884 38.3455 46.5244 38.6084C47.371 39.1188 48.5197 39.457 49.292 39.7529H49.293C53.1704 41.2323 55.7601 44.3593 58.5889 47.3301C59.6798 48.4775 59.9781 50.4782 59.5576 52.6914C59.1671 54.7463 58.176 56.8581 56.8193 58.3799L56.543 58.6768C54.819 60.4492 53.056 61.3914 51.2744 61.5771C49.4949 61.7627 47.6187 61.2016 45.6494 59.8164C41.6027 56.9684 39.626 52.6569 37.5801 48.2373L36.6924 46.3408C36.3331 45.5853 35.983 44.6167 35.3857 43.8428C34.7514 43.0209 33.8356 42.39 32.3369 42.1611L31.6709 42.0596L31.7666 42.7266C32.3427 46.7592 33.3545 50.3324 34.8828 53.8447V53.8457C35.9835 56.3685 36.2361 58.6022 35.791 60.3711C35.3503 62.1224 34.2158 63.4651 32.4258 64.2256H32.4248C28.3687 65.96 23.7462 63.8786 21.1182 59.8447L20.8701 59.4482C17.5345 53.8953 20.0015 49.2725 22.1533 44.0352L22.1543 44.0342C22.2322 43.8437 22.4073 43.64 22.6816 43.3828C22.9252 43.1545 23.2782 42.8594 23.5361 42.5654C23.804 42.2601 24.0637 41.8579 24.0654 41.3496C24.0671 40.8368 23.8066 40.3451 23.3291 39.8564L23.3271 39.8545C22.5693 39.0851 21.6633 38.821 20.75 38.7959C19.8584 38.7714 18.9278 38.9748 18.0947 39.1572H18.0938C11.4141 40.6319 3.76617 36.4036 1.15332 30.0459V30.0449C-0.348763 26.3924 0.904122 23.2666 3.26074 20.833C5.43947 18.5829 8.55364 19.1556 11.499 20.6133C13.2484 21.4805 14.979 22.386 16.7148 23.2939C18.4489 24.201 20.1887 25.1107 21.9492 25.9834L21.9512 25.9844C22.1772 26.0953 22.4165 26.2644 22.7021 26.4688C22.9726 26.6623 23.2853 26.8878 23.6104 27.0557C23.9382 27.2249 24.325 27.3604 24.749 27.332C25.1868 27.3026 25.5971 27.1039 25.9736 26.7305C27.3209 25.3948 27.0541 23.3626 26.4189 21.915V21.9141L26.2949 21.6484C25.9947 21.0345 25.617 20.4681 25.2422 19.9307C24.8059 19.305 24.381 18.7264 24.0254 18.1064H24.0244C22.5303 15.5119 22.2838 12.0009 23.0693 8.71094C23.8307 5.52264 25.5389 2.63556 27.8877 1.04883L28.1172 0.899414C28.7574 0.497727 29.62 0.397421 30.6406 0.605469C31.6587 0.813053 32.7882 1.31963 33.9004 2.06152C36.13 3.54881 38.1981 5.91858 39.1104 8.47363C40.659 12.8021 40.7281 19.3604 39.2383 28.2129Z" fill="#4A7155" stroke="#4A7155" stroke-width="2"/>
</svg>
