<svg width="67" height="58" viewBox="0 0 67 58" fill="none" xmlns="http://www.w3.org/2000/svg">
<path d="M47.6211 1.24707C49.2541 0.302858 51.0953 0.236688 53.1133 1.14453C55.156 2.06423 56.7776 4.21175 57.6348 6.7373C58.4909 9.25978 58.5474 12.0536 57.583 14.1934L57.582 14.1943C55.4346 18.9694 51.8951 21.9856 47.041 23.5342L46.5674 23.6797C45.3041 24.0501 43.6942 24.2919 42.7061 26.166L42.4883 26.5781L42.8848 26.8242C44.8962 28.0707 46.8446 28.1691 48.708 27.8389C49.6316 27.6752 50.5376 27.4056 51.416 27.1221C52.3049 26.8352 53.1505 26.5398 54.0029 26.3008C54.8724 26.0569 55.6905 25.6671 56.4668 25.2852C57.2558 24.897 57.9981 24.5193 58.7715 24.252L58.7705 24.251C59.8499 23.8828 61.0166 23.499 62.083 23.4111C63.1401 23.3241 63.9926 23.5359 64.5703 24.2451H64.5713C65.9616 25.9486 66.435 28.46 65.8213 31.1465C64.3983 37.3096 60.3442 41.0027 55.3604 42.1953C50.357 43.3925 44.36 42.0802 39.0898 38.0908V38.0898L38.9043 37.9375C38.7222 37.7752 38.5453 37.5826 38.3506 37.3633C38.1001 37.0812 37.8171 36.7498 37.4893 36.4531C36.8031 35.8322 35.9085 35.3476 34.5068 35.4092L33.6201 35.4482L34.1123 36.1865C36.1445 39.2347 37.9651 42.0906 39.8994 44.8467C41.16 46.6393 41.5406 48.2758 41.252 49.6914C40.9628 51.1092 39.9813 52.407 38.3086 53.4775L38.3076 53.4785C35.6718 55.1736 32.5146 56.4279 29.4336 56.9561C26.3048 57.4932 23.672 56.2738 22.0371 54.0869C20.3954 51.8907 19.7423 48.6885 20.6807 45.2617C20.9985 44.1097 21.3482 42.9636 21.7021 41.8105C22.0554 40.6595 22.4133 39.501 22.7402 38.334V38.332C23.3024 36.2965 24.242 34.4275 25.5996 32.7207L25.9014 32.3408L25.5312 32.0273C25.3365 31.8626 25.1389 31.6949 24.9414 31.5273C24.8932 31.4864 24.8451 31.4452 24.7969 31.4043L25.3428 30.9092H22.6631L23.2803 31.4316C21.5408 33.0138 19.8079 34.6002 18.0625 36.1709L16.167 37.8643C13.9078 39.862 12.0514 40.7578 10.333 40.6982C8.62217 40.6389 6.89607 39.626 4.91016 37.4238H4.90918C3.58392 35.9569 2.19695 34.4682 1.33398 32.8311C0.538674 31.3223 0.207404 29.7208 0.80957 27.9268L0.942383 27.5645C2.58586 23.4464 6.81381 22.4187 11.1514 21.6924H11.1523C11.7721 21.5868 12.42 21.5916 13.1123 21.6201C13.7893 21.648 14.5272 21.7001 15.25 21.6689C16.7101 21.6063 17.8815 21.5046 18.7773 21.293C19.6693 21.0822 20.3759 20.7426 20.8018 20.1348C21.2295 19.5242 21.2979 18.7516 21.1758 17.8594C21.0533 16.9655 20.7265 15.8629 20.2607 14.5156C20.0444 13.8762 19.8486 13.2375 19.6719 12.5898C18.388 7.7749 20.0906 3.34176 23.3633 2.02246L23.3643 2.02344C23.9611 1.78475 24.8037 1.76248 25.8066 1.96387C26.7993 2.1632 27.8973 2.57124 28.9668 3.13086C30.9908 4.18998 32.815 5.73649 33.6484 7.2998L33.8018 7.61328C34.8442 9.94636 35.6295 12.366 36.6709 15.1162L36.8916 15.6992L37.4121 15.3574C40.5472 13.3023 41.9167 10.0958 43.2188 7.01465C44.4518 4.11142 45.9619 2.20647 47.6211 1.24707Z" fill="#4A7155" stroke="#4A7155" stroke-width="2"/>
</svg>
