<svg width="63" height="75" viewBox="0 0 63 75" fill="none" xmlns="http://www.w3.org/2000/svg">
<path d="M24.0322 4.81348C25.8631 1.73727 28.6775 0.0489893 32.0068 0.606445L32.3301 0.666992C34.2648 1.0726 35.5844 2.11655 36.4473 3.50293C37.3185 4.90288 37.7348 6.67236 37.8027 8.51562C38.0723 15.8236 37.8828 23.1302 37.8828 31.5176V32.7578L38.7432 31.8643C40.9131 29.6107 43.0657 28.1094 45.2998 27.3818C47.5242 26.6574 49.8681 26.6873 52.4521 27.5615H52.4541C56.1176 28.7892 58.751 31.086 60.8604 34.3965C61.9494 36.1072 62.0601 37.2479 61.6875 38.1299C61.3421 38.9469 60.5381 39.6675 59.3193 40.4268L58.7734 40.7539C56.1925 42.2383 53.4099 42.5053 50.5059 42.6074C47.8144 42.7021 44.9827 42.6519 42.2715 43.4004L41.7305 43.5615C41.5048 43.6336 41.2356 43.6571 40.9072 43.666C40.6032 43.6742 40.2179 43.6686 39.8701 43.708C39.5106 43.7488 39.1175 43.8422 38.7695 44.0869C38.4121 44.3383 38.1507 44.7149 37.9941 45.2324C37.7029 46.193 37.9729 46.9587 38.4248 47.5771C38.8418 48.1476 39.4761 48.6614 39.8945 49.0664C43.3625 52.4433 46.9992 55.4683 49.4961 59.5576V59.5586C50.756 61.6215 50.9557 64.4715 50.2842 67.1357C49.6122 69.8016 48.0965 72.1692 46.0674 73.3115C45.4392 73.6651 44.9624 73.6557 44.5117 73.5088C43.9973 73.341 43.5509 73.0179 42.9102 72.6533L42.9082 72.6523L42.5 72.4131C38.3398 69.8879 36.1281 65.7656 33.748 61.5322L33.1709 60.5264C31.801 58.1816 30.269 55.8249 28.459 52.8662L27.8711 51.9053L27.5527 52.9863C26.7384 55.7539 26.7931 58.3588 26.8105 60.7549C26.8281 63.174 26.8068 65.3624 25.9316 67.4551H25.9307C25.2437 69.1028 24.4717 70.6544 23.4521 71.7539C22.5149 72.7646 21.3811 73.3831 19.8896 73.3379L19.5859 73.3193C15.5123 72.9655 12.1281 70.5714 10.8516 66.2656C8.67665 58.9253 11.3631 52.6696 15.6094 46.707C15.6737 46.6192 15.757 46.5368 15.877 46.417C15.9888 46.3053 16.1341 46.1598 16.2588 45.9844C16.5361 45.5942 16.6793 45.1006 16.5312 44.4033L16.4619 44.0762L16.1328 44.0156C14.5541 43.7256 13.1758 44.2585 11.9297 44.8145C10.6441 45.388 9.51937 45.9693 8.26562 46.0381C7.48374 46.0809 6.66874 46.2734 5.91113 46.4502C5.13342 46.6317 4.41314 46.7973 3.74512 46.8291C3.08666 46.8605 2.52718 46.7584 2.05469 46.4434C1.58186 46.128 1.12961 45.5557 0.775391 44.5166V44.5156C-0.39572 41.0921 2.3446 37.3172 6.45215 36.6514H6.45312C9.37702 36.174 12.3304 35.9679 15.3281 35.6348C15.604 35.6041 15.9094 35.6115 16.2656 35.6172C16.6047 35.6226 16.9901 35.626 17.3545 35.5674C17.7244 35.5079 18.1127 35.379 18.4385 35.0918C18.7686 34.8006 18.9865 34.3897 19.0928 33.8555C19.3022 32.8025 18.9845 32.0124 18.4033 31.4023C17.8586 30.8307 17.0801 30.4169 16.3887 30.0469L16.3877 30.0459L14.9746 29.2891C11.6845 27.514 8.43331 25.6702 5.22852 23.7578H5.22754C1.14686 21.3063 -0.349694 17.2318 1.21289 14.0059V14.0049C2.40812 11.527 4.07028 9.72205 5.89941 8.79102C7.71395 7.86747 9.71472 7.7897 11.6748 8.79297C16.232 11.128 19.0332 15.2052 20.6895 20.1562L20.8457 20.6387C21.4805 22.6379 21.7016 25.4528 25.0146 27.1523L25.1221 27.207H25.7607L25.7725 26.7188C25.8646 22.7335 24.4303 19.5439 23.6055 16.458C22.5264 12.4313 21.8378 8.49941 24.0322 4.81348Z" fill="#4A7155" stroke="#4A7155" stroke-width="2"/>
</svg>
