<svg width="62" height="43" viewBox="0 0 62 43" fill="none" xmlns="http://www.w3.org/2000/svg">
<path d="M50.084 0.880188L50.085 0.881165C50.3444 0.93161 50.4411 1.02261 50.4893 1.09308C50.5496 1.18136 50.5923 1.32391 50.6025 1.56085C50.6129 1.80213 50.5891 2.05723 50.5713 2.3714C50.559 2.58879 50.5496 2.83634 50.5742 3.08136L50.6113 3.32355C51.2653 6.42782 51.1216 9.59487 50.8916 12.7943V12.7952C50.5915 17.0613 47.9236 21.9612 42.1621 22.5472L41.5947 22.5911C38.5476 22.7491 36.3557 23.5 34.9375 25.1038C33.5278 26.6981 32.9756 29.0316 32.9502 32.1253C32.9302 34.1082 32.9502 36.0968 32.9502 39.47V41.3675L33.8857 39.7161C37.3988 33.5132 41.7426 30.9939 46.4834 30.1751C50.909 29.4108 55.6955 30.122 60.5811 30.8216C56.9904 33.2762 52.8814 34.6495 48.8428 36.3909C43.8012 38.563 38.5904 40.4463 33.3301 41.9905H33.3291C30.3971 42.8551 27.2289 41.8107 24.3359 40.5794C18.9218 38.2804 13.6061 35.7641 8.27832 33.2425L2.94238 30.7269C2.77897 30.648 2.61812 30.5272 2.33691 30.2855C2.2488 30.2097 2.14986 30.1233 2.03809 30.0257C7.13866 29.4251 11.8724 29.2237 16.1055 30.2571C20.6254 31.3607 24.5999 33.8792 27.8301 38.9105L28.3857 39.7757L28.7227 38.804C30.9373 32.4163 29.4205 26.2915 24.9844 22.8831C24.2838 22.3437 23.51 22.1128 22.75 22.0042C22.0112 21.8987 21.22 21.9034 20.5459 21.8704H20.5469C17.4141 21.705 15.6519 21.3358 14.4824 20.3773C13.3172 19.4222 12.6438 17.8013 11.958 14.8079C11.0499 10.8497 10.7915 6.82291 10.8809 2.74054V2.73761C10.8835 2.569 10.8731 2.35806 10.8711 2.22003C10.8687 2.05918 10.8737 1.93339 10.8936 1.83136C10.9125 1.73406 10.9408 1.68 10.9697 1.64581C10.996 1.61477 11.05 1.5669 11.1787 1.5296C11.2645 1.50489 11.3375 1.51353 11.4746 1.62238C11.5495 1.68184 11.6281 1.76116 11.7217 1.86261C11.8045 1.95241 11.919 2.08155 12.0215 2.18683V2.18781C12.3703 2.54783 12.6867 3.01995 13.0107 3.55109C13.3238 4.06417 13.655 4.6528 14.001 5.16046C14.6874 6.16778 15.6246 7.15188 17.1035 6.87042C18.3179 6.64223 19.0799 5.55064 19.6602 4.45734C19.9595 3.89327 20.2373 3.27234 20.5098 2.6839C20.7025 2.26768 20.8942 1.86469 21.0938 1.48956C21.9504 2.18702 22.4204 3.15534 22.8857 4.24933C23.4056 5.47171 23.9314 6.89632 25.1055 7.89972L25.4053 8.15656L25.7246 7.92413C27.605 6.55651 28.4256 4.49995 29.2832 2.8421C29.5064 2.41536 29.6899 2.11941 29.8516 1.92804C30.0145 1.73517 30.1097 1.70336 30.1455 1.69757C30.1746 1.6929 30.2617 1.68948 30.4541 1.82062C30.6491 1.95362 30.895 2.18559 31.2139 2.54816V2.54913C31.4824 2.85605 31.7374 3.24209 32.0059 3.6712C32.2668 4.08819 32.5451 4.55308 32.8398 4.9632C33.4132 5.76101 34.2057 6.57963 35.3848 6.42511C35.8434 6.36575 36.2157 6.08359 36.5088 5.76886C36.8067 5.44889 37.0762 5.03731 37.3242 4.61359C37.5729 4.18857 37.8176 3.7194 38.0508 3.28448C38.2881 2.84181 38.5164 2.43046 38.7461 2.0882L38.7451 2.08722C39.0316 1.66497 39.271 1.40025 39.4668 1.25031C39.6563 1.10528 39.7661 1.09687 39.8271 1.10577C39.9022 1.11672 40.0342 1.17283 40.2275 1.38409C40.4189 1.59327 40.6307 1.91181 40.8701 2.35675L40.8711 2.35773C41.6657 3.82525 42.2829 4.96062 42.8135 5.72882C43.0793 6.11367 43.3416 6.4344 43.6143 6.66437C43.8905 6.89737 44.2082 7.06189 44.5732 7.07452C44.9378 7.08713 45.2663 6.94467 45.5586 6.73273C45.8472 6.52338 46.1327 6.22362 46.4268 5.86066C47.0139 5.13583 47.7166 4.05494 48.6201 2.66241V2.66144C48.766 2.4357 48.9049 2.17323 49.0303 1.94171C49.1614 1.6995 49.2835 1.48136 49.4141 1.29816C49.682 0.922306 49.8736 0.839099 50.084 0.880188Z" fill="#4A7155" stroke="#4A7155" stroke-width="2"/>
</svg>
