<svg width="24" height="24" viewBox="0 0 24 24" fill="none" xmlns="http://www.w3.org/2000/svg">
<path d="M18 2.25C17.5858 2.25 17.25 2.58579 17.25 3C17.25 3.41421 17.5858 3.75 18 3.75V2.25ZM6 3.75C6.41421 3.75 6.75 3.41421 6.75 3C6.75 2.58579 6.41421 2.25 6 2.25V3.75ZM10 17.5H9.25C9.25 19.0188 8.01878 20.25 6.5 20.25V21V21.75C8.84721 21.75 10.75 19.8472 10.75 17.5H10ZM6.5 21V20.25C4.98122 20.25 3.75 19.0188 3.75 17.5H3H2.25C2.25 19.8472 4.15279 21.75 6.5 21.75V21ZM3 17.5H3.75C3.75 15.9812 4.98122 14.75 6.5 14.75V14V13.25C4.15279 13.25 2.25 15.1528 2.25 17.5H3ZM6.5 14V14.75C8.01878 14.75 9.25 15.9812 9.25 17.5H10H10.75C10.75 15.1528 8.84721 13.25 6.5 13.25V14ZM21 17.5H20.25C20.25 19.0188 19.0188 20.25 17.5 20.25V21V21.75C19.8472 21.75 21.75 19.8472 21.75 17.5H21ZM17.5 21V20.25C15.9812 20.25 14.75 19.0188 14.75 17.5H14H13.25C13.25 19.8472 15.1528 21.75 17.5 21.75V21ZM14 17.5H14.75C14.75 15.9812 15.9812 14.75 17.5 14.75V14V13.25C15.1528 13.25 13.25 15.1528 13.25 17.5H14ZM17.5 14V14.75C19.0188 14.75 20.25 15.9812 20.25 17.5H21H21.75C21.75 15.1528 19.8472 13.25 17.5 13.25V14ZM10 18H10.75C10.75 17.3096 11.3096 16.75 12 16.75V16V15.25C10.4812 15.25 9.25 16.4812 9.25 18H10ZM12 16V16.75C12.6904 16.75 13.25 17.3096 13.25 18H14H14.75C14.75 16.4812 13.5188 15.25 12 15.25V16ZM18 3V3.75C19.2426 3.75 20.25 4.75736 20.25 6H21H21.75C21.75 3.92893 20.0711 2.25 18 2.25V3ZM21 6H20.25V17.5H21H21.75V6H21ZM6 3V2.25C3.92893 2.25 2.25 3.92893 2.25 6H3H3.75C3.75 4.75736 4.75736 3.75 6 3.75V3ZM3 6H2.25V17.5H3H3.75V6H3Z" fill="#28303F"/>
</svg>
