<svg width="16" height="16" viewBox="0 0 16 16" fill="none" xmlns="http://www.w3.org/2000/svg">
<path fill-rule="evenodd" clip-rule="evenodd" d="M6.56013 3.37502C6.32052 3.97895 6.12549 4.71254 5.99371 5.5361C6.63131 5.4777 7.30495 5.44661 8.00005 5.44661C8.69516 5.44661 9.3688 5.4777 10.0064 5.5361C9.87462 4.71254 9.67959 3.97895 9.43998 3.37502C9.20967 2.79455 8.94811 2.35907 8.68357 2.07706C8.42004 1.79613 8.18889 1.70178 8.00005 1.70178C7.81122 1.70178 7.58007 1.79613 7.31654 2.07706C7.052 2.35907 6.79044 2.79455 6.56013 3.37502ZM5.61954 2.99571C5.32056 3.74926 5.09115 4.657 4.95054 5.66052C4.25841 5.76343 3.62678 5.90073 3.07895 6.06642C2.44153 6.25921 1.88879 6.49892 1.4841 6.7883C1.43297 6.82486 1.38251 6.8635 1.3334 6.90424C1.7801 4.12058 3.9008 1.9024 6.62064 1.33334C6.60715 1.34718 6.59377 1.36117 6.58051 1.37531C6.19865 1.78239 5.8781 2.34403 5.61954 2.99571ZM9.37947 1.33334C9.39296 1.34718 9.40634 1.36117 9.4196 1.37531C9.80146 1.78239 10.122 2.34403 10.3806 2.99571C10.6795 3.74926 10.909 4.657 11.0496 5.66052C11.7417 5.76343 12.3733 5.90074 12.9212 6.06642C13.5586 6.25921 14.1113 6.49892 14.516 6.7883C14.5671 6.82486 14.6176 6.8635 14.6667 6.90424C14.22 4.12058 12.0993 1.9024 9.37947 1.33334ZM14.6667 9.09556C14.6176 9.1363 14.5671 9.17495 14.516 9.21152C14.1113 9.50091 13.5586 9.74061 12.9212 9.9334C12.3733 10.0991 11.7417 10.2364 11.0496 10.3393C10.909 11.3428 10.6795 12.2506 10.3806 13.0041C10.122 13.6558 9.80146 14.2174 9.4196 14.6245C9.40627 14.6387 9.39283 14.6528 9.37927 14.6667C12.0993 14.0977 14.2201 11.8794 14.6667 9.09556ZM6.62084 14.6667C6.60728 14.6528 6.59384 14.6387 6.58051 14.6245C6.19865 14.2174 5.8781 13.6558 5.61954 13.0041C5.32056 12.2506 5.09115 11.3428 4.95054 10.3393C4.25841 10.2364 3.62678 10.0991 3.07895 9.9334C2.44153 9.74061 1.88879 9.50091 1.4841 9.21152C1.43296 9.17496 1.38249 9.13631 1.33337 9.09556C1.78002 11.8794 3.90084 14.0977 6.62084 14.6667ZM3.37005 8.95515C3.79971 9.0851 4.29406 9.19775 4.83892 9.28814C4.80808 8.86936 4.79207 8.43875 4.79207 7.99991C4.79207 7.56107 4.80808 7.13047 4.83892 6.71168C4.29406 6.80208 3.79971 6.91472 3.37005 7.04467C2.7853 7.22153 2.349 7.42198 2.07018 7.62135C1.77821 7.83013 1.75293 7.96546 1.75293 7.99991C1.75293 8.03437 1.77821 8.16969 2.07018 8.37847C2.349 8.57785 2.7853 8.7783 3.37005 8.95515ZM5.80512 7.99991C5.80512 8.49097 5.82635 8.96788 5.86629 9.42524C6.53223 9.49409 7.24995 9.53189 8.00005 9.53189C8.75016 9.53189 9.46788 9.49409 10.1338 9.42524C10.1738 8.96788 10.195 8.49097 10.195 7.99991C10.195 7.50885 10.1738 7.03195 10.1338 6.57458C9.46788 6.50574 8.75016 6.46793 8.00005 6.46793C7.24995 6.46793 6.53223 6.50574 5.86629 6.57458C5.82635 7.03195 5.80512 7.50885 5.80512 7.99991ZM6.56013 12.6248C6.32052 12.0209 6.12549 11.2873 5.99371 10.4637C6.63131 10.5221 7.30495 10.5532 8.00005 10.5532C8.69516 10.5532 9.3688 10.5221 10.0064 10.4637C9.87462 11.2873 9.67959 12.0209 9.43998 12.6248C9.20967 13.2053 8.94811 13.6407 8.68357 13.9228C8.42004 14.2037 8.18889 14.298 8.00005 14.298C7.81122 14.298 7.58007 14.2037 7.31654 13.9228C7.052 13.6407 6.79044 13.2053 6.56013 12.6248ZM12.6301 8.95515C12.2004 9.0851 11.7061 9.19775 11.1612 9.28814C11.192 8.86936 11.208 8.43875 11.208 7.99991C11.208 7.56107 11.192 7.13047 11.1612 6.71168C11.7061 6.80208 12.2004 6.91472 12.6301 7.04467C13.2148 7.22153 13.6511 7.42198 13.9299 7.62135C14.2219 7.83013 14.2472 7.96546 14.2472 7.99991C14.2472 8.03437 14.2219 8.16969 13.9299 8.37847C13.6511 8.57785 13.2148 8.7783 12.6301 8.95515Z" fill="#A8A8A8"/>
</svg>
