<svg width="24" height="24" viewBox="0 0 24 24" fill="none" xmlns="http://www.w3.org/2000/svg">
<path d="M20.5355 16.1065C19.607 17.0351 18.5046 17.7717 17.2913 18.2742C16.0781 18.7768 14.7777 19.0354 13.4645 19.0354M13.4645 19.0354C12.1513 19.0354 10.8509 18.7768 9.63764 18.2742C8.42439 17.7717 7.322 17.0351 6.39341 16.1065C5.46482 15.1779 4.72823 14.0755 4.22568 12.8623C3.72314 11.649 3.46448 10.3486 3.46448 9.03542C3.46448 7.7222 3.72314 6.42184 4.22568 5.20859C4.72823 3.99533 5.46482 2.89294 6.39341 1.96436M13.4645 19.0354L13.4647 22.0354M13.4647 22.0354H10.4647M13.4647 22.0354H16.4647M20.4647 9.03543C20.4647 12.9014 17.3307 16.0354 13.4647 16.0354C9.59871 16.0354 6.4647 12.9014 6.4647 9.03543C6.4647 5.16944 9.59871 2.03543 13.4647 2.03543C17.3307 2.03543 20.4647 5.16944 20.4647 9.03543Z" stroke="#28303F" stroke-width="1.5" stroke-linecap="round"/>
</svg>
