<svg width="151" height="122" viewBox="0 0 151 122" fill="none" xmlns="http://www.w3.org/2000/svg">
<mask id="path-1-inside-1_709_4960" fill="white">
<path d="M75.3497 120.94C69.8997 120.59 62.7796 121.54 55.6796 120.94C48.6296 120.34 41.8696 118.56 35.4496 115.56C27.5096 111.85 20.6897 106.65 15.0297 99.96C11.0097 95.21 7.83965 89.91 5.45965 84.16C2.93965 78.09 1.59964 71.75 1.06964 65.2C0.49964 58.26 1.27967 51.49 3.15967 44.83C5.51967 36.5 9.53961 29.06 15.1696 22.46C19.0896 17.86 23.5796 13.96 28.6696 10.75C35.2496 6.59998 42.3796 3.84996 50.0596 2.47996C58.8696 0.899957 67.7696 1.39997 76.6296 1.11997C83.3396 0.899972 90.0697 0.679967 96.7797 1.23997C102.79 1.73997 108.53 3.31995 114.08 5.59995C122.56 9.07995 129.98 14.17 135.96 21.11C147.87 34.95 152.84 50.99 150.39 69.15C148.68 81.8 143.31 92.78 134.51 102.06C128.37 108.53 121.13 113.34 112.82 116.59C105.93 119.29 98.7796 120.41 91.4196 120.71C86.6096 120.9 81.8097 120.98 75.3497 120.98V120.94ZM99.3696 38.59C99.4596 38.69 99.5497 38.8 99.6396 38.9C97.1197 41.89 94.5497 44.85 92.0797 47.88C90.5097 49.81 88.6396 51.53 87.5596 53.84C86.3096 56.51 87.2197 58.32 90.1396 58.64C96.6696 59.35 103.19 60.17 109.75 60.67C112.76 60.9 114.1 59.78 115.27 57.55C115.48 57.16 115.75 56.8 115.92 56.4C116.63 54.67 117.39 52.88 116.69 51C115.86 48.76 115.54 46.56 116.36 44.26C116.49 43.9 116.56 43.49 116.55 43.11C116.48 37.13 116.44 31.17 113.58 25.62C111.07 20.76 107.92 16.39 103.84 12.84C97.4697 7.3 90.1097 3.82998 81.5297 3.24998C75.7097 2.85998 69.9196 2.96001 64.3196 4.72001C57.6996 6.79001 51.9897 10.36 47.2897 15.55C42.0697 21.3 38.0397 27.59 37.5197 35.59C37.3197 38.71 36.6996 41.88 37.5797 44.95C38.0997 46.77 38.0197 48.51 37.3497 50.13C36.5597 52.04 36.8997 53.78 37.5197 55.56C38.1597 57.4 39.3897 58.88 40.5397 60.41C40.7797 60.72 41.0696 60.76 41.4396 60.74C49.1496 60.45 56.7996 59.5 64.4396 58.56C66.7096 58.28 67.6796 56.48 66.7996 54.36C66.4596 53.55 66.0896 52.74 65.5096 52.06C62.6396 48.64 59.7796 45.23 56.9196 41.8C56.0896 40.81 55.2997 39.8 54.2797 38.54C54.7497 38.69 54.8996 38.7 54.9896 38.78C57.6296 40.97 60.2497 43.2 62.9097 45.37C65.1897 47.22 67.1596 49.46 69.8696 50.74C72.3296 51.9 74.1796 50.93 74.5096 48.22C75.4896 40.07 75.6896 31.88 75.9196 23.69C76.0596 18.74 76.0697 13.78 76.5397 8.84995C76.5897 8.34995 76.4196 7.50996 77.0696 7.47996C77.7996 7.44996 77.6096 8.31001 77.6396 8.78001C77.8697 12.15 78.1497 15.53 78.2197 18.91C78.3497 25.19 78.2797 31.47 78.7697 37.75C79.0497 41.32 79.0097 44.91 79.5997 48.45C79.9997 50.86 81.8197 51.83 84.0197 50.83C84.9597 50.4 85.8597 49.91 86.6497 49.24C89.4497 46.86 92.2596 44.48 95.0696 42.11C96.4796 40.93 97.9197 39.77 99.3397 38.6L99.3696 38.59ZM54.6796 83.78C54.4496 83.27 54.7796 83.11 54.9496 82.91C58.1596 79.08 61.3796 75.25 64.6096 71.43C65.6396 70.22 66.5096 68.93 66.9896 67.41C67.2396 66.61 67.2696 65.83 66.5696 65.25C65.5496 64.4 64.4597 63.76 63.0797 63.49C58.3797 62.59 53.6196 62.56 48.8696 62.31C46.9096 62.2 44.9596 61.98 42.9996 61.84C42.5796 61.81 41.8697 61.55 42.0997 62.46C42.5497 64.23 41.4196 65.23 40.2496 66.13C38.4896 67.49 38.3997 67.65 39.2697 69.63C39.7397 70.7 39.4096 72.23 38.4396 72.72C37.7296 73.09 37.6796 73.43 37.9196 74.1C38.3496 75.2999 37.9696 76.57 37.0496 77.17C35.2996 78.31 35.6396 79.75 35.9796 81.29C36.2196 82.39 36.2596 83.56 35.3796 84.3C33.7696 85.66 34.1297 87.18 34.6597 88.82C35.4397 91.22 36.8797 93.24 38.2097 95.36C41.0097 99.83 44.6296 103.51 48.6296 106.85C52.4496 110.05 56.7396 112.51 61.2496 114.62C64.8096 116.28 68.5596 117.49 72.3196 118.5C75.8796 119.46 79.5196 119.08 83.1296 118.03C93.0596 115.15 101.92 110.48 109.31 103.14C112.08 100.39 114.33 97.27 116.49 94.04C117.92 91.89 119 89.63 119.57 87.13C119.7 86.57 119.92 85.89 119.39 85.46C117.57 83.95 117.5 82.1 118.05 80C118.3 79.06 118.2 78.17 117.11 77.49C115.9 76.74 115.48 75.42 115.94 73.99C116.13 73.4 116.18 73.08 115.48 72.73C114.41 72.2 114.06 70.71 114.57 69.55C115.4 67.63 115.33 67.45 113.63 66.15C112.4 65.21 111.28 64.16 111.6 62.37C111.74 61.58 111.17 61.77 110.77 61.8C108.76 61.95 106.76 62.15 104.75 62.29C100.11 62.62 95.4697 62.62 90.8397 63.45C87.3497 64.07 85.7197 65.98 88.3297 69.82C88.4397 69.98 88.5596 70.14 88.6796 70.29C92.0696 74.36 95.4696 78.42 98.8596 82.49C99.1296 82.82 99.5797 83.08 99.4697 83.83C96.6297 81.44 93.9497 79.15 91.2197 76.91C88.9597 75.05 86.9396 72.84 84.2496 71.56C81.7896 70.39 79.9997 71.43 79.5997 74.11C78.9297 78.64 78.7696 83.21 78.6696 87.76C78.4896 96.2 78.3496 104.65 77.5596 113.06C77.5196 113.52 77.7297 114.14 77.0797 114.43C76.6197 114.01 76.6797 113.49 76.6497 113.02C76.1397 105.62 75.6997 98.23 75.5997 90.81C75.5197 85.22 75.3197 79.62 74.5397 74.07C74.1597 71.37 72.3596 70.41 69.8796 71.57C68.7996 72.07 67.8396 72.74 66.9396 73.51C64.0696 75.96 61.1996 78.42 58.3196 80.86C57.1496 81.85 55.9296 82.78 54.6996 83.77L54.6796 83.78ZM64.3096 2.94999C42.4596 1.98999 19.2797 12.35 7.77966 36.81C-1.87034 57.31 0.99962 82.41 17.7996 100.8C24.2196 107.83 32.0196 112.86 40.9996 116.16C49.9996 119.46 59.2496 119.89 68.6696 119.22C68.2996 118.92 67.9196 118.71 67.5096 118.59C59.3496 116.03 51.9796 112.07 45.6396 106.29C40.0696 101.2 35.4696 95.42 32.8796 88.21C32.5396 87.26 32.1296 86.27 31.0796 85.79C30.7596 85.64 30.1897 85.62 30.3997 85.04C30.5597 84.6 31.0196 84.67 31.4196 84.65C33.8996 84.53 34.6997 83.55 34.4597 81.14C34.2697 79.24 34.0497 77.36 36.0797 76.07C37.0396 75.46 36.5197 74.37 36.2197 73.49C35.9197 72.59 35.2096 72.91 34.6096 73.01C33.8896 73.14 33.1697 73.33 32.4597 73.5C32.1097 73.58 31.7596 73.68 31.5796 73.26C31.3996 72.84 31.4596 72.39 31.6096 71.96C31.7396 71.58 32.0297 71.35 32.3997 71.49C33.9797 72.08 35.0797 70.92 36.3497 70.43C37.2797 70.07 37.6796 69.37 37.4196 68.31C37.1296 67.11 37.6697 66.22 38.6497 65.55C39.2097 65.16 39.8197 64.8 40.2797 64.31C40.8197 63.74 41.1097 62.96 40.4097 62.35C39.4297 61.49 38.7996 60.37 38.0596 59.34C35.8596 56.27 34.5896 52.97 36.1696 49.16C36.4696 48.44 36.6997 47.65 36.4597 46.86C35.4997 43.74 35.6497 40.54 35.9597 37.38C36.2097 34.85 35.8997 32.26 36.7697 29.79C39.1697 23.01 42.9996 17.15 48.2396 12.26C52.8596 7.94999 58.2396 4.88999 64.3096 2.94999ZM88.5096 2.77C89.2496 3 89.9996 3.21 90.7296 3.46C98.9996 6.29 105.69 11.26 110.9 18.27C113.49 21.76 115.45 25.57 116.98 29.63C117.83 31.86 117.58 34.19 117.76 36.47C118.01 39.58 118.46 42.73 117.55 45.81C117.17 47.1 117.27 48.33 117.74 49.56C118.91 52.57 118.19 55.33 116.63 57.97C115.76 59.45 114.75 60.84 113.58 62.09C112.76 62.97 112.87 63.75 113.7 64.49C114.1 64.85 114.56 65.14 115.01 65.43C116.09 66.14 116.69 67.06 116.39 68.41C116.3 68.84 116.24 69.29 116.49 69.7C116.95 70.46 120.13 71.79 121.07 71.56C121.48 71.46 121.86 71.34 122.11 71.77C122.4 72.26 122.47 72.82 122.16 73.31C121.88 73.75 121.46 73.47 121.09 73.39C120.27 73.22 119.46 73.05 118.64 72.89C118.3 72.83 117.97 72.79 117.7 73.11C116.96 74 117.12 75.66 118.11 76.37C118.75 76.83 119.04 77.37 119.26 78.13C119.6 79.28 119.43 80.37 119.29 81.47C119.05 83.22 120.09 84.54 121.86 84.64C122.15 84.66 122.45 84.59 122.74 84.61C123.03 84.63 123.35 84.69 123.44 85.03C123.53 85.4 123.27 85.55 122.97 85.65C121.67 86.07 121.34 87.26 120.86 88.33C120.56 89 120.41 89.74 120.1 90.4C116.71 97.58 111.79 103.57 105.59 108.48C99.7997 113.07 93.3297 116.39 86.2797 118.59C85.7397 118.76 85.1196 118.79 84.6296 119.55C90.7696 118.7 96.8197 119.13 102.78 117.87C110.12 116.32 116.94 113.61 123.19 109.51C129.37 105.46 134.53 100.37 138.84 94.34C143.51 87.81 146.59 80.62 148.28 72.83C149.73 66.16 149.95 59.42 149 52.64C148.08 46.02 146.09 39.75 143.01 33.83C139.46 27 134.77 21.09 128.88 16.13C121.18 9.64998 112.46 5.31 102.54 3.46C97.8997 2.6 93.2296 2.15997 88.4796 2.73997L88.5096 2.77Z"/>
</mask>
<path d="M75.3497 120.94C69.8997 120.59 62.7796 121.54 55.6796 120.94C48.6296 120.34 41.8696 118.56 35.4496 115.56C27.5096 111.85 20.6897 106.65 15.0297 99.96C11.0097 95.21 7.83965 89.91 5.45965 84.16C2.93965 78.09 1.59964 71.75 1.06964 65.2C0.49964 58.26 1.27967 51.49 3.15967 44.83C5.51967 36.5 9.53961 29.06 15.1696 22.46C19.0896 17.86 23.5796 13.96 28.6696 10.75C35.2496 6.59998 42.3796 3.84996 50.0596 2.47996C58.8696 0.899957 67.7696 1.39997 76.6296 1.11997C83.3396 0.899972 90.0697 0.679967 96.7797 1.23997C102.79 1.73997 108.53 3.31995 114.08 5.59995C122.56 9.07995 129.98 14.17 135.96 21.11C147.87 34.95 152.84 50.99 150.39 69.15C148.68 81.8 143.31 92.78 134.51 102.06C128.37 108.53 121.13 113.34 112.82 116.59C105.93 119.29 98.7796 120.41 91.4196 120.71C86.6096 120.9 81.8097 120.98 75.3497 120.98V120.94ZM99.3696 38.59C99.4596 38.69 99.5497 38.8 99.6396 38.9C97.1197 41.89 94.5497 44.85 92.0797 47.88C90.5097 49.81 88.6396 51.53 87.5596 53.84C86.3096 56.51 87.2197 58.32 90.1396 58.64C96.6696 59.35 103.19 60.17 109.75 60.67C112.76 60.9 114.1 59.78 115.27 57.55C115.48 57.16 115.75 56.8 115.92 56.4C116.63 54.67 117.39 52.88 116.69 51C115.86 48.76 115.54 46.56 116.36 44.26C116.49 43.9 116.56 43.49 116.55 43.11C116.48 37.13 116.44 31.17 113.58 25.62C111.07 20.76 107.92 16.39 103.84 12.84C97.4697 7.3 90.1097 3.82998 81.5297 3.24998C75.7097 2.85998 69.9196 2.96001 64.3196 4.72001C57.6996 6.79001 51.9897 10.36 47.2897 15.55C42.0697 21.3 38.0397 27.59 37.5197 35.59C37.3197 38.71 36.6996 41.88 37.5797 44.95C38.0997 46.77 38.0197 48.51 37.3497 50.13C36.5597 52.04 36.8997 53.78 37.5197 55.56C38.1597 57.4 39.3897 58.88 40.5397 60.41C40.7797 60.72 41.0696 60.76 41.4396 60.74C49.1496 60.45 56.7996 59.5 64.4396 58.56C66.7096 58.28 67.6796 56.48 66.7996 54.36C66.4596 53.55 66.0896 52.74 65.5096 52.06C62.6396 48.64 59.7796 45.23 56.9196 41.8C56.0896 40.81 55.2997 39.8 54.2797 38.54C54.7497 38.69 54.8996 38.7 54.9896 38.78C57.6296 40.97 60.2497 43.2 62.9097 45.37C65.1897 47.22 67.1596 49.46 69.8696 50.74C72.3296 51.9 74.1796 50.93 74.5096 48.22C75.4896 40.07 75.6896 31.88 75.9196 23.69C76.0596 18.74 76.0697 13.78 76.5397 8.84995C76.5897 8.34995 76.4196 7.50996 77.0696 7.47996C77.7996 7.44996 77.6096 8.31001 77.6396 8.78001C77.8697 12.15 78.1497 15.53 78.2197 18.91C78.3497 25.19 78.2797 31.47 78.7697 37.75C79.0497 41.32 79.0097 44.91 79.5997 48.45C79.9997 50.86 81.8197 51.83 84.0197 50.83C84.9597 50.4 85.8597 49.91 86.6497 49.24C89.4497 46.86 92.2596 44.48 95.0696 42.11C96.4796 40.93 97.9197 39.77 99.3397 38.6L99.3696 38.59ZM54.6796 83.78C54.4496 83.27 54.7796 83.11 54.9496 82.91C58.1596 79.08 61.3796 75.25 64.6096 71.43C65.6396 70.22 66.5096 68.93 66.9896 67.41C67.2396 66.61 67.2696 65.83 66.5696 65.25C65.5496 64.4 64.4597 63.76 63.0797 63.49C58.3797 62.59 53.6196 62.56 48.8696 62.31C46.9096 62.2 44.9596 61.98 42.9996 61.84C42.5796 61.81 41.8697 61.55 42.0997 62.46C42.5497 64.23 41.4196 65.23 40.2496 66.13C38.4896 67.49 38.3997 67.65 39.2697 69.63C39.7397 70.7 39.4096 72.23 38.4396 72.72C37.7296 73.09 37.6796 73.43 37.9196 74.1C38.3496 75.2999 37.9696 76.57 37.0496 77.17C35.2996 78.31 35.6396 79.75 35.9796 81.29C36.2196 82.39 36.2596 83.56 35.3796 84.3C33.7696 85.66 34.1297 87.18 34.6597 88.82C35.4397 91.22 36.8797 93.24 38.2097 95.36C41.0097 99.83 44.6296 103.51 48.6296 106.85C52.4496 110.05 56.7396 112.51 61.2496 114.62C64.8096 116.28 68.5596 117.49 72.3196 118.5C75.8796 119.46 79.5196 119.08 83.1296 118.03C93.0596 115.15 101.92 110.48 109.31 103.14C112.08 100.39 114.33 97.27 116.49 94.04C117.92 91.89 119 89.63 119.57 87.13C119.7 86.57 119.92 85.89 119.39 85.46C117.57 83.95 117.5 82.1 118.05 80C118.3 79.06 118.2 78.17 117.11 77.49C115.9 76.74 115.48 75.42 115.94 73.99C116.13 73.4 116.18 73.08 115.48 72.73C114.41 72.2 114.06 70.71 114.57 69.55C115.4 67.63 115.33 67.45 113.63 66.15C112.4 65.21 111.28 64.16 111.6 62.37C111.74 61.58 111.17 61.77 110.77 61.8C108.76 61.95 106.76 62.15 104.75 62.29C100.11 62.62 95.4697 62.62 90.8397 63.45C87.3497 64.07 85.7197 65.98 88.3297 69.82C88.4397 69.98 88.5596 70.14 88.6796 70.29C92.0696 74.36 95.4696 78.42 98.8596 82.49C99.1296 82.82 99.5797 83.08 99.4697 83.83C96.6297 81.44 93.9497 79.15 91.2197 76.91C88.9597 75.05 86.9396 72.84 84.2496 71.56C81.7896 70.39 79.9997 71.43 79.5997 74.11C78.9297 78.64 78.7696 83.21 78.6696 87.76C78.4896 96.2 78.3496 104.65 77.5596 113.06C77.5196 113.52 77.7297 114.14 77.0797 114.43C76.6197 114.01 76.6797 113.49 76.6497 113.02C76.1397 105.62 75.6997 98.23 75.5997 90.81C75.5197 85.22 75.3197 79.62 74.5397 74.07C74.1597 71.37 72.3596 70.41 69.8796 71.57C68.7996 72.07 67.8396 72.74 66.9396 73.51C64.0696 75.96 61.1996 78.42 58.3196 80.86C57.1496 81.85 55.9296 82.78 54.6996 83.77L54.6796 83.78ZM64.3096 2.94999C42.4596 1.98999 19.2797 12.35 7.77966 36.81C-1.87034 57.31 0.99962 82.41 17.7996 100.8C24.2196 107.83 32.0196 112.86 40.9996 116.16C49.9996 119.46 59.2496 119.89 68.6696 119.22C68.2996 118.92 67.9196 118.71 67.5096 118.59C59.3496 116.03 51.9796 112.07 45.6396 106.29C40.0696 101.2 35.4696 95.42 32.8796 88.21C32.5396 87.26 32.1296 86.27 31.0796 85.79C30.7596 85.64 30.1897 85.62 30.3997 85.04C30.5597 84.6 31.0196 84.67 31.4196 84.65C33.8996 84.53 34.6997 83.55 34.4597 81.14C34.2697 79.24 34.0497 77.36 36.0797 76.07C37.0396 75.46 36.5197 74.37 36.2197 73.49C35.9197 72.59 35.2096 72.91 34.6096 73.01C33.8896 73.14 33.1697 73.33 32.4597 73.5C32.1097 73.58 31.7596 73.68 31.5796 73.26C31.3996 72.84 31.4596 72.39 31.6096 71.96C31.7396 71.58 32.0297 71.35 32.3997 71.49C33.9797 72.08 35.0797 70.92 36.3497 70.43C37.2797 70.07 37.6796 69.37 37.4196 68.31C37.1296 67.11 37.6697 66.22 38.6497 65.55C39.2097 65.16 39.8197 64.8 40.2797 64.31C40.8197 63.74 41.1097 62.96 40.4097 62.35C39.4297 61.49 38.7996 60.37 38.0596 59.34C35.8596 56.27 34.5896 52.97 36.1696 49.16C36.4696 48.44 36.6997 47.65 36.4597 46.86C35.4997 43.74 35.6497 40.54 35.9597 37.38C36.2097 34.85 35.8997 32.26 36.7697 29.79C39.1697 23.01 42.9996 17.15 48.2396 12.26C52.8596 7.94999 58.2396 4.88999 64.3096 2.94999ZM88.5096 2.77C89.2496 3 89.9996 3.21 90.7296 3.46C98.9996 6.29 105.69 11.26 110.9 18.27C113.49 21.76 115.45 25.57 116.98 29.63C117.83 31.86 117.58 34.19 117.76 36.47C118.01 39.58 118.46 42.73 117.55 45.81C117.17 47.1 117.27 48.33 117.74 49.56C118.91 52.57 118.19 55.33 116.63 57.97C115.76 59.45 114.75 60.84 113.58 62.09C112.76 62.97 112.87 63.75 113.7 64.49C114.1 64.85 114.56 65.14 115.01 65.43C116.09 66.14 116.69 67.06 116.39 68.41C116.3 68.84 116.24 69.29 116.49 69.7C116.95 70.46 120.13 71.79 121.07 71.56C121.48 71.46 121.86 71.34 122.11 71.77C122.4 72.26 122.47 72.82 122.16 73.31C121.88 73.75 121.46 73.47 121.09 73.39C120.27 73.22 119.46 73.05 118.64 72.89C118.3 72.83 117.97 72.79 117.7 73.11C116.96 74 117.12 75.66 118.11 76.37C118.75 76.83 119.04 77.37 119.26 78.13C119.6 79.28 119.43 80.37 119.29 81.47C119.05 83.22 120.09 84.54 121.86 84.64C122.15 84.66 122.45 84.59 122.74 84.61C123.03 84.63 123.35 84.69 123.44 85.03C123.53 85.4 123.27 85.55 122.97 85.65C121.67 86.07 121.34 87.26 120.86 88.33C120.56 89 120.41 89.74 120.1 90.4C116.71 97.58 111.79 103.57 105.59 108.48C99.7997 113.07 93.3297 116.39 86.2797 118.59C85.7397 118.76 85.1196 118.79 84.6296 119.55C90.7696 118.7 96.8197 119.13 102.78 117.87C110.12 116.32 116.94 113.61 123.19 109.51C129.37 105.46 134.53 100.37 138.84 94.34C143.51 87.81 146.59 80.62 148.28 72.83C149.73 66.16 149.95 59.42 149 52.64C148.08 46.02 146.09 39.75 143.01 33.83C139.46 27 134.77 21.09 128.88 16.13C121.18 9.64998 112.46 5.31 102.54 3.46C97.8997 2.6 93.2296 2.15997 88.4796 2.73997L88.5096 2.77Z" fill="#4A7155" stroke="#4A7155" stroke-width="2" mask="url(#path-1-inside-1_709_4960)"/>
<path d="M23.5605 69.74C25.2453 69.7408 26.7407 71.2078 26.8896 73.1375L26.8994 73.3259C26.9491 74.8482 25.5117 76.284 23.7812 76.3103H23.7744C22.7765 76.3193 21.9601 76.0082 21.3955 75.5027C20.8341 74.9999 20.4926 74.2794 20.4795 73.4031V73.4001L20.4805 73.2332C20.5104 72.3939 20.8824 71.5404 21.4512 70.8787C22.0612 70.1689 22.8388 69.7445 23.5605 69.74Z" fill="#4A7155" stroke="#4A7155"/>
<path d="M28.9844 50.7063C29.6443 50.1995 30.3479 50.1808 31.1973 50.2737C31.5974 50.3174 32.0904 50.3949 32.5381 50.425C32.9565 50.4533 33.3998 50.4464 33.8486 50.3411C33.8569 50.3707 33.8649 50.4056 33.8701 50.4446C33.8797 50.5173 33.8802 50.59 33.873 50.6506C33.8117 51.1644 33.5379 51.589 33.1094 51.9104C32.7692 52.1656 32.4889 52.4585 32.3164 52.8342C32.1426 53.2129 32.1001 53.6268 32.1523 54.0862C32.206 54.5899 31.9092 54.9694 31.4355 55.0588L31.3389 55.0725C31.296 55.0769 31.2704 55.0741 31.2578 55.0715C31.2461 55.0691 31.2415 55.0665 31.2402 55.0657C31.2382 55.0644 31.2175 55.0503 31.1904 54.9924C31.1268 54.8561 31.0989 54.6367 31.0889 54.3713V54.3665L31.0781 54.2258C31.0638 54.0857 31.0368 53.9497 30.9912 53.8245C30.9302 53.6569 30.8238 53.4775 30.6387 53.3557C30.243 53.0958 29.8052 53.2696 29.5215 53.4417C29.4483 53.4858 29.3282 53.5184 29.1123 53.5461C28.934 53.5691 28.6409 53.5912 28.3965 53.6516C28.1318 53.717 27.822 53.8466 27.5967 54.1458C27.4113 54.3919 27.3238 54.6993 27.3096 55.0559C27.2833 55.0461 27.2591 55.0353 27.2402 55.0237L27.2393 55.0227C27.1313 54.9569 27.0259 54.8647 26.9062 54.7415C26.8465 54.68 26.7867 54.6147 26.7217 54.5432C26.6585 54.4737 26.5893 54.3972 26.5176 54.3225C26.3175 54.114 26.0671 53.8863 25.7324 53.7375C25.8219 53.7335 25.9325 53.741 26.0938 53.7493H26.0957C27.2496 53.8042 28.2679 53.5034 29.2061 53.1165C29.6731 52.9239 30.1308 52.7051 30.5723 52.4973C30.9436 52.3225 31.3057 52.1549 31.6699 52.0051L32.209 52.2913V50.72L31.7197 50.9084C30.6391 50.4283 29.6531 50.6562 28.7744 50.9915C28.2862 51.1735 27.8418 51.3546 27.3877 51.4983C27.5715 51.4251 27.7589 51.3534 27.9814 51.26C28.3129 51.1209 28.6678 50.951 28.9844 50.7063ZM25.2549 53.5979C25.2592 53.5987 25.2634 53.6 25.2676 53.6008C25.2633 53.6002 25.2592 53.5985 25.2549 53.5979Z" fill="#4A7155" stroke="#4A7155"/>
<path d="M28.5635 46.0154C29.5297 45.876 30.4709 45.8089 31.418 45.9441V45.9451C32.3403 46.0791 33.0493 46.3719 33.5283 47.0115C32.2201 46.4459 30.9204 46.3567 29.6592 46.4421C29.0001 46.4868 28.3455 46.5795 27.7061 46.6775C27.0605 46.7764 26.4366 46.8802 25.8105 46.9539H25.8096C25.6713 46.9705 25.4947 47.0056 25.3896 47.0232C25.2601 47.0448 25.1711 47.0531 25.1064 47.0486C25.0791 47.0467 25.0644 47.043 25.0576 47.0408C25.0498 47.0288 25.0332 46.9966 25.0186 46.9275V46.9236L25.0078 46.823C25.0094 46.7994 25.0151 46.7847 25.0186 46.7761C25.0266 46.7561 25.0452 46.7262 25.0938 46.6892C25.2038 46.6056 25.3938 46.5402 25.6113 46.5046C26.1138 46.4357 26.6132 46.3479 27.1025 46.2605C27.5964 46.1723 28.0797 46.0852 28.5635 46.0154Z" fill="#4A7155" stroke="#4A7155"/>
<path d="M130.174 69.7499C130.909 69.7419 131.688 70.1484 132.298 70.8407C132.904 71.5292 133.293 72.4464 133.289 73.3573L133.288 73.5145C133.231 74.4615 132.948 75.0646 132.488 75.4677C131.982 75.9108 131.184 76.1855 129.984 76.2919C129.187 76.3619 128.41 76.0351 127.825 75.4686C127.239 74.9006 126.881 74.1252 126.889 73.3563C126.915 71.3815 128.312 69.864 130.009 69.7557L130.174 69.7499Z" fill="#4A7155" stroke="#4A7155"/>
<path d="M121.187 50.4838C122.191 50.04 123.068 50.1178 123.947 50.4095C124.397 50.5587 124.842 50.7626 125.309 50.9867C125.659 51.1549 126.027 51.3366 126.401 51.5033C125.901 51.3501 125.406 51.1698 124.907 50.9672H124.908C123.918 50.562 122.897 50.5124 121.831 50.9711L121.955 51.2592L121.834 51.8949C122.282 52.0732 122.723 52.2799 123.176 52.4945C123.624 52.707 124.087 52.9282 124.56 53.1234C125.508 53.5153 126.533 53.8193 127.69 53.7699H127.693C127.752 53.767 127.813 53.762 127.865 53.7582C127.92 53.7542 127.969 53.7503 128.017 53.7484C128.115 53.7445 128.178 53.7493 128.22 53.7582C128.224 53.7591 128.227 53.7603 128.23 53.7611C128.234 53.7703 128.239 53.784 128.242 53.8051C128.211 53.8164 128.169 53.8314 128.107 53.8461C128.062 53.8569 128.021 53.866 127.967 53.8783L127.802 53.9193C127.379 54.0355 127.181 54.346 127.071 54.5385C127.006 54.6533 126.984 54.6997 126.943 54.7621C126.912 54.8094 126.896 54.8204 126.895 54.8217C126.74 54.9213 126.633 54.9948 126.527 55.0521C126.511 55.0608 126.496 55.0655 126.483 55.0717C126.457 55.0099 126.421 54.9104 126.389 54.7523H126.39C126.309 54.3515 126.126 54.0419 125.843 53.8324C125.576 53.6348 125.268 53.5636 125.012 53.5287C124.777 53.4968 124.467 53.4856 124.288 53.4701C124.068 53.451 123.921 53.4209 123.817 53.3705L123.815 53.3695L123.652 53.307C123.471 53.2552 123.242 53.2473 123.032 53.4056C122.807 53.5757 122.756 53.8396 122.738 53.9515C122.716 54.0902 122.712 54.2457 122.708 54.3461C122.703 54.4727 122.699 54.5284 122.693 54.5521L122.692 54.5551C122.663 54.6795 122.635 54.7865 122.603 54.8793C122.57 54.9729 122.539 55.0326 122.513 55.0687C122.49 55.1003 122.477 55.1049 122.475 55.1058C122.472 55.1069 122.441 55.1202 122.358 55.1068C121.894 55.0319 121.661 54.7118 121.687 54.4486L121.688 54.4427C121.739 53.8431 121.647 53.321 121.418 52.851C121.192 52.3876 120.849 52.0053 120.443 51.6595L120.439 51.6556L120.28 51.5101C119.942 51.1632 119.824 50.7709 119.979 50.3949C119.995 50.3581 120.008 50.3337 120.018 50.3187C120.034 50.3213 120.059 50.3257 120.097 50.3373C120.145 50.3523 120.198 50.3732 120.266 50.3998C120.327 50.4239 120.407 50.4564 120.485 50.4828C120.614 50.5261 120.901 50.6161 121.188 50.4847L121.187 50.4838Z" fill="#4A7155" stroke="#4A7155"/>
<path d="M122.24 45.965C124.218 45.6797 126.122 46.1539 128.191 46.5226H128.195C128.398 46.5571 128.559 46.6162 128.653 46.6887C128.695 46.7206 128.715 46.7491 128.726 46.7726C128.736 46.7943 128.747 46.8347 128.74 46.9094C128.736 46.9463 128.729 46.9706 128.725 46.9865L128.724 46.9875C128.67 46.9963 128.598 46.9972 128.471 46.9933C128.374 46.9905 128.228 46.9847 128.083 47.0002C127.216 46.8561 126.376 46.721 125.538 46.5861H125.537C123.817 46.2983 122.076 46.2897 120.36 46.9865L120.355 46.9885C120.293 47.0146 120.244 47.0346 120.197 47.0539C120.25 46.9965 120.329 46.9128 120.393 46.8254L120.392 46.8244C120.803 46.2698 121.43 46.0822 122.24 45.965Z" fill="#4A7155" stroke="#4A7155"/>
<path d="M115.903 64.5603C116.101 64.5885 116.3 64.7001 116.536 64.9119C116.65 65.0135 116.754 65.1425 116.903 65.3171C117.038 65.474 117.212 65.6729 117.425 65.822C117.651 65.9806 117.939 66.097 118.289 66.0642C118.571 66.0377 118.845 65.9166 119.118 65.7244C119.125 65.7369 119.133 65.7496 119.14 65.7644C119.164 65.8204 119.18 65.8825 119.188 65.9431C119.133 66.2715 118.937 66.5139 118.604 66.6638L118.604 66.6648C118.169 66.8615 117.766 66.785 117.371 66.4353C117.083 66.1753 116.867 65.8468 116.597 65.448C116.405 65.1645 116.185 64.8478 115.903 64.5603Z" fill="#4A7155" stroke="#4A7155"/>
</svg>
