<svg width="76" height="120" viewBox="0 0 76 120" fill="none" xmlns="http://www.w3.org/2000/svg">
<path d="M49.2627 1.52246C57.1681 0.104725 61.2133 0.640083 68.4932 0.551758C67.1077 1.1376 65.2258 1.93709 63.2295 2.83398C56.9184 5.67 50.8129 8.50621 46.0332 13.7842C40.9448 19.3893 36.9241 25.565 36.1953 33.3672L36.1348 34.1279C36.0853 34.899 36.0103 35.6733 35.9375 36.4609C35.865 37.2452 35.7953 38.0408 35.7598 38.8369C35.6886 40.4287 35.7523 42.0486 36.2129 43.6562V43.6572C36.6738 45.2794 36.6329 46.7988 36.1123 48.2246L36.002 48.5088C35.1421 50.5877 35.5279 52.472 36.1611 54.291V54.292C36.8236 56.2269 38.1175 57.7903 39.2568 59.2832L39.2588 59.2861C39.3454 59.398 39.4903 59.5379 39.6152 59.6602C39.7546 59.7965 39.9098 59.949 40.0635 60.1172C40.382 60.466 40.6367 60.8239 40.7197 61.1523V61.1533C40.9089 61.8975 40.7668 62.4486 40.4648 62.9219C40.1448 63.4234 39.636 63.8521 39.0488 64.3037C38.6139 64.6373 38.2537 64.9195 37.9863 65.1807C37.716 65.4448 37.4987 65.7268 37.3975 66.0742C37.2951 66.4258 37.3312 66.7765 37.4307 67.1396C37.5281 67.4955 37.6999 67.9095 37.916 68.4014L37.917 68.4023C38.1014 68.8183 38.1348 69.3503 38.0137 69.833C37.8916 70.3192 37.6336 70.6812 37.3145 70.8457L37.3125 70.8467C36.9215 71.0505 36.5865 71.3102 36.4531 71.7148C36.3248 72.1042 36.4295 72.4991 36.5537 72.8408V72.8398C36.9192 73.8613 36.5832 74.8696 35.8906 75.3213C34.9043 75.9639 34.4615 76.7329 34.3496 77.585C34.2446 78.3847 34.4411 79.2232 34.6055 79.9678C34.8431 81.0574 34.8127 81.9484 34.1719 82.4873C33.2624 83.251 32.8803 84.0967 32.8281 84.9961C32.7783 85.8563 33.0347 86.7297 33.2979 87.5439L33.2988 87.5469C34.1132 90.0207 35.5916 92.1091 36.9004 94.1953V94.1963C39.5604 98.4332 42.9452 101.966 46.6729 105.167L47.4229 105.804C51.2875 109.051 55.6195 111.522 60.1523 113.643V113.644C63.4857 115.198 66.978 116.347 70.4746 117.322L70.4561 117.342L71.2959 117.563C71.9026 117.724 72.4274 117.907 72.9521 118.066C71.5989 118.278 69.7682 118.498 67.7305 118.682C63.4646 119.066 58.3422 119.293 54.8369 118.992H54.8359C47.8436 118.397 41.1409 116.632 34.7754 113.657C26.9004 109.978 20.1384 104.822 14.5254 98.1875C10.7897 93.7734 7.7939 88.8782 5.48828 83.583L5.03613 82.5186C2.53975 76.5054 1.20924 70.2179 0.682617 63.71V63.709L0.632812 63.0654C0.16587 56.4149 0.938361 49.9177 2.75488 43.5166C5.02174 35.525 8.83282 28.3437 14.1455 21.9512L14.6641 21.335C18.3187 17.0666 22.4598 13.3921 27.1133 10.3271L28.0508 9.72266C34.5754 5.60764 41.6351 2.89127 49.2627 1.52246ZM63.4561 1.01074C41.4352 0.0533157 18.0593 10.4987 6.45117 35.1572C-3.13064 55.5028 -0.472706 80.3537 15.7705 98.8223L16.5547 99.6973C23.0332 106.801 30.903 111.874 39.9521 115.189C49.0446 118.523 58.3834 118.951 67.8291 118.278L69.0918 118.188L68.1094 117.392C67.6909 117.052 67.2549 116.823 66.7852 116.674L66.7842 116.673L66.0264 116.431C58.2277 113.885 51.1842 110.035 45.1016 104.48C39.7419 99.5826 35.313 94.0667 32.7197 87.2637L32.4746 86.6006C32.1381 85.6603 31.6722 84.4717 30.4121 83.8955H30.4111C30.3008 83.8444 30.169 83.8023 30.0967 83.7773C30.0645 83.7662 30.0377 83.7556 30.0156 83.7471C30.0234 83.7443 30.0343 83.7397 30.0498 83.7363C30.0968 83.7262 30.1604 83.7206 30.2539 83.7178C30.324 83.7156 30.4677 83.7139 30.5674 83.709L30.5684 83.71C31.8466 83.6481 32.8456 83.3616 33.4639 82.6387C34.0042 82.0069 34.1669 81.143 34.1162 80.1055L34.0811 79.6504C33.9839 78.6788 33.8946 77.8153 34.0518 77.0352C34.2009 76.2947 34.577 75.6209 35.4727 75.0518C35.7918 74.8488 36.0125 74.5875 36.1367 74.2803C36.2579 73.9802 36.2733 73.6715 36.2441 73.3896C36.2165 73.1231 36.1428 72.845 36.0596 72.585L35.8174 71.8887C35.7212 71.6017 35.5752 71.3618 35.3633 71.1914C35.1473 71.0178 34.9062 70.9517 34.6855 70.9365C34.4741 70.922 34.2679 70.9533 34.1016 70.9854C33.9006 71.0241 33.8037 71.0518 33.6514 71.0771L33.6455 71.0781C33.2763 71.1448 32.9053 71.227 32.54 71.3135L31.4697 71.5732C31.3762 71.5953 31.3099 71.6114 31.2461 71.6221C31.2096 71.6282 31.1837 71.6273 31.166 71.6279L31.1641 71.623C31.0565 71.3627 31.0823 71.0696 31.2061 70.6855C31.2463 70.571 31.2956 70.5236 31.3135 70.5117C31.3195 70.5078 31.3194 70.5093 31.3154 70.5098C31.3184 70.5098 31.3283 70.5107 31.3467 70.5176L31.3486 70.5186C32.3027 70.8748 33.1146 70.6913 33.8164 70.3828C34.1572 70.233 34.4863 70.0476 34.7842 69.8838C35.0914 69.7149 35.3718 69.565 35.6543 69.4561V69.457L35.6592 69.4551C36.1985 69.2405 36.6433 68.9084 36.8984 68.4209C37.1539 67.9326 37.1787 67.3633 37.0293 66.7529H37.0303C36.9109 66.2591 36.9675 65.8587 37.1357 65.5146C37.309 65.1604 37.6184 64.8301 38.0596 64.5205C38.5801 64.158 39.2493 63.7531 39.7646 63.2158L39.7666 63.2139C40.0765 62.8868 40.3528 62.4596 40.4248 61.9795C40.5019 61.4646 40.3334 60.9491 39.8652 60.5352L39.8643 60.5342L39.6943 60.3799C38.8689 59.5959 38.3237 58.6299 37.5898 57.6084H37.5908C35.4348 54.5997 34.2724 51.4884 35.7559 47.9111L35.7578 47.9072C36.0513 47.1785 36.3568 46.2433 36.0625 45.2744L36.0615 45.2734L35.9004 44.7061C35.1505 41.8652 35.282 38.9429 35.5811 35.9902L35.582 35.9893C35.7082 34.7124 35.6956 33.3747 35.7559 32.1475C35.8098 31.0491 35.9213 29.9863 36.2236 28.9561L36.3652 28.5166C38.6645 22.0214 42.2892 16.3832 47.2236 11.6416L47.7051 11.1855C52.2572 6.92969 57.5815 3.90541 63.5859 1.98633L63.4561 1.01074Z" fill="#4A7155" stroke="#4A7155"/>
<path d="M22.6953 68.29C24.3801 68.2908 25.8755 69.7578 26.0244 71.6875L26.0342 71.876C26.0838 73.3983 24.6464 74.834 22.916 74.8604H22.9092C21.9112 74.8693 21.0949 74.5582 20.5303 74.0527C19.9688 73.55 19.6274 72.8294 19.6143 71.9531V71.9502L19.6152 71.7832C19.6452 70.944 20.0172 70.0905 20.5859 69.4287C21.196 68.7189 21.9736 68.2945 22.6953 68.29Z" fill="#4A7155" stroke="#4A7155"/>
<path d="M28.1191 49.2563C28.779 48.7496 29.4827 48.7308 30.332 48.8237C30.7322 48.8675 31.2252 48.9449 31.6729 48.9751C32.0913 49.0033 32.5346 48.9964 32.9834 48.8911C32.9916 48.9207 32.9997 48.9557 33.0049 48.9946C33.0145 49.0674 33.015 49.14 33.0078 49.2007C32.9465 49.7144 32.6726 50.1391 32.2441 50.4604C31.9039 50.7156 31.6237 51.0085 31.4512 51.3843C31.2774 51.7629 31.2348 52.1768 31.2871 52.6362C31.3443 53.1733 31.0029 53.569 30.4736 53.6226C30.4309 53.6269 30.4052 53.6242 30.3926 53.6216C30.3809 53.6192 30.3763 53.6165 30.375 53.6157C30.3733 53.6146 30.3525 53.6008 30.3252 53.5425C30.2615 53.4062 30.2337 53.1868 30.2236 52.9214V52.9165L30.2129 52.7759C30.1986 52.6358 30.1716 52.4998 30.126 52.3745C30.065 52.207 29.9586 52.0275 29.7734 51.9058C29.3777 51.6458 28.9399 51.8197 28.6562 51.9917C28.5831 52.0358 28.4629 52.0684 28.2471 52.0962C28.0688 52.1191 27.7757 52.1413 27.5312 52.2017C27.2666 52.2671 26.9568 52.3966 26.7314 52.6958C26.5461 52.9419 26.4586 53.2493 26.4443 53.606C26.418 53.5961 26.3939 53.5853 26.375 53.5737L26.374 53.5728C26.2661 53.5069 26.1607 53.4147 26.041 53.2915C25.9813 53.23 25.9214 53.1647 25.8564 53.0933C25.7933 53.0238 25.724 52.9473 25.6523 52.8726C25.4523 52.664 25.2019 52.4364 24.8672 52.2876C24.9566 52.2835 25.0673 52.291 25.2285 52.2993H25.2305C26.3844 52.3542 27.4026 52.0534 28.3408 51.6665C28.8078 51.4739 29.2656 51.2552 29.707 51.0474C30.078 50.8727 30.4398 50.7049 30.8037 50.5552L31.3438 50.8413V49.27L30.8545 49.4585C29.7739 48.9783 28.7879 49.2062 27.9092 49.5415C27.421 49.7235 26.9766 49.9047 26.5225 50.0483C26.7062 49.9751 26.8937 49.9034 27.1162 49.8101C27.4476 49.671 27.8025 49.5011 28.1191 49.2563ZM24.3896 52.1479C24.394 52.1487 24.3981 52.15 24.4023 52.1509C24.3981 52.1502 24.3939 52.1486 24.3896 52.1479Z" fill="#4A7155" stroke="#4A7155"/>
<path d="M27.6982 44.5654C28.6644 44.426 29.6057 44.359 30.5527 44.4941V44.4951C31.4751 44.6292 32.1841 44.922 32.6631 45.5615C31.3548 44.9959 30.0552 44.9068 28.7939 44.9922C28.1349 45.0368 27.4802 45.1296 26.8408 45.2275C26.1954 45.3264 25.5722 45.4303 24.9463 45.5039H24.9443C24.8061 45.5205 24.6294 45.5557 24.5244 45.5732C24.3949 45.5949 24.3058 45.6031 24.2412 45.5986C24.2139 45.5967 24.1991 45.5931 24.1924 45.5908C24.1845 45.5789 24.1679 45.5467 24.1533 45.4775V45.4736L24.1426 45.373C24.1441 45.3495 24.1499 45.3347 24.1533 45.3262C24.1614 45.3061 24.1799 45.2762 24.2285 45.2393C24.3386 45.1557 24.5285 45.0902 24.7461 45.0547C25.2486 44.9857 25.748 44.898 26.2373 44.8105C26.7311 44.7223 27.2144 44.6352 27.6982 44.5654Z" fill="#4A7155" stroke="#4A7155"/>
</svg>
