<svg width="18" height="18" viewBox="0 0 18 18" fill="none" xmlns="http://www.w3.org/2000/svg">
<path d="M9 0.0419915C4.51269 0.0419912 0.875 3.67968 0.874999 8.16699L0.874999 12.333C0.874999 15.4396 3.3934 17.958 6.5 17.958L9 17.958C9.34518 17.958 9.625 17.6782 9.625 17.333C9.62482 16.988 9.34507 16.708 9 16.708L6.5 16.708C4.85879 16.708 3.43024 15.8037 2.68164 14.4668C2.964 14.5666 3.26646 14.625 3.58301 14.625C5.07867 14.625 6.29182 13.4126 6.29199 11.917L6.29199 10.25C6.29199 8.75423 5.07878 7.54199 3.58301 7.54199C3.04809 7.54205 2.55081 7.69908 2.13086 7.9668C2.23666 4.26232 5.26992 1.29199 9 1.29199C12.7301 1.29199 15.7643 4.2623 15.8701 7.9668C15.45 7.69881 14.9522 7.54205 14.417 7.54199C12.9212 7.54199 11.708 8.75423 11.708 10.25L11.708 11.917C11.7082 13.4126 12.9213 14.625 14.417 14.625C15.9125 14.6248 17.1248 13.4125 17.125 11.917L17.125 8.16699C17.125 3.67968 13.4873 0.0419919 9 0.0419915Z" fill="#4A7155"/>
</svg>
