<svg width="111" height="111" viewBox="0 0 111 111" fill="none" xmlns="http://www.w3.org/2000/svg">
<mask id="path-1-inside-1_709_4955" fill="white">
<path d="M53.23 26.6438C53.39 24.0038 53.45 20.5938 53.82 17.1938C54.11 14.5338 53.87 11.8238 54.16 9.14378C54.45 6.46378 54.56 3.78378 54.61 1.08378C54.61 0.633784 54.6 0.0537674 55.19 0.00376737C55.91 -0.0562326 55.88 0.613765 55.93 1.06376C56.18 3.32376 56.1 5.60376 56.23 7.87376C56.68 15.2838 57.27 22.6938 57.43 30.1138C57.48 32.5638 57.8 35.0238 58.07 37.4638C58.29 39.5138 59.48 41.4138 61.52 41.5838C63.11 41.9838 64.76 41.1738 65.59 40.7938C68.66 39.3838 70.64 37.4238 73.04 35.1838C76.97 31.5138 81.07 28.0238 85.15 24.5138C85.27 24.4138 85.38 24.3138 85.5 24.2238C85.79 24.0138 86.1 23.8338 86.42 24.1338C86.77 24.4638 86.52 24.7538 86.3 25.0238C85.49 26.0238 84.76 27.1038 83.85 28.0138C80.83 31.0638 78.24 34.4738 75.49 37.7538C73.99 39.5538 72.42 41.2938 70.84 43.0238C69.96 43.9838 70.58 44.6638 71.43 45.6538C72.59 46.9938 73.55 48.7838 73.9 50.4738C74.22 52.0338 73.81 52.4638 75.36 52.6438C78.98 53.0438 82.61 53.4638 86.24 53.4238C90.49 53.3738 94.69 53.9638 98.93 54.0538C102.44 54.1238 105.98 54.1638 109.48 54.6338C109.92 54.6938 110.52 54.6238 110.52 55.2538C110.52 55.9438 109.87 55.8838 109.4 55.9138C106.11 56.1338 102.82 56.3738 99.53 56.5538C95.98 56.7438 92.42 56.9538 88.86 57.0238C85.07 57.0938 81.29 57.2938 77.53 57.6738C76.02 57.8238 74.52 57.9838 73.01 58.0738C71.8 58.1438 71.51 58.6638 70.95 59.7438C70.5 60.6138 69.88 61.6038 69.56 62.5238C69.18 63.6438 68.58 64.5938 69.48 65.6338C72.45 69.0738 74.98 72.8638 78.01 76.2638C80.55 79.1238 83.15 81.9238 85.69 84.7838C86.07 85.2138 86.96 85.7638 86.42 86.3438C85.75 87.0638 85.24 86.0738 84.78 85.6838C82.17 83.4438 79.67 81.0738 76.98 78.9238C73.81 76.3838 70.94 73.5338 67.89 70.8838C66.8 69.9338 66.09 69.4238 64.67 69.0538C63.51 69.1038 62.2 70.0138 61.81 70.2538C59.85 71.9238 58.81 73.1238 58.05 75.2138C57.79 76.3438 57.61 78.0338 57.52 79.1938C57.32 82.0638 57.07 83.2738 57.12 86.1438C57.17 89.3338 56.69 92.4838 56.64 95.6638C56.6 98.3438 56.34 101.034 56.11 103.714C55.94 105.604 56.2 107.514 55.89 109.394C55.82 109.844 55.97 110.534 55.24 110.514C54.57 110.494 54.6 109.854 54.6 109.374C54.61 104.294 53.77 99.2637 53.87 94.1738C53.9 92.5537 53.57 90.9338 53.46 89.3138C53.33 87.2338 53.37 85.1538 53.29 83.0638C53.17 79.9538 52.98 79.8238 52.93 76.7138C52.93 75.2238 52.55 74.2338 51.5 73.0338C50.8 72.2338 48.84 70.8737 48.04 70.1738C46.77 69.0537 45.56 69.1238 44.28 69.8738C42.82 70.5938 42.6 70.9538 41.42 72.0138C38.55 74.5838 35.74 77.2337 32.76 79.6738C30.33 81.6637 28.11 83.8838 25.63 85.8138C25.42 85.9738 25.21 86.1438 25 86.2938C24.71 86.5038 24.4 86.6938 24.09 86.3538C23.8 86.0238 24 85.7238 24.24 85.4538C25.15 84.3838 25.99 83.2538 26.97 82.2538C31.44 77.6638 35.57 72.7838 39.41 67.6438C39.57 67.4338 39.72 67.2038 39.91 67.0238C42.76 64.2638 41.09 63.3038 39.48 60.5538C38.82 59.4238 38.73 58.1438 37.44 58.0538C34.11 57.8338 30.8 57.4438 27.47 57.2638C23.27 57.0338 19.07 57.0038 14.87 56.7938C10.33 56.5638 5.8 56.2238 1.27 55.9338C1.08 55.9238 0.889997 55.9138 0.699997 55.8738C0.349997 55.8038 0.01 55.6738 0 55.2538C0 54.8138 0.349997 54.7338 0.699997 54.6638C2.16 54.3538 3.65 54.3738 5.12 54.3238C8.14999 54.2238 11.17 53.8938 14.2 53.8638C18.36 53.8238 22.49 53.2438 26.65 53.3038C29.69 53.3438 32.69 52.8638 35.71 52.5738C36.71 52.4738 36.5 51.8138 36.7 50.7738C37.09 48.8038 38.04 46.9938 39.4 45.4538C40.15 44.6138 40.36 43.8038 39.71 43.0638C37.87 40.9538 35.97 38.8838 34.23 36.7038C31.21 32.9138 27.87 29.3937 24.77 25.6737C24.72 25.6138 24.66 25.5638 24.62 25.5038C24.38 25.0438 23.52 24.6638 24.12 24.1038C24.67 23.5838 25.14 24.3438 25.53 24.6638C29.55 27.9438 33.39 31.4338 37.23 34.9238C39.72 37.1838 41.96 39.7138 45.03 41.2938C48.18 42.9238 52.17 41.0737 52.44 37.4837C52.69 34.1237 53.27 30.7838 53.23 26.6438ZM70.95 52.1638C70.84 50.1238 70.55 48.3738 69.22 46.8438C65.93 43.0538 58.98 44.0038 56.32 47.3138C55.61 48.1938 54.89 48.1738 54.2 47.2638C53.83 46.7838 53.42 46.3738 52.9 46.0238C51.76 45.2738 50.5 44.9138 49.21 44.6038C44.01 43.3538 38.73 46.9638 39.76 53.1838C40.33 56.6238 42.11 59.5338 44.26 62.1138C47.27 65.7138 50.92 68.7038 54.51 71.7238C55.04 72.1638 55.48 72.1438 56.02 71.7337C58.78 69.6537 61.15 67.1538 63.71 64.8538C65.75 63.0338 67.36 60.8538 68.76 58.4938C69.97 56.4738 70.7 54.3238 70.95 52.1538V52.1638Z"/>
</mask>
<path d="M53.23 26.6438C53.39 24.0038 53.45 20.5938 53.82 17.1938C54.11 14.5338 53.87 11.8238 54.16 9.14378C54.45 6.46378 54.56 3.78378 54.61 1.08378C54.61 0.633784 54.6 0.0537674 55.19 0.00376737C55.91 -0.0562326 55.88 0.613765 55.93 1.06376C56.18 3.32376 56.1 5.60376 56.23 7.87376C56.68 15.2838 57.27 22.6938 57.43 30.1138C57.48 32.5638 57.8 35.0238 58.07 37.4638C58.29 39.5138 59.48 41.4138 61.52 41.5838C63.11 41.9838 64.76 41.1738 65.59 40.7938C68.66 39.3838 70.64 37.4238 73.04 35.1838C76.97 31.5138 81.07 28.0238 85.15 24.5138C85.27 24.4138 85.38 24.3138 85.5 24.2238C85.79 24.0138 86.1 23.8338 86.42 24.1338C86.77 24.4638 86.52 24.7538 86.3 25.0238C85.49 26.0238 84.76 27.1038 83.85 28.0138C80.83 31.0638 78.24 34.4738 75.49 37.7538C73.99 39.5538 72.42 41.2938 70.84 43.0238C69.96 43.9838 70.58 44.6638 71.43 45.6538C72.59 46.9938 73.55 48.7838 73.9 50.4738C74.22 52.0338 73.81 52.4638 75.36 52.6438C78.98 53.0438 82.61 53.4638 86.24 53.4238C90.49 53.3738 94.69 53.9638 98.93 54.0538C102.44 54.1238 105.98 54.1638 109.48 54.6338C109.92 54.6938 110.52 54.6238 110.52 55.2538C110.52 55.9438 109.87 55.8838 109.4 55.9138C106.11 56.1338 102.82 56.3738 99.53 56.5538C95.98 56.7438 92.42 56.9538 88.86 57.0238C85.07 57.0938 81.29 57.2938 77.53 57.6738C76.02 57.8238 74.52 57.9838 73.01 58.0738C71.8 58.1438 71.51 58.6638 70.95 59.7438C70.5 60.6138 69.88 61.6038 69.56 62.5238C69.18 63.6438 68.58 64.5938 69.48 65.6338C72.45 69.0738 74.98 72.8638 78.01 76.2638C80.55 79.1238 83.15 81.9238 85.69 84.7838C86.07 85.2138 86.96 85.7638 86.42 86.3438C85.75 87.0638 85.24 86.0738 84.78 85.6838C82.17 83.4438 79.67 81.0738 76.98 78.9238C73.81 76.3838 70.94 73.5338 67.89 70.8838C66.8 69.9338 66.09 69.4238 64.67 69.0538C63.51 69.1038 62.2 70.0138 61.81 70.2538C59.85 71.9238 58.81 73.1238 58.05 75.2138C57.79 76.3438 57.61 78.0338 57.52 79.1938C57.32 82.0638 57.07 83.2738 57.12 86.1438C57.17 89.3338 56.69 92.4838 56.64 95.6638C56.6 98.3438 56.34 101.034 56.11 103.714C55.94 105.604 56.2 107.514 55.89 109.394C55.82 109.844 55.97 110.534 55.24 110.514C54.57 110.494 54.6 109.854 54.6 109.374C54.61 104.294 53.77 99.2637 53.87 94.1738C53.9 92.5537 53.57 90.9338 53.46 89.3138C53.33 87.2338 53.37 85.1538 53.29 83.0638C53.17 79.9538 52.98 79.8238 52.93 76.7138C52.93 75.2238 52.55 74.2338 51.5 73.0338C50.8 72.2338 48.84 70.8737 48.04 70.1738C46.77 69.0537 45.56 69.1238 44.28 69.8738C42.82 70.5938 42.6 70.9538 41.42 72.0138C38.55 74.5838 35.74 77.2337 32.76 79.6738C30.33 81.6637 28.11 83.8838 25.63 85.8138C25.42 85.9738 25.21 86.1438 25 86.2938C24.71 86.5038 24.4 86.6938 24.09 86.3538C23.8 86.0238 24 85.7238 24.24 85.4538C25.15 84.3838 25.99 83.2538 26.97 82.2538C31.44 77.6638 35.57 72.7838 39.41 67.6438C39.57 67.4338 39.72 67.2038 39.91 67.0238C42.76 64.2638 41.09 63.3038 39.48 60.5538C38.82 59.4238 38.73 58.1438 37.44 58.0538C34.11 57.8338 30.8 57.4438 27.47 57.2638C23.27 57.0338 19.07 57.0038 14.87 56.7938C10.33 56.5638 5.8 56.2238 1.27 55.9338C1.08 55.9238 0.889997 55.9138 0.699997 55.8738C0.349997 55.8038 0.01 55.6738 0 55.2538C0 54.8138 0.349997 54.7338 0.699997 54.6638C2.16 54.3538 3.65 54.3738 5.12 54.3238C8.14999 54.2238 11.17 53.8938 14.2 53.8638C18.36 53.8238 22.49 53.2438 26.65 53.3038C29.69 53.3438 32.69 52.8638 35.71 52.5738C36.71 52.4738 36.5 51.8138 36.7 50.7738C37.09 48.8038 38.04 46.9938 39.4 45.4538C40.15 44.6138 40.36 43.8038 39.71 43.0638C37.87 40.9538 35.97 38.8838 34.23 36.7038C31.21 32.9138 27.87 29.3937 24.77 25.6737C24.72 25.6138 24.66 25.5638 24.62 25.5038C24.38 25.0438 23.52 24.6638 24.12 24.1038C24.67 23.5838 25.14 24.3438 25.53 24.6638C29.55 27.9438 33.39 31.4338 37.23 34.9238C39.72 37.1838 41.96 39.7138 45.03 41.2938C48.18 42.9238 52.17 41.0737 52.44 37.4837C52.69 34.1237 53.27 30.7838 53.23 26.6438ZM70.95 52.1638C70.84 50.1238 70.55 48.3738 69.22 46.8438C65.93 43.0538 58.98 44.0038 56.32 47.3138C55.61 48.1938 54.89 48.1738 54.2 47.2638C53.83 46.7838 53.42 46.3738 52.9 46.0238C51.76 45.2738 50.5 44.9138 49.21 44.6038C44.01 43.3538 38.73 46.9638 39.76 53.1838C40.33 56.6238 42.11 59.5338 44.26 62.1138C47.27 65.7138 50.92 68.7038 54.51 71.7238C55.04 72.1638 55.48 72.1438 56.02 71.7337C58.78 69.6537 61.15 67.1538 63.71 64.8538C65.75 63.0338 67.36 60.8538 68.76 58.4938C69.97 56.4738 70.7 54.3238 70.95 52.1538V52.1638Z" fill="#4A7155" stroke="#4A7155" stroke-width="2" mask="url(#path-1-inside-1_709_4955)"/>
<path d="M46.6699 49.6035C48.8196 48.8245 50.8973 49.014 52.8027 50.3428V50.3438C53.3154 50.7019 53.733 50.9974 54.0879 51.2012C54.4473 51.4075 54.7983 51.5538 55.1846 51.5674C55.5749 51.581 55.9333 51.4565 56.3047 51.2598C56.6693 51.0666 57.093 50.7782 57.6143 50.415C59.218 49.3026 60.9552 49.0407 62.876 49.2793V49.2803C64.9658 49.5471 66.2927 51.1519 66.2393 53.2109V53.4844C66.1921 56.0865 64.8677 58.0656 63.2119 59.8643C61.0131 62.2455 59.0286 64.694 56.5293 66.6719C55.931 67.1447 55.5544 67.2968 55.2461 67.293C54.9785 67.2895 54.6629 67.1666 54.2021 66.8047L53.9951 66.6348C51.274 64.2796 48.8438 61.6222 46.5225 58.8525C45.08 57.1306 44.2152 55.2012 44.29 52.9854L44.3174 52.5381C44.4479 51.0679 45.3264 50.0878 46.6689 49.6045L46.6699 49.6035Z" fill="#4A7155" stroke="#4A7155" stroke-width="2"/>
</svg>
