<svg width="65" height="85" viewBox="0 0 65 85" fill="none" xmlns="http://www.w3.org/2000/svg">
<path d="M42.6953 0.579102C47.1485 0.428485 51.5893 0.534318 56.7715 0.546875C54.5168 3.99281 52.5868 6.96991 50.6123 9.93164C49.8491 11.0726 49.259 11.9799 48.8994 12.7119C48.5476 13.4282 48.3501 14.1041 48.5625 14.7266C48.7764 15.353 49.3472 15.7556 50.0605 16.0879C50.7882 16.4268 51.802 16.7523 53.0918 17.1475C57.3444 18.4495 60.079 20.0792 61.6777 22.3262C63.2718 24.5666 63.7996 27.5113 63.4297 31.5947V31.5957C63.0827 35.4785 61.4162 38.3248 57.9473 40.126C55.8729 41.1983 53.8245 42.3681 51.8291 43.4502L51.4883 43.6357L51.583 44.0127C52.1108 46.1002 53.8683 46.5484 54.8398 47.1035L54.8408 47.1045C61.1951 50.716 64.3431 56.4703 63.4619 63.3164C62.6978 69.2464 58.0642 72.9247 51.9844 74.0781C50.048 74.446 48.4731 75.0801 47.4238 76.2129C46.3594 77.3621 45.9079 78.9444 46.0488 81.043V81.0439C46.1274 82.1956 45.8437 82.8697 45.3818 83.2676C44.8981 83.6843 44.1069 83.8988 42.9609 83.8701C35.9929 83.6902 29.0059 83.5 22.0283 83.5C20.5632 83.5 19.6578 83.1938 19.0996 82.6416C18.5398 82.0878 18.2261 81.1852 18.1875 79.7461V79.7451L18.1553 79.1064C18.0471 77.6434 17.702 76.3719 16.9102 75.3516C16.0564 74.2517 14.7392 73.5142 12.8408 73.0898L12.4531 73.0088C9.89999 72.5132 7.31797 71.9228 5.21289 70.6689C3.13651 69.4321 1.51405 67.5431 0.888672 64.3926V64.3916L0.767578 63.7373C0.221779 60.4887 0.523002 57.5963 1.55469 54.999C2.65657 52.2251 4.60391 49.7547 7.30469 47.5352C8.44009 46.6089 9.5967 45.7035 11.0576 44.5527L11.5186 44.1895L11.0859 43.792C10.2795 43.0504 9.40585 42.4288 8.53613 41.8525C7.65335 41.2676 6.80391 40.7469 5.97852 40.166C4.35111 39.0207 2.95747 37.7358 2.16406 35.6982C0.95294 32.5902 0.77488 29.5381 1.60645 26.8809C2.38452 24.3948 4.05663 22.2197 6.66406 20.6455L7.19727 20.3389C9.02448 19.3449 10.8689 18.3685 12.7852 17.9062L12.7881 17.9053C14.8326 17.4005 16.043 16.5486 16.2881 15.2666C16.406 14.6496 16.2787 14.0082 16.0127 13.3779C15.7464 12.747 15.327 12.0937 14.8125 11.4326C13.8912 10.2481 12.8986 9.12159 11.9102 8.01074C11.1666 7.17507 10.4262 6.34909 9.71191 5.50586L9.00684 4.65527C8.83497 4.44265 8.61957 4.24036 8.43848 4.06641C8.24608 3.8816 8.08044 3.71849 7.95117 3.5498C7.82408 3.38392 7.7525 3.23821 7.72754 3.09961C7.70999 3.00211 7.71173 2.88569 7.75781 2.74023L7.81934 2.58496C7.95145 2.30876 8.17138 2.16198 8.50586 2.07617C8.87013 1.98273 9.28657 1.98049 9.77051 1.95898L9.76953 1.95801C20.7531 1.48785 31.7181 0.959005 42.6953 0.579102Z" fill="#4A7155" stroke="#4A7155" stroke-width="2"/>
</svg>
