<svg width="184" height="84" viewBox="0 0 184 84" fill="none" xmlns="http://www.w3.org/2000/svg">
<path d="M86.5723 1.33789C104.94 -2.47499 124.064 7.02195 132.182 23.8027L132.56 24.6074C132.786 25.1057 132.697 25.2091 132.693 25.2148C132.676 25.241 132.632 25.2877 132.516 25.3564C132.398 25.4261 132.25 25.4933 132.049 25.585C118.413 31.7875 104.479 37.2524 90.4131 42.3994C79.1472 46.5196 67.7903 50.3618 56.2998 53.8252V53.8271C56.0026 53.9163 55.7767 53.9722 55.5967 53.9932C55.4172 54.014 55.3213 53.9956 55.2666 53.9727C55.1808 53.9365 55.0128 53.8055 54.8477 53.126L54.8467 53.125L54.5166 51.7246C53.7779 48.4596 53.2784 45.1993 53.3438 41.8604V41.8535C53.4437 22.0984 67.1645 5.36264 86.5723 1.33789Z" fill="#4A7155" stroke="#4A7155" stroke-width="2"/>
<path d="M162.105 3.86707C167.799 2.99032 173.45 2.12833 179.164 2.80066C180.219 2.92407 181.225 3.11826 182.154 3.50964L182.166 3.5155L182.181 3.52234C182.953 3.84857 183.31 4.20675 183.438 4.56042C183.564 4.91166 183.517 5.41024 183.117 6.14636L183.116 6.14734C182.048 8.12461 180.446 9.66407 178.696 11.1219L177.938 11.743C172.519 16.1116 166.581 19.6848 160.474 23.0331L157.847 24.4559C136.585 35.8414 114.333 44.9694 91.6553 53.1434C78.2334 57.9779 64.6792 62.3659 50.9248 66.1229C40.6156 68.9293 30.2492 71.4648 19.6914 72.9735L17.5771 73.2616C12.6767 73.8866 7.83802 74.5336 3.01855 73.3807L3.0166 73.3798L2.76367 73.3173C2.18269 73.1631 1.66387 72.9572 1.2002 72.6444C0.815303 72.3847 0.621302 72.1309 0.543945 71.8827C0.467591 71.6375 0.479419 71.3154 0.671875 70.8661L0.670898 70.8651C1.38699 69.2153 2.58762 67.9368 3.92773 66.6747C8.36892 62.4928 13.5363 59.2944 18.8057 56.1815C28.7911 50.2801 39.2449 45.2572 49.8135 40.455L49.8193 40.452C49.9052 40.4116 50.0278 40.3573 50.1582 40.2997C50.1869 40.6236 50.2276 40.9715 50.2695 41.3094C50.3491 41.9498 50.4323 42.56 50.4648 42.9979V42.9989L50.4658 43.0038C50.4748 43.1095 50.4634 43.1566 50.459 43.1708C50.4533 43.1753 50.4413 43.1845 50.418 43.1962C50.3495 43.2304 50.2566 43.2604 50.0889 43.3124C49.9351 43.3601 49.7385 43.4212 49.5293 43.5145H49.5283C43.7574 46.0993 38.0098 48.7817 32.4443 51.8202C29.6017 53.369 26.7463 54.9838 24.1406 56.9872L24.1377 56.9891C23.2971 57.6452 22.3651 58.3744 21.7607 59.4315C21.255 60.3101 21.1161 61.207 21.4502 61.9852C21.7832 62.7607 22.5296 63.2865 23.5078 63.5468C25.1865 63.9938 26.8458 63.8776 28.4336 63.6552L29.9961 63.4139C42.6023 61.413 54.7281 57.6145 66.7988 53.7704C79.7698 49.6439 92.5965 45.063 105.271 40.1034C120.677 34.07 136.033 27.8259 150.616 19.8749V19.8739C153.38 18.364 156.111 16.744 158.524 14.6102L158.527 14.6073C158.885 14.2854 159.236 13.9363 159.546 13.5448V13.5438C160.326 12.5566 160.64 11.5056 160.284 10.5848C159.93 9.66676 158.991 9.08902 157.751 8.86316H157.75C155.653 8.48518 153.563 8.75166 151.593 9.04578C144.739 10.0687 138.037 11.775 131.417 13.6962L131.415 13.6971C131.216 13.7556 131.04 13.8142 130.885 13.8661C130.726 13.9191 130.598 13.962 130.479 13.9969C130.243 14.0668 130.11 14.0822 129.999 14.0653C129.895 14.0494 129.753 13.9955 129.528 13.8124C129.356 13.6718 129.151 13.4683 128.894 13.1766L128.618 12.8553C128.361 12.5415 128.091 12.2248 127.77 11.8495C131.068 10.9468 134.205 10.0767 137.359 9.24109C145.019 7.20813 152.729 5.39187 160.541 4.11511L162.105 3.86707Z" fill="#4A7155" stroke="#4A7155" stroke-width="2"/>
<path d="M136.232 38.5312C136.527 41.316 136.426 44.0321 136.077 46.751C134.776 56.7699 130.503 65.3027 123.087 72.1875C116.484 78.3108 108.691 82.0055 99.7158 82.9277C84.1639 84.5253 71.5699 79.0629 61.7822 66.9395L61.7812 66.9375C61.6028 66.7179 61.494 66.5651 61.4355 66.4541C61.43 66.4436 61.4269 66.4333 61.4229 66.4248C61.4279 66.4217 61.4334 66.4175 61.4395 66.4141C61.5454 66.3528 61.7252 66.2801 62.0176 66.1924H62.0195C76.8103 61.7131 91.4514 56.7781 105.875 51.1943C116.032 47.2631 126.127 43.1612 136.039 38.6201L136.232 38.5312Z" fill="#4A7155" stroke="#4A7155" stroke-width="2"/>
</svg>
