<svg width="14" height="14" viewBox="0 0 14 14" fill="none" xmlns="http://www.w3.org/2000/svg">
<path d="M4.66649 5.54167H6.99982M4.66649 7.58333H8.74982M7.29149 11.6667C10.0299 11.6667 12.2498 9.44674 12.2498 6.70833C12.2498 3.96992 10.0299 1.75 7.29149 1.75C4.55308 1.75 2.33316 3.96992 2.33316 6.70833C2.33316 7.2625 2.42407 7.79543 2.59179 8.29302C2.6549 8.48028 2.68646 8.5739 2.69215 8.64583C2.69778 8.71687 2.69353 8.76667 2.67595 8.83572C2.65816 8.90564 2.61887 8.97837 2.54029 9.12381L1.58616 10.8899C1.45006 11.1418 1.38201 11.2677 1.39724 11.365C1.41051 11.4496 1.46034 11.5242 1.53351 11.5688C1.61751 11.62 1.75991 11.6053 2.04472 11.5759L5.03198 11.2671C5.12245 11.2577 5.16768 11.2531 5.20891 11.2546C5.24946 11.2562 5.27808 11.26 5.31762 11.2691C5.35783 11.2784 5.40838 11.2979 5.5095 11.3368C6.06253 11.5499 6.66337 11.6667 7.29149 11.6667Z" stroke="#4A7155" stroke-width="1.16667" stroke-linecap="round" stroke-linejoin="round"/>
</svg>
