<svg width="114" height="111" viewBox="0 0 114 111" fill="none" xmlns="http://www.w3.org/2000/svg">
<path d="M98.09 61.47C95.12 61.16 92.32 60.31 89.77 58.69C88.91 58.14 89.03 57.37 89.1 56.58C89.17 55.76 89.81 55.7 90.42 55.59C94.4 54.88 97.85 53.15 100.83 50.41C103.45 48 106.56 46.56 110.04 45.9C111.26 45.67 112.49 45.53 114 45.3C113.55 45.07 113.36 44.96 113.16 44.88C108.55 43.03 103.98 43.57 99.44 45.14C96.03 46.32 92.57 46.93 88.95 46.36C87.88 46.19 87.44 45.55 87.18 44.64C86.91 43.7 87.65 43.44 88.23 43.07C91.37 41.03 93.8 38.37 95.36 34.95C97.1 31.15 99.84 28.3 103.45 26.25C104.14 25.86 104.84 25.47 105.77 24.94C104.47 24.78 103.5 24.87 102.52 25C98.3 25.58 94.95 27.81 91.83 30.52C89.25 32.76 86.36 34.43 82.99 35.2C82.04 35.42 81.39 35.13 80.79 34.4C80.14 33.61 80.6 33.05 81.03 32.42C83.07 29.41 84.31 26.13 84.41 22.45C84.52 18.19 85.9 14.38 88.6 11.06C89.07 10.48 89.53 9.89 90.19 9.07C89.68 9.23 89.51 9.28 89.34 9.34C84.68 11.14 81.79 14.71 79.66 19.04C78.09 22.24 76.05 25.04 73.08 27.11C72.19 27.73 71.46 27.56 70.63 27.11C69.78 26.64 70.05 25.97 70.19 25.28C70.93 21.56 70.65 17.94 69.25 14.39C67.79 10.7 67.64 6.91 68.7 3.09C68.92 2.27 69.16 1.46 69.47 0.360001C68.17 1.44 67.3 2.47 66.54 3.6C64.39 6.79 63.84 10.43 63.61 14.16C63.4 17.48 62.56 20.61 60.73 23.45C60.17 24.32 59.4 24.36 58.53 24.26C57.69 24.16 57.54 23.55 57.41 22.88C56.68 19.05 54.91 15.77 52.19 12.96C49.34 10.01 47.66 6.45 47.17 2.36C47.09 1.66 46.96 0.97 46.82 0C45.92 1.77 45.48 3.33 45.3 4.97C44.94 8.31 45.63 11.48 46.78 14.6C47.95 17.76 48.48 21.01 47.9 24.39C47.73 25.41 47.11 25.8 46.24 26.03C45.4 26.25 44.99 25.8 44.55 25.16C42.42 22.02 39.63 19.65 36.14 18.15C32.07 16.41 29 13.58 26.81 9.76C26.51 9.23 26.19 8.7 25.88 8.17C25.66 8.7 25.65 9.12 25.66 9.54C25.68 9.91 25.72 10.29 25.76 10.66C26.25 14.8 28.33 18.12 31.1 21.1C33.56 23.74 35.55 26.64 36.38 30.23C36.6 31.19 36.19 31.72 35.53 32.26C34.84 32.82 34.28 32.57 33.64 32.14C30.45 30 26.94 28.86 23.09 28.76C18.38 28.64 14.22 27.01 10.59 24.02C10.26 23.75 9.91 23.52 9.35 23.1C10.01 24.92 10.8 26.3 11.79 27.56C13.84 30.16 16.54 31.9 19.51 33.27C22.73 34.76 25.67 36.63 27.87 39.5C28.49 40.31 28.62 41.04 28.13 41.94C27.62 42.88 26.85 42.7 26.05 42.54C22.28 41.79 18.61 42.09 15 43.42C11.68 44.65 8.26 45.01 4.77 44.33C3.38 44.06 2.02 43.7 0.37 43.31C2.57 45.64 4.99 47.06 7.77 47.92C10.31 48.71 12.94 48.77 15.54 49.01C18.56 49.29 21.42 50.08 24.07 51.61C24.95 52.12 25.14 52.81 25.07 53.72C24.99 54.74 24.24 54.83 23.49 54.97C19.67 55.7 16.32 57.32 13.45 59.97C11.72 61.57 9.72 62.78 7.51 63.65C5.21 64.56 2.78 64.86 0 65.21C1.91 66.12 3.55 66.55 5.28 66.71C8.71 67.03 11.98 66.31 15.2 65.2C18.43 64.09 21.73 63.58 25.15 64.13C26.22 64.3 26.66 64.92 26.94 65.83C27.22 66.76 26.52 67.04 25.93 67.42C22.74 69.47 20.31 72.19 18.71 75.65C16.92 79.53 14.07 82.41 10.34 84.45C9.81 84.74 9.28 85.03 8.5 85.46C8.92 85.57 9.04 85.63 9.17 85.63C9.5 85.64 9.83 85.63 10.15 85.63C14.85 85.44 18.62 83.21 22.04 80.21C24.68 77.9 27.61 76.12 31.08 75.3C32.13 75.05 32.75 75.43 33.38 76.16C34.07 76.96 33.54 77.52 33.12 78.14C31.1 81.11 29.88 84.36 29.78 87.98C29.66 92.56 28.11 96.58 25.15 100.06C24.86 100.4 24.46 100.69 24.35 101.35C26.56 100.64 28.36 99.47 29.99 97.97C32.27 95.86 33.69 93.18 35.1 90.46C36.56 87.64 38.49 85.19 41.14 83.36C41.95 82.8 42.69 82.94 43.5 83.37C44.37 83.84 44.09 84.5 43.95 85.19C43.24 88.76 43.41 92.28 44.76 95.69C46.38 99.76 46.57 103.88 45.3 108.07C45.13 108.64 44.98 109.22 44.71 110.19C46.88 108.31 48.21 106.34 49.12 104.07C50.13 101.55 50.39 98.9 50.56 96.23C50.76 93 51.63 89.97 53.36 87.2C53.92 86.31 54.67 86.12 55.64 86.24C56.57 86.36 56.65 87.05 56.79 87.75C57.53 91.37 59.1 94.56 61.72 97.2C64.84 100.35 66.59 104.14 67.09 108.53C67.15 109.09 67.23 109.65 67.34 110.47C68.3 108.69 68.71 107.08 68.9 105.39C69.28 101.99 68.45 98.79 67.32 95.64C66.21 92.55 65.72 89.4 66.26 86.12C66.42 85.12 66.99 84.68 67.87 84.42C68.79 84.15 69.21 84.7 69.66 85.36C71.79 88.5 74.61 90.81 78.1 92.33C82 94.03 85.03 96.72 87.16 100.42C87.52 101.05 87.89 101.68 88.42 102.59C88.56 99.98 88.13 97.81 87.29 95.72C86.13 92.84 84.09 90.58 82.06 88.3C79.98 85.96 78.46 83.3 77.75 80.21C77.53 79.25 77.95 78.7 78.61 78.18C79.23 77.7 79.77 77.86 80.39 78.28C83.66 80.48 87.27 81.6 91.22 81.71C95.63 81.83 99.55 83.33 103.01 86.04C103.46 86.39 103.92 86.73 104.38 87.07C104.01 85.39 103.24 84.03 102.24 82.79C100.16 80.21 97.43 78.52 94.47 77.14C91.3 75.65 88.43 73.77 86.25 70.94C85.62 70.13 85.52 69.39 85.99 68.49C86.49 67.54 87.26 67.74 88.05 67.9C91.87 68.67 95.58 68.34 99.24 66.99C102.47 65.8 105.8 65.48 109.19 66.12C110.62 66.39 112.03 66.75 113.69 67.12C111.71 65.03 109.55 63.73 107.08 62.85C104.16 61.81 101.11 61.79 98.08 61.47H98.09ZM73.94 50.28C74.8 50.41 75.67 50.54 76.54 50.63C76.57 50.63 76.61 50.65 76.68 50.67C76.5 50.76 76.34 50.75 76.19 50.77C74.41 51.01 72.63 51.2 70.91 51.75C70 52.04 69.16 52.46 68.47 53.15C67.88 53.75 67.5 54.48 67.21 55.26C66.8 56.4 66.59 57.58 66.41 58.76C66.29 59.56 66.17 60.36 66.1 61.17C66.1 61.19 66.09 61.21 66.06 61.27C65.98 61.12 65.98 60.99 65.96 60.87C65.8 59.49 65.61 58.11 65.31 56.75C65.15 56.02 64.93 55.3 64.63 54.62C64.02 53.25 62.96 52.37 61.57 51.87C60.35 51.43 59.08 51.2 57.8 51.02C57.07 50.91 56.35 50.82 55.62 50.72C55.58 50.72 55.53 50.72 55.5 50.66C55.63 50.58 55.78 50.59 55.92 50.58C57.51 50.38 59.1 50.19 60.65 49.76C61.63 49.49 62.57 49.13 63.35 48.45C64.1 47.81 64.56 46.99 64.88 46.08C65.32 44.84 65.54 43.54 65.73 42.24C65.83 41.58 65.9 40.91 65.99 40.25C65.99 40.21 65.99 40.16 66.04 40.13C66.11 40.15 66.09 40.22 66.1 40.27C66.3 41.84 66.48 43.41 66.86 44.95C67.12 46.02 67.48 47.05 68.19 47.92C68.77 48.64 69.53 49.1 70.38 49.43C71.52 49.87 72.71 50.1 73.91 50.28H73.94ZM57.62 77.6C41.45 78.22 33.08 62.31 37.45 49.59C40.62 40.36 45.44 33.35 55.3 30.91C61.65 29.34 67.62 32.1 70.87 37.84C62.59 34.74 54.63 37.35 51.37 44.23C47.57 52.25 49.78 61.04 56.62 65.11C63.73 69.33 69.72 66.93 77.01 56.96C77.04 67.71 68.66 77.17 57.61 77.6H57.62Z" fill="#4A7155" stroke-width="2"/>
</svg>
