<svg width="20" height="20" viewBox="0 0 20 20" fill="none" xmlns="http://www.w3.org/2000/svg">
<path d="M12.1475 15.4167C12.3421 15.4168 12.4997 15.5745 12.4999 15.769C12.4999 15.8112 12.4929 15.8536 12.4771 15.8927C12.096 16.8325 11.1303 17.5 9.9999 17.5C8.86949 17.5 7.90463 16.8325 7.5235 15.8927C7.50763 15.8536 7.4999 15.8113 7.4999 15.769C7.5001 15.5744 7.6584 15.4167 7.85309 15.4167H12.1475Z" fill="#4A7155"/>
<path d="M9.9999 2.5C12.6908 2.5 14.955 4.57568 15.2668 7.32829L15.5541 9.86572C15.6256 10.496 15.8816 11.089 16.2873 11.5666C17.1484 12.5802 16.4493 14.1667 15.1415 14.1667H4.8583C3.55061 14.1666 2.85214 12.5802 3.71328 11.5666C4.11889 11.089 4.37426 10.4959 4.4457 9.86572L4.73298 7.32829C5.04482 4.5757 7.30908 2.50004 9.9999 2.5Z" fill="#4A7155"/>
</svg>
