<svg width="70" height="96" viewBox="0 0 70 96" fill="none" xmlns="http://www.w3.org/2000/svg">
<path d="M32.7139 0.506836C33.3999 0.553664 34.1356 0.836491 34.834 1.19531V1.19629C36.7044 2.16101 38.4388 3.38602 40.2607 4.57031C43.1506 6.45537 46.1375 7.99407 48.6523 10.1123L49.1494 10.5439C53.5434 14.4998 55.5257 19.8847 56.8984 25.5791L57.166 26.7227C57.7188 29.1488 58.4517 31.4123 58.4033 33.8916L58.3721 35.4717L59.3066 34.1973C60.5867 32.4507 60.647 30.3412 60.8213 28.5498L60.8203 28.5488C61.0933 25.8767 61.0785 23.2087 61.0059 20.5625C60.933 17.9056 60.803 15.2848 60.8428 12.6592V12.6572C60.8729 10.1192 60.9683 7.68255 62.1074 5.4707L62.1084 5.46973C62.5089 4.68809 62.9611 4.05656 63.5068 3.66992C64.0297 3.29966 64.6706 3.13045 65.5303 3.3291H65.5322C66.3025 3.50498 66.6994 3.88922 66.9375 4.39062C67.1304 4.79715 67.2266 5.29574 67.2812 5.87012L67.3242 6.46875C67.7851 14.9753 68.4238 23.4244 68.7637 31.9121C69.2144 43.18 69.921 54.3952 68.7656 65.6104C67.7288 75.7419 63.3005 84.1272 55.7031 90.7959C51.7604 94.2553 46.7921 95.1194 41.5918 94.9316C33.8644 94.6447 26.6511 92.52 20.3311 88.0635C16.1712 85.13 13.1048 80.9881 10.1846 76.7578V76.7568L9.03613 75.124C6.53194 71.6068 3.94948 68.2117 1.83301 64.4814L1.35352 63.6143C0.861079 62.6939 0.616446 61.741 0.521484 60.7344L0.520508 60.7305L0.5 60.4023C0.487212 59.6663 0.709771 59.1335 1.05664 58.7939C1.45322 58.4057 2.0986 58.1861 3.00195 58.2979H3.00293C5.47945 58.6008 7.54103 59.7457 9.3291 61.4834L9.68359 61.8389C12.8731 65.1394 16.45 68.0005 20.4453 70.2764C23.2541 71.8791 26.0298 72.3205 28.3545 71.6152C30.6935 70.9055 32.4882 69.0605 33.3604 66.2812V66.2803C34.3182 63.2008 34.3856 59.9776 33.2637 56.8916C31.742 52.697 29.9863 48.5141 26.3291 45.3721H26.3281C22.8971 42.4342 18.3352 41.0047 14.1543 43.042C13.6633 43.2811 13.1812 43.5349 12.707 43.7861C12.2309 44.0384 11.7638 44.2877 11.291 44.5244C10.3459 44.9976 9.39945 45.4098 8.38965 45.667C7.12207 45.9887 5.98642 46.1055 4.88086 45.6318C3.98638 45.2479 3.44527 44.5702 3.28125 43.8672C3.12957 43.2167 3.28822 42.5 3.86328 41.8965L3.98438 41.7773C8.3161 37.7344 12.9424 34.1733 18.5791 32.3271C22.5532 31.0277 25.9165 32.8181 29.3291 35.0498L29.3301 35.0508C32.2606 36.9651 34.6262 39.4765 37.3828 41.8975L37.7832 41.4688L38.1641 41.332C37.5492 39.6258 37.0613 37.8504 36.5625 36.0547C36.0657 34.266 35.5576 32.4581 34.9062 30.7227C33.6 27.2423 31.7024 24.0109 28.0947 21.6816H28.0938C23.6483 18.8159 18.6522 17.037 13.7764 15.2422H13.7754C11.4689 14.3943 9.57675 13.1613 8.40723 11.0645L8.18359 10.6338C7.89849 10.0399 7.74965 9.50613 7.75586 9.00391C7.76199 8.51123 7.91689 8.00985 8.30664 7.47559C8.70026 6.93849 9.14689 6.68272 9.62793 6.57324C10.1285 6.45934 10.6972 6.4975 11.334 6.61328C13.8648 7.07505 16.2641 8.01786 18.6299 9.08887L19.6416 9.55469C22.0323 10.6743 24.4977 11.6246 27.0176 12.333H27.0186C33.7109 14.199 38.3346 18.6851 42.1191 24.2529C42.5976 24.9578 43.1123 25.6386 43.623 26.3105C44.1362 26.9857 44.6455 27.6508 45.126 28.3389C46.0851 29.7124 46.9131 31.1518 47.3818 32.8447L48.3613 32.7598C49.231 23.7253 44.3232 14.8088 36.2393 10.7256C33.831 9.50708 32.0997 7.68479 30.8213 5.37012L30.8203 5.36816L30.6729 5.08887C29.9786 3.68795 29.928 2.27122 30.9199 1.20117L30.9209 1.2002C31.4418 0.634564 32.0521 0.46173 32.7139 0.506836Z" fill="#4A7155" stroke="#4A7155" stroke-width="2"/>
</svg>
