<svg width="152" height="81" viewBox="0 0 152 81" fill="none" xmlns="http://www.w3.org/2000/svg">
<path d="M41.6555 58.9711C50.143 56.4074 58.531 53.5637 66.8505 50.5147C77.2359 46.7065 87.5279 42.6618 97.6022 38.0696C98.1747 37.8083 98.5231 37.6527 98.1622 36.8562C92.2757 23.9196 77.7586 16.5397 63.8139 19.4394C49.3216 22.4511 39.0731 34.977 38.9984 49.7617C38.9424 52.6303 39.4402 55.4118 40.1185 58.187C40.3674 59.2138 40.7532 59.2449 41.6617 58.9711H41.6555Z" fill="#4A7155" stroke-width="2"/>
<path d="M134.576 21.0697C133.841 20.7585 133.057 20.6092 132.261 20.5159C127.986 20.0118 123.767 20.659 119.573 21.3061C113.394 22.2582 107.308 23.6831 101.273 25.2885C98.7649 25.9543 96.2697 26.6513 93.6314 27.3731C94.0545 27.8647 94.3532 28.2131 94.6332 28.5554C95.8092 29.9679 95.9648 29.6256 97.0849 29.2958C101.963 27.8771 106.892 26.6202 111.926 25.8672C113.382 25.6494 114.869 25.4628 116.35 25.7303C118.055 26.0415 118.521 27.2424 117.451 28.5989C117.24 28.8665 116.997 29.1092 116.742 29.3394C114.993 30.8888 113.008 32.0711 110.974 33.1849C100.233 39.0528 88.9209 43.6637 77.5524 48.1252C68.2061 51.7903 58.7479 55.1753 49.1839 58.2244C40.2732 61.0681 31.3501 63.8682 22.0785 65.3429C20.5478 65.5856 19.0046 65.8656 17.4427 65.4487C16.136 65.1003 15.7067 64.1171 16.3787 62.9473C16.7832 62.2379 17.4116 61.7401 18.0401 61.2485C19.938 59.7862 22.0225 58.6039 24.1195 57.459C28.2139 55.2189 32.4453 53.2401 36.7015 51.3298C37.2304 51.0934 37.6597 51.168 37.61 50.5831C37.5602 49.9111 37.3548 48.7163 37.3548 48.063C37.3548 48.063 36.8321 48.287 36.6081 48.3928C28.8051 51.9458 21.0767 55.6669 13.6906 60.0413C9.80149 62.3437 5.95596 64.7269 2.64558 67.8506C1.64997 68.7902 0.716595 69.7796 0.156568 71.0739C-0.173226 71.8455 0.025895 72.3993 0.67926 72.8411C1.12106 73.1398 1.61264 73.314 2.14155 73.4384C5.77551 74.3096 9.41569 73.818 13.0185 73.3576C21.3754 72.2748 29.558 70.2836 37.6784 68.0684C47.8398 65.2869 57.8518 62.0388 67.7643 58.4608C84.5091 52.4125 100.949 45.6549 116.661 37.2233C121.851 34.4356 126.947 31.4986 131.545 27.7838C133.051 26.5642 134.52 25.2761 135.459 23.5338C136.094 22.3639 135.808 21.5924 134.588 21.0759L134.576 21.0697Z" fill="#4A7155" stroke-width="2"/>
<path d="M100.239 47.0425C92.934 50.3964 85.4919 53.4268 78 56.3327C67.3657 60.4583 56.5696 64.1047 45.6615 67.415C44.7717 67.6826 44.7717 67.8942 45.3068 68.5538C52.6058 77.6138 62.0205 81.7082 73.6255 80.5135C80.3334 79.8228 86.1577 77.0537 91.0859 72.474C96.624 67.3217 99.8161 60.9312 100.787 53.4392C101.067 51.2551 101.135 49.0648 100.849 46.806C100.582 46.9056 100.407 46.9554 100.239 47.0363V47.0425Z" fill="#4A7155" stroke-width="2"/>
<path d="M122.746 76.8733C116.742 76.892 111.857 72.057 111.832 66.0896C111.807 60.0849 116.692 55.2127 122.765 55.1878C128.689 55.1629 133.567 60.0351 133.63 66.0399C133.686 71.9264 128.733 76.8546 122.746 76.8733Z" fill="#4A7155" stroke-width="2"/>
<path d="M82.6115 7.29925C82.6364 3.16127 85.8845 -0.0308871 90.0287 0.000225493C94.0111 0.0313381 97.2531 3.3915 97.222 7.44859C97.1909 11.4497 93.8742 14.6294 89.7674 14.6045C85.7912 14.5796 82.5866 11.3066 82.6115 7.29303V7.29925Z" fill="#4A7155" stroke-width="2"/>
<path d="M138.509 40.5773C139.94 40.8636 141.241 41.0689 142.51 41.4049C143.163 41.5792 143.586 41.4112 144.034 40.9818C144.974 40.0671 145.945 39.1773 147.065 38.1257C147.189 39.4573 147.32 40.5649 147.388 41.6725C147.444 42.5997 147.675 43.309 148.639 43.7322C149.703 44.1989 150.693 44.846 151.912 45.5305C150.612 46.1154 149.479 46.6754 148.303 47.1297C147.612 47.3972 147.301 47.839 147.183 48.536C146.972 49.7867 146.729 51.0374 146.461 52.4873C145.422 51.3485 144.514 50.3965 143.655 49.3947C143.232 48.8969 142.802 48.7849 142.168 48.8844C140.905 49.0835 139.641 49.3511 138.223 49.3013C138.932 48.0568 139.567 46.8683 140.276 45.7172C140.55 45.2754 140.575 44.9393 140.338 44.4726C139.716 43.2344 139.156 41.965 138.515 40.5836L138.509 40.5773Z" fill="#4A7155" stroke-width="2"/>
<path d="M110.133 3.82088C112.342 4.94094 114.066 4.5427 115.584 2.61993C115.242 5.00316 115.957 6.66458 118.372 7.51706C115.963 7.89041 114.706 9.13492 114.638 11.6426C113.493 9.59539 112.006 8.51889 109.529 9.39627C111.01 7.64151 111.639 5.9241 110.133 3.8271V3.82088Z" fill="#4A7155" stroke-width="2"/>
<path d="M20.6219 44.1055C19.5454 41.9712 17.9649 41.1996 15.5879 41.7907C17.2182 40.0733 17.492 38.3186 16.1168 36.29C18.2885 37.3665 20.0743 37.1487 21.6175 35.114C21.1508 37.5843 22.0718 39.1275 24.3617 40.0235C21.966 40.3907 20.7028 41.6165 20.6157 44.1117L20.6219 44.1055Z" fill="#4A7155" stroke-width="2"/>
</svg>
