<svg width="169" height="152" viewBox="0 0 169 152" fill="none" xmlns="http://www.w3.org/2000/svg">
<path d="M-61.1542 97.9832C-40.4021 91.7281 -19.8934 84.7899 0.447868 77.3506C25.8403 68.0591 51.0045 58.1907 75.6362 46.9862C77.0358 46.3486 77.8878 45.969 77.0054 44.0257C62.5976 12.462 27.103 -5.54411 -6.97664 1.53079C-42.4104 8.87897 -67.4681 39.4407 -67.6506 75.5136C-67.7876 82.5126 -66.5704 89.299 -64.9121 96.0702C-64.3035 98.5753 -63.3602 98.6512 -61.139 97.9832H-61.1542Z" fill="#C2C2FF"/>
<path d="M166.039 5.50856C164.243 4.74945 162.326 4.38508 160.379 4.15735C149.927 2.92759 139.612 4.50654 129.357 6.08548C114.25 8.40836 99.3703 11.8851 84.6126 15.8021C78.4813 17.4266 72.3804 19.127 65.9296 20.8881C66.9642 22.0875 67.6945 22.9377 68.3791 23.7727C71.2546 27.2191 71.6349 26.3841 74.3735 25.5794C86.3014 22.1179 98.351 19.0511 110.659 17.214C114.219 16.6826 117.855 16.2272 121.476 16.88C125.645 17.6391 126.786 20.5693 124.169 23.879C123.652 24.5318 123.059 25.1239 122.435 25.6857C118.16 29.466 113.306 32.3507 108.331 35.0683C82.0719 49.3851 54.4125 60.6351 26.6163 71.5207C3.76466 80.463 -19.3608 88.7221 -42.745 96.1614C-64.5316 103.1 -86.3487 109.932 -109.018 113.53C-112.76 114.122 -116.534 114.805 -120.352 113.788C-123.547 112.938 -124.597 110.539 -122.954 107.685C-121.965 105.954 -120.428 104.739 -118.892 103.54C-114.251 99.9721 -109.155 97.0875 -104.028 94.294C-94.0166 88.8284 -83.671 84.0004 -73.2645 79.3395C-71.9713 78.7626 -70.9216 78.9448 -71.0433 77.5176C-71.165 75.878 -71.667 72.963 -71.667 71.3689C-71.667 71.3689 -72.945 71.9154 -73.4927 72.1735C-92.5713 80.8425 -111.467 89.9215 -129.526 100.595C-139.035 106.212 -148.438 112.027 -156.532 119.648C-158.966 121.941 -161.248 124.355 -162.617 127.513C-163.424 129.395 -162.937 130.746 -161.339 131.824C-160.259 132.553 -159.057 132.978 -157.764 133.282C-148.879 135.407 -139.979 134.208 -131.17 133.084C-110.737 130.443 -90.7304 125.584 -70.8759 120.18C-46.0312 113.393 -21.5517 105.468 2.68446 96.7383C43.6257 81.9812 83.8215 65.4934 122.237 44.9215C134.926 38.1199 147.386 30.9539 158.629 21.8901C162.311 18.9144 165.902 15.7717 168.199 11.5207C169.751 8.66645 169.051 6.78386 166.069 5.52374L166.039 5.50856Z" fill="#C2C2FF"/>
<path d="M82.0866 68.8638C64.2252 77.047 46.0291 84.4407 27.7113 91.5308C1.7103 101.597 -24.6862 110.493 -51.3566 118.57C-53.5322 119.223 -53.5322 119.739 -52.2238 121.349C-34.3776 143.454 -11.3586 153.444 17.0157 150.529C33.4166 148.844 47.657 142.087 59.7066 130.913C73.2472 118.343 81.052 102.75 83.4254 84.4711C84.1101 79.1421 84.2774 73.798 83.5776 68.2869C82.9234 68.5298 82.4974 68.6512 82.0866 68.8486V68.8638Z" fill="#C2C2FF"/>
</svg>
