<svg width="16" height="16" viewBox="0 0 16 16" fill="none" xmlns="http://www.w3.org/2000/svg">
<path fill-rule="evenodd" clip-rule="evenodd" d="M3.08234 12.7775L5.71768 9.25377C5.54895 9.06712 5.38279 8.87811 5.21866 8.68731L1.87213 8.0953C1.76266 8.07593 1.76177 7.91917 1.87101 7.89856L4.34582 7.43174C4.16381 7.01268 4.07829 6.55801 4.12263 6.06256C4.15504 5.69776 4.30874 5.40979 4.54766 5.20161L3.07074 3.21122C3.00215 3.11877 3.11838 3.00268 3.21074 3.07139L5.52512 4.79309C6.12899 4.69164 6.71749 4.81484 7.26377 5.19551L7.90147 1.89019C7.92095 1.78008 8.07895 1.7801 8.09841 1.89022L8.70064 5.21917C9.24987 4.83872 9.83902 4.73598 10.4716 4.79404L12.7892 3.07117C12.8815 3.0025 12.9977 3.11862 12.9291 3.21104L11.4528 5.19928C11.7393 5.47351 11.8996 5.86516 11.8881 6.30941C11.8938 6.72514 11.8081 7.09561 11.6647 7.43326L14.1296 7.89859C14.2388 7.91921 14.2379 8.07593 14.1285 8.09532L10.8172 8.67161C10.6341 8.86961 10.4541 9.07079 10.2736 9.27179L12.9179 12.778C12.9871 12.8705 12.8704 12.9871 12.7779 12.918L9.29492 10.3132C9.09524 10.51 8.89016 10.7015 8.67285 10.8815L8.09845 14.1128C8.07889 14.2228 7.92109 14.2228 7.90153 14.1128L7.32258 10.8564C7.12281 10.6796 6.92769 10.4983 6.73658 10.313H6.7025L3.22234 12.9175C3.12987 12.9867 3.01317 12.87 3.08234 12.7775ZM6.38435 6.48208C6.80998 6.34337 7.22885 6.37683 7.60988 6.61581C7.99806 6.85964 8.00575 6.87326 8.39784 6.62766C8.71937 6.42714 9.06699 6.38191 9.44055 6.42368C9.87719 6.47391 10.1576 6.77997 10.1464 7.16594C10.1537 7.65373 9.88236 8.01645 9.55904 8.33223C9.15581 8.72488 8.77842 9.14235 8.30643 9.4782C8.07596 9.64197 7.9404 9.64186 7.71736 9.46973C7.20631 9.07202 6.7505 8.62411 6.31749 8.15957C6.02029 7.84045 5.84395 7.47257 5.88669 7.04322C5.91468 6.76109 6.10584 6.57233 6.38435 6.48208Z" fill="white"/>
</svg>
