<svg width="14" height="17" viewBox="0 0 14 17" fill="none" xmlns="http://www.w3.org/2000/svg">
<path d="M11.1664 16.1028C11.1661 16.6921 10.571 17.0952 10.0238 16.8763L7.30992 15.7903C7.11131 15.7109 6.8894 15.7109 6.69078 15.7903L3.97594 16.8763C3.42876 17.0949 2.83364 16.692 2.83336 16.1028V13.7386C2.99155 13.7774 3.15473 13.8043 3.32164 13.8177L4.10191 13.8792C4.21906 13.8885 4.33082 13.9348 4.42027 14.011L5.01598 14.5188C6.15914 15.493 7.84058 15.493 8.98375 14.5188L9.58043 14.011C9.66982 13.935 9.78082 13.8885 9.89781 13.8792L10.6781 13.8177C10.8449 13.8044 11.0083 13.7774 11.1664 13.7386V16.1028ZM5.82652 1.09891C6.50249 0.522856 7.49723 0.522856 8.1732 1.09891L8.76891 1.60673C9.05851 1.85352 9.41892 2.00218 9.7982 2.03251L10.5795 2.09501C11.4646 2.16579 12.167 2.86903 12.2377 3.75419L12.3002 4.53544C12.3305 4.91459 12.4802 5.27423 12.7269 5.56376L13.2347 6.16044C13.8106 6.83635 13.8106 7.83022 13.2347 8.50614L12.7269 9.10282C12.4801 9.39247 12.3304 9.75278 12.3002 10.1321L12.2377 10.9124C12.167 11.7976 11.4646 12.5008 10.5795 12.5716L9.7982 12.6341C9.41892 12.6644 9.05851 12.8131 8.76891 13.0599L8.1732 13.5677C7.49723 14.1437 6.50249 14.1437 5.82652 13.5677L5.23082 13.0599C4.94117 12.8131 4.58086 12.6643 4.20152 12.6341L3.42125 12.5716C2.53594 12.5009 1.83272 11.7977 1.76207 10.9124L1.69957 10.1321C1.66931 9.7529 1.52045 9.39242 1.27379 9.10282L0.765 8.50614C0.189348 7.83029 0.189324 6.83628 0.765 6.16044L1.27379 5.56376C1.52032 5.27428 1.66922 4.91445 1.69957 4.53544L1.76207 3.75419C1.83276 2.86891 2.53596 2.16565 3.42125 2.09501L4.20152 2.03251C4.58087 2.00223 4.94116 1.85354 5.23082 1.60673L5.82652 1.09891Z" fill="#4A7155"/>
</svg>
