<svg width="24" height="24" viewBox="0 0 24 24" fill="none" xmlns="http://www.w3.org/2000/svg">
<path d="M2.39999 5.22421L5.30639 10.4192V13.588L2.40339 18.7728L2.39999 5.22421Z" fill="#5B57A2"/>
<path d="M13.5595 8.52869L16.2829 6.85949L21.8565 6.85429L13.5595 11.9371V8.52869Z" fill="#D90751"/>
<path d="M13.544 5.19339L13.5594 12.0714L10.6462 10.2814V0L13.5442 5.19339H13.544Z" fill="#FAB718"/>
<path d="M21.8564 6.85419L16.2826 6.85939L13.544 5.19339L10.6462 0L21.8562 6.85419H21.8564Z" fill="#ED6F26"/>
<path d="M13.5594 18.8016V15.4646L10.6462 13.7086L10.6478 24.0002L13.5594 18.8016Z" fill="#63B22F"/>
<path d="M16.276 17.1476L5.30619 10.4192L2.39999 5.22421L21.8446 17.1408L16.2758 17.1476H16.276Z" fill="#1487C9"/>
<path d="M10.6479 23.9998L13.5591 18.8012L16.2757 17.1472L21.8443 17.1404L10.6479 23.9998Z" fill="#017F36"/>
<path d="M2.40352 18.7727L10.6701 13.7087L7.89091 12.0035L5.30652 13.5879L2.40352 18.7727Z" fill="#984995"/>
</svg>
