<svg width="16" height="17" viewBox="0 0 16 17" fill="none" xmlns="http://www.w3.org/2000/svg">
<path d="M6.32208 0.907232C7.35622 0.447623 8.53693 0.447718 9.5711 0.907232L13.0496 2.45313C14.5051 3.10009 15.469 4.55284 15.3426 6.14063C14.9729 10.7784 13.5683 13.0265 10.0027 15.5195C8.77103 16.3807 7.12458 16.3786 5.89141 15.5195C2.33207 13.0396 0.880849 10.8177 0.533013 6.11915C0.416229 4.54157 1.37852 3.10446 2.82403 2.46192L6.32208 0.907232ZM10.9412 6.28809C10.6295 6.01537 10.1554 6.04681 9.88262 6.3584L7.59649 8.97169C7.50854 9.0722 7.35622 9.08603 7.25176 9.00294L5.91583 7.9336C5.59238 7.67484 5.1199 7.72734 4.86114 8.05079C4.60266 8.37412 4.65523 8.84574 4.97833 9.1045L6.31426 10.1738C7.04554 10.7586 8.10879 10.6647 8.7254 9.95997L11.0115 7.34668C11.2842 7.0351 11.2525 6.56091 10.9412 6.28809Z" fill="#4A7155"/>
</svg>
