<svg width="16" height="16" viewBox="0 0 16 16" fill="none" xmlns="http://www.w3.org/2000/svg">
<path d="M4.27319 3.52734C4.68078 3.58834 5.07154 3.78655 5.36987 4.12207L6.37378 5.25098C6.55722 5.45737 6.53817 5.77358 6.33179 5.95703C6.12539 6.14036 5.80915 6.12139 5.62573 5.91504L4.6228 4.78711C4.58489 4.74446 4.54349 4.70575 4.49976 4.67285V12C4.49976 12.2761 4.2759 12.5 3.99976 12.5C3.72365 12.5 3.49976 12.2761 3.49976 12V4.67285C3.45603 4.70575 3.41462 4.74446 3.37671 4.78711L2.37378 5.91504C2.19033 6.12142 1.87412 6.14046 1.66772 5.95703C1.46137 5.7736 1.44238 5.45737 1.62573 5.25098L2.62964 4.12207C2.92794 3.78654 3.31876 3.58838 3.72632 3.52734L3.99976 3.5L4.27319 3.52734ZM13.9998 11.5C14.2759 11.5 14.4998 11.7239 14.4998 12C14.4998 12.2761 14.2759 12.5 13.9998 12.5H7.99976C7.72365 12.5 7.49976 12.2761 7.49976 12C7.49976 11.7239 7.72365 11.5 7.99976 11.5H13.9998ZM11.9998 7.5C12.2759 7.5 12.4998 7.72386 12.4998 8C12.4998 8.27614 12.2759 8.5 11.9998 8.5H7.99976C7.72365 8.49995 7.49976 8.27611 7.49976 8C7.49976 7.72389 7.72365 7.50005 7.99976 7.5H11.9998ZM9.99976 3.5C10.2759 3.5 10.4998 3.72386 10.4998 4C10.4998 4.27614 10.2759 4.5 9.99976 4.5H7.99976C7.72365 4.49995 7.49976 4.27611 7.49976 4C7.49976 3.72389 7.72365 3.50005 7.99976 3.5H9.99976Z" fill="#4A7155"/>
</svg>
