<svg width="14" height="14" viewBox="0 0 14 14" fill="none" xmlns="http://www.w3.org/2000/svg">
<path d="M6.65123 1.87335C6.79388 1.58431 7.20604 1.58431 7.34869 1.87335L8.62385 4.45711C8.6805 4.57189 8.78999 4.65144 8.91666 4.66985L11.768 5.08417C12.087 5.13052 12.2143 5.52251 11.9835 5.7475L9.92028 7.75867C9.82862 7.84801 9.7868 7.97674 9.80844 8.10289L10.2955 10.9427C10.35 11.2604 10.0165 11.5027 9.73125 11.3527L7.18093 10.0119C7.06763 9.95233 6.93229 9.95233 6.81899 10.0119L4.26867 11.3527C3.98337 11.5027 3.64993 11.2604 3.70442 10.9427L4.19148 8.10289C4.21312 7.97674 4.1713 7.84801 4.07964 7.75867L2.01639 5.7475C1.78558 5.52251 1.91294 5.13052 2.23192 5.08417L5.08326 4.66985C5.20992 4.65144 5.31942 4.57189 5.37607 4.45711L6.65123 1.87335Z" fill="#FFC709"/>
</svg>
