<svg width="115" height="169" viewBox="0 0 115 169" fill="none" xmlns="http://www.w3.org/2000/svg">
<path d="M57.0088 2.21008C57.149 2.92397 57.2017 3.5973 57.2197 4.28333V4.2843C57.5397 15.4424 57.8292 26.615 58.1992 37.7765C58.7392 54.0861 59.2799 70.4083 59.96 86.7208C60.1355 90.9165 60.6971 95.122 61.1338 99.2853L61.3115 101.067C61.3501 101.491 61.4093 101.878 61.5137 102.195C61.6155 102.505 61.7864 102.828 62.1035 103.013C62.4398 103.209 62.8141 103.18 63.1562 103.056C63.4926 102.934 63.8619 102.701 64.2676 102.384C66.5975 100.562 69.0153 98.8603 71.4316 97.1183C73.8431 95.3797 76.2474 93.6041 78.5244 91.6495H78.5254L78.5283 91.6466C78.6371 91.5514 78.772 91.4151 78.8604 91.3312C78.966 91.2308 79.0498 91.1594 79.1221 91.1154C79.1639 91.0899 79.188 91.0807 79.1982 91.0782C79.1785 91.076 79.2015 91.0663 79.2695 91.1368C79.2973 91.1656 79.3093 91.1863 79.3154 91.1974C79.3107 91.2099 79.2997 91.2345 79.2734 91.2726C79.2214 91.3479 79.1441 91.4319 79.0352 91.5411C78.9407 91.6359 78.8066 91.7641 78.7031 91.8917C74.9167 96.4896 71.5472 101.459 67.9902 106.168C67.6895 106.566 67.4595 106.919 67.3301 107.23C67.2024 107.536 67.13 107.91 67.3262 108.255C67.5095 108.577 67.8487 108.728 68.1465 108.815C68.4607 108.906 68.8585 108.963 69.3096 109.008H69.3105C81.5588 110.198 93.796 111.487 106.038 112.737C108.103 112.948 110.179 113.118 112.246 113.298C112.659 113.334 112.926 113.324 113.245 113.38C113.346 113.398 113.441 113.424 113.53 113.456C113.43 113.517 113.324 113.553 113.209 113.575C113.067 113.603 112.909 113.613 112.725 113.616C112.555 113.62 112.334 113.617 112.135 113.631C102.909 114.194 93.7156 115.118 84.5361 116.068L75.3584 117.013C73.8674 117.163 72.3719 117.307 70.8799 117.437L69.3887 117.562C68.8667 117.604 68.4287 117.65 68.0977 117.728C67.7984 117.798 67.4141 117.93 67.2295 118.283C67.0371 118.652 67.1708 119.041 67.3037 119.318C67.449 119.619 67.6918 119.981 67.9932 120.401V120.402C71.1313 124.758 74.2632 129.139 77.6602 133.332L78.3438 134.168C78.6726 134.566 78.9415 134.822 79.1406 135.18C79.1928 135.274 79.2365 135.373 79.2715 135.481C77.1838 133.875 75.1652 132.302 73.1299 130.771L73.1289 130.77L71.0137 129.198C70.3076 128.676 69.6004 128.155 68.8926 127.636L64.6445 124.526C64.1515 124.163 63.733 123.872 63.3838 123.693C63.0595 123.526 62.6508 123.376 62.2559 123.531C61.8486 123.692 61.6683 124.09 61.5664 124.436C61.4577 124.805 61.3871 125.299 61.3223 125.896V125.898C60.672 132.02 60.0813 138.142 59.4814 144.271C59.1014 148.081 58.7266 151.891 58.3516 155.701C57.9766 159.511 57.6016 163.32 57.2217 167.129C57.1939 167.401 57.1854 167.556 57.0986 167.737C57.0871 167.761 57.0705 167.785 57.0547 167.812C55.5602 152.979 54.1027 138.41 52.5869 123.359L52.502 122.515L51.8037 122.999C45.8773 127.114 40.3688 131.185 34.9277 135.476C34.939 135.428 34.954 135.386 34.9707 135.349C35.0188 135.241 35.0822 135.153 35.1641 135.055L35.4697 134.704C39.3355 130.167 42.6054 125.083 46.167 120.413V120.412C46.4364 120.057 46.6495 119.726 46.7725 119.419C46.8946 119.114 46.957 118.76 46.8057 118.422C46.6548 118.085 46.3496 117.894 46.0391 117.778C45.7257 117.662 45.3306 117.593 44.875 117.552C30.5051 116.234 16.1192 114.501 1.68066 113.601C1.37971 113.582 1.21957 113.592 1.03613 113.542C0.993806 113.531 0.952195 113.514 0.90918 113.492C1.02382 113.425 1.15472 113.385 1.30566 113.359C1.46485 113.33 1.63864 113.32 1.83887 113.312C2.02838 113.304 2.25442 113.299 2.46973 113.276C16.6303 111.826 30.7895 110.367 44.958 108.987H44.959C45.4207 108.941 45.8156 108.874 46.124 108.764C46.4255 108.656 46.7381 108.474 46.8848 108.133C47.0316 107.792 46.9479 107.442 46.8223 107.157C46.6939 106.867 46.4796 106.548 46.2158 106.205C42.893 101.88 39.7963 97.2502 36.3232 92.963L35.624 92.1105C35.5061 91.9679 35.3537 91.8247 35.2354 91.7111C35.1043 91.5853 34.9991 91.4821 34.9229 91.3839C34.8862 91.3367 34.8634 91.2988 34.8496 91.2706C34.8421 91.2551 34.8387 91.2445 34.8369 91.2384C34.8412 91.2307 34.8494 91.2169 34.8672 91.1974L34.8682 91.1984C34.9206 91.1412 34.9592 91.1146 34.9814 91.1027C35.0017 91.0918 35.0121 91.0903 35.0166 91.09C35.028 91.0892 35.0755 91.091 35.1777 91.1554C35.2805 91.2202 35.3933 91.3189 35.5283 91.4484C35.6482 91.5633 35.8055 91.7238 35.9473 91.8429L35.9492 91.8439C40.4243 95.5764 45.2188 98.8945 49.8721 102.332C50.3013 102.649 50.6726 102.905 50.9873 103.061C51.28 103.206 51.6705 103.34 52.0469 103.165C52.4175 102.993 52.5764 102.613 52.665 102.293C52.7608 101.948 52.822 101.489 52.877 100.94V100.939C53.6467 93.0315 54.4188 85.1145 54.6494 77.1447C54.9795 65.6907 55.2393 54.2462 55.6592 42.799C56.149 29.6427 56.7086 16.4749 56.9287 3.28821V3.28625C56.9334 2.9198 56.9394 2.57367 57.0088 2.21008Z" fill="#4A7155" stroke="#4A7155" stroke-width="2"/>
</svg>
