<svg width="100" height="100" viewBox="0 0 100 100" fill="none" xmlns="http://www.w3.org/2000/svg">
<path d="M49.8428 2.65552C50.6856 9.3437 51.546 16.068 53.1758 22.6604C54.4212 27.6821 56.102 32.6098 59.5029 36.7766H59.5039C62.3135 40.2116 65.9348 42.4349 69.96 43.9963C75.3428 46.0868 80.9773 47.152 86.6152 48.0032V48.0042C89.8935 48.506 93.1833 49.007 96.4922 49.3831C88.422 50.4682 80.2316 51.3774 72.3564 53.9241C68.0448 55.3176 64.0115 57.2803 60.7441 60.5989C57.9065 63.4776 56.0848 66.9597 54.75 70.6809V70.6819C52.8327 76.0502 51.8467 81.6212 50.9863 87.1838C50.5433 90.0482 50.1106 92.928 49.792 95.8264C49.0591 89.7794 48.2212 83.7383 46.8984 77.7717C46.1812 74.5348 45.2503 71.3584 43.9443 68.2893L43.6777 67.677C40.7548 61.1055 35.6997 56.9194 29.0713 54.51C24.0217 52.6738 18.7948 51.6359 13.5498 50.8284L11.3018 50.4954C8.55715 50.0998 5.80255 49.7405 3.05859 49.3762C10.318 48.4703 17.6138 47.554 24.7324 45.6125C29.3512 44.3547 33.8146 42.6296 37.5869 39.3889C40.9492 36.4973 43.0931 32.8665 44.6074 28.8625L44.9023 28.0569C46.9902 22.1764 48.0055 16.0736 48.8857 9.98169C49.2389 7.5408 49.5383 5.09633 49.8428 2.65552Z" fill="#4A7155" stroke="#4A7155" stroke-linejoin="round" stroke-width="2"/>
</svg>
