<svg width="30" height="30" viewBox="0 0 30 30" fill="none" xmlns="http://www.w3.org/2000/svg">
<path d="M15 1.89453C15.2116 3.43942 15.6279 5.95232 16.3877 8.81055C17.0846 11.4314 19.5898 12.7472 22.1943 13.541C23.5148 13.9434 24.9118 14.2265 26.2051 14.4717C27.1934 14.659 28.1108 14.8233 28.9062 15C28.1108 15.1767 27.1934 15.341 26.2051 15.5283C24.9118 15.7735 23.5148 16.0566 22.1943 16.459C19.5898 17.2528 17.0846 18.5686 16.3877 21.1895C15.628 24.0471 15.2116 26.5595 15 28.1045C14.7884 26.5595 14.372 24.0471 13.6123 21.1895C12.9154 18.5686 10.4102 17.2528 7.80566 16.459C6.48519 16.0566 5.0882 15.7735 3.79492 15.5283C2.80623 15.3409 1.88843 15.1768 1.09277 15C1.88843 14.8232 2.80623 14.6591 3.79492 14.4717C5.0882 14.2265 6.48519 13.9434 7.80566 13.541C10.4102 12.7472 12.9154 11.4314 13.6123 8.81055C14.3721 5.95232 14.7884 3.43942 15 1.89453Z" fill="#FCFCFD" stroke="#2B5240" stroke-linejoin="round"/>
</svg>
