<svg width="274" height="117" viewBox="0 0 274 117" fill="none" xmlns="http://www.w3.org/2000/svg">
<path d="M113.268 115.221C87.7269 113.252 62.5457 109.568 38.585 100.045H38.584C30.7537 96.9392 23.2515 93.2902 16.4424 88.4397C18.2547 89.6792 20.1266 90.837 22.0166 91.9504C33.5186 98.7311 45.9457 103.247 58.8164 106.534C71.203 109.699 83.7481 112.054 96.4268 113.599L98.9639 113.897C111.49 115.308 124.057 115.92 135.488 115.69C152.142 115.873 168.256 114.935 184.04 112.689C172.323 114.371 160.534 115.429 148.655 115.79C136.826 116.15 125.024 116.119 113.268 115.221ZM186.461 112.333C185.721 112.445 184.981 112.554 184.24 112.66C184.981 112.554 185.721 112.445 186.461 112.333ZM233.843 100.474C222.86 104.765 211.466 107.789 199.851 110.037L198.428 110.309C194.627 111.022 190.819 111.666 187.004 112.249C196.809 110.747 206.491 108.736 216.1 106.163C222.119 104.551 228.056 102.7 233.843 100.474ZM256.571 88.842C252.532 91.6876 248.176 94.0789 243.643 96.2395C247.973 94.1422 252.19 91.7713 256.258 89.0559C256.363 88.9857 256.467 88.9129 256.571 88.842ZM272.417 59.135C274.109 66.1993 272.135 73.4739 266.911 79.554C266.869 79.6029 266.825 79.6507 266.783 79.6995C266.862 79.604 266.942 79.5096 267.02 79.4133C271.158 74.28 273.152 68.6852 272.952 63.1467C272.904 61.8006 272.724 60.4611 272.417 59.135ZM7.4707 47.7668C6.29742 49.1462 5.20748 50.6241 4.21582 52.2161C1.61616 56.3929 0.444451 60.5392 0.574219 64.6624C0.703961 68.782 2.13112 72.8401 4.66699 76.8469C4.99452 77.3646 5.33681 77.8676 5.68848 78.3586C5.2377 77.7503 4.8035 77.1277 4.38965 76.4885C-1.3302 67.6541 -0.697326 57.6512 5.99707 49.4866C6.4784 48.8993 6.96959 48.3261 7.4707 47.7668ZM158.79 0.809814C158.794 0.809814 158.797 0.810683 158.8 0.810791C158.801 0.81373 158.804 0.816706 158.806 0.820557C158.823 0.859334 158.84 0.918504 158.857 1.01001C158.866 1.05436 158.873 1.10149 158.881 1.15356L158.907 1.31665C158.946 1.5421 158.978 1.76967 159.012 2.01001C159.029 2.12896 159.046 2.25061 159.065 2.37329L159.129 2.74438C159.832 6.44639 160.948 9.0821 162.904 10.8762C164.739 12.5586 167.245 13.4388 170.64 13.8508L171.33 13.927C186.222 15.4252 200.973 17.7617 215.398 21.7122C228.659 25.3367 241.575 29.8817 253.274 37.2239C258.539 40.5256 263.464 44.1907 267.256 49.0042C266.801 48.4514 266.322 47.9043 265.813 47.3665C260.606 41.8567 254.438 37.5859 247.764 34.0676C235.844 27.7812 223.14 23.7299 210.141 20.5051C199.455 17.855 188.643 16.1128 177.768 14.718L175.592 14.4436C173.808 14.2206 171.966 14.1359 170.132 14.426L170.129 14.427C166.787 14.9739 164.373 15.8956 162.633 17.5881C160.893 19.2802 159.893 21.6771 159.229 25.0227V25.0247C159.102 25.6826 158.999 26.4289 158.888 27.052V27.053C158.872 27.1408 158.86 27.211 158.844 27.2747C158.833 27.3164 158.819 27.3455 158.811 27.3674C158.8 27.3463 158.786 27.3188 158.773 27.2805C158.753 27.2189 158.736 27.1515 158.715 27.0686L158.714 27.0637L158.642 26.7424C158.579 26.4179 158.54 26.0811 158.484 25.7063V25.7024L158.375 25.052C157.806 21.8568 156.837 19.5077 155.151 17.8079C153.466 16.1083 151.122 15.1182 147.933 14.5129L147.283 14.3967C147.048 14.357 146.782 14.3512 146.553 14.3469C146.308 14.3424 146.094 14.3402 145.905 14.3186C145.71 14.2962 145.613 14.2595 145.572 14.2327C145.568 14.2296 145.561 14.2389 145.56 14.1877V14.1868C145.555 14.0066 145.603 13.9716 145.608 13.967C145.635 13.9428 145.71 13.9015 145.892 13.8772C146.071 13.8533 146.277 13.8539 146.526 13.8547C146.754 13.8555 147.033 13.8565 147.279 13.8118L147.278 13.8108C150.865 13.1683 153.441 12.1305 155.24 10.2864C157.04 8.44128 157.994 5.86098 158.495 2.29224C158.554 1.89033 158.561 1.63587 158.627 1.32251C158.656 1.19786 158.669 1.1272 158.694 1.02563C158.717 0.935927 158.738 0.874597 158.759 0.833252C158.764 0.823249 158.767 0.815197 158.771 0.809814H158.79ZM38.041 28.343C32.7065 30.5111 27.4881 33.022 22.4189 35.967C20.1156 37.3028 17.8666 38.7183 15.7246 40.2688C21.0684 36.2779 27.0248 33.1423 33.2539 30.3665C34.8396 29.6602 36.4357 28.9871 38.041 28.343ZM78.5381 15.1829C79.0287 15.067 79.5571 15.175 80.042 15.554C80.571 15.9674 80.8483 16.4023 80.9307 16.8313C81.0122 17.2563 80.9175 17.7553 80.5488 18.3303C80.2121 18.8559 79.7488 19.1389 79.249 19.2004C78.7438 19.2626 78.1423 19.105 77.5361 18.635V18.634L77.2666 18.4387C76.9951 18.2557 76.7153 18.1119 76.4102 18.0227C75.9977 17.9022 75.572 17.8914 75.0996 17.9778L75.0967 17.9788C71.2611 18.7058 67.4457 19.4993 63.6602 20.385C67.1875 19.5433 70.7386 18.7755 74.3066 18.0598L74.3076 18.0608C74.8469 17.9539 75.3735 17.8223 75.8525 17.5637C76.3441 17.2984 76.7627 16.9124 77.1162 16.3313C77.5256 15.6621 78.0418 15.3003 78.5381 15.1829Z" fill="#4A7155" stroke="#4A7155"/>
</svg>
