<svg width="24" height="37" viewBox="0 0 24 37" fill="none" xmlns="http://www.w3.org/2000/svg">
<path d="M19.2174 4.93479C18.5082 6.39677 17.8296 7.87441 17.2255 9.37754L17.225 9.37837C16.476 11.2451 15.8313 13.1716 15.7079 15.1197L15.6904 15.5107C15.6458 17.2461 16.0984 18.68 16.8146 19.9349C17.7588 21.591 19.0003 22.9054 20.2664 24.1209L20.2659 24.1217C20.6197 24.4632 20.9782 24.8057 21.3402 25.1465C19.4996 24.4243 17.5917 23.7328 15.5054 23.4455C14.038 23.2431 12.4997 23.2966 10.8567 23.9815C9.6173 24.4974 8.48972 25.3071 7.43691 26.2515L6.99007 26.6643C5.28985 28.2813 3.78793 30.119 2.32834 31.963C2.31045 31.9856 2.29241 32.0081 2.27452 32.0307C2.86707 30.8028 3.4375 29.5648 3.96727 28.3119C4.4703 27.1224 4.91427 25.9181 5.25704 24.6924L5.39756 24.1653C6.07802 21.4803 5.80011 19.2086 4.75357 17.2717L4.5347 16.8885C3.4924 15.1697 2.15453 13.8017 0.79997 12.5269C0.567086 12.3074 0.330494 12.0904 0.0948652 11.8733C1.69344 12.504 3.33998 13.0885 5.0976 13.439C6.60178 13.7397 8.1994 13.8483 9.96395 13.2751L9.96478 13.2756C11.4259 12.8 12.7362 11.915 13.9552 10.8278L14.4722 10.3505C16.2053 8.69767 17.7353 6.8252 19.2174 4.93479Z" fill="white" stroke="#2B5240"/>
</svg>
