<svg width="243" height="134" viewBox="0 0 243 134" fill="none" xmlns="http://www.w3.org/2000/svg">
<path d="M78.3213 4.95959C100.715 0.293338 123.322 0.37982 145.95 2.14807H145.951C159.935 3.2345 173.692 6.2556 186.993 10.942H186.995C187.439 11.0969 187.854 11.2214 188.223 11.277C188.585 11.3317 188.969 11.3305 189.307 11.1627C189.668 10.9833 189.885 10.6612 189.999 10.2692C190.081 9.98625 190.115 9.64973 190.112 9.26331L190.099 8.85999C190 7.20506 190.042 5.55754 190.061 3.60022C192.253 5.87331 194.674 7.35372 197.322 8.11682C200.068 8.90795 203.027 8.9183 206.187 8.28381C205.878 8.96396 205.414 9.50307 204.893 10.0367C204.252 10.6931 203.464 11.3912 202.972 12.319L202.877 12.5074C202.461 13.3945 202.124 14.097 201.925 14.6569C201.727 15.2112 201.621 15.7344 201.782 16.2281C201.946 16.7276 202.343 17.0764 202.839 17.3873C203.337 17.6997 204.033 18.0312 204.914 18.4508C214.825 23.1976 223.698 29.3905 231.006 37.6119C238.59 46.1418 242.119 55.8035 241.704 65.361C241.289 74.9197 236.927 84.4247 228.638 92.6344C218.234 102.939 205.712 109.727 192.083 114.862C175.547 121.092 158.483 124.619 140.907 125.976L139.205 126.101C124.861 127.099 110.562 126.979 96.2969 125.343C90.5998 124.686 84.9291 124.05 79.3701 122.769L78.2598 122.505C77.1748 122.235 76.1516 122.142 75.1904 122.383C74.3385 122.598 73.5756 123.064 72.8818 123.824L72.5889 124.168C70.7842 126.421 69.3417 128.836 68.6221 131.728C67.555 128.838 65.9438 126.549 63.8398 124.773C61.5685 122.856 58.748 121.556 55.4785 120.725C55.9212 120.526 56.3847 120.375 56.8721 120.199C57.7229 119.892 58.6251 119.508 59.3037 118.574L59.6865 118.047L59.0791 117.813C54.9154 116.208 50.8041 114.725 46.7617 113.048C34.5991 107.996 23.2964 101.619 14.0986 92.1266L13.2148 91.1989C7.14537 84.6965 2.68928 77.463 1.62012 68.442L1.52734 67.5641C0.521245 56.6943 3.97679 47.4312 10.7373 39.1364C18.574 29.534 28.6729 22.9234 39.7559 17.6012V17.6002C52.0407 11.6919 64.9605 7.74353 78.3213 4.95959ZM141.771 2.22131C120.871 0.48809 100.054 1.23943 79.4121 5.32971C63.3976 8.49656 47.955 13.3511 33.5869 21.3434C23.6163 26.888 14.7041 33.7425 8.22949 43.2858L7.61035 44.2174C1.92986 52.9589 0.0990894 62.4029 2.90527 72.5602L3.19141 73.5455C6.05823 82.9765 11.9304 90.2123 19.2363 96.3912C30.4339 105.868 43.5298 111.753 57.1182 116.69C58.5212 117.201 59.7617 117.394 60.8994 117.113C62.0482 116.829 63.0082 116.081 63.8916 114.887V114.886C64.9471 113.455 65.5417 111.867 66.1533 110.358V110.356C66.4671 109.572 66.7773 108.778 67.1572 107.812C68.3457 110.989 70.0418 113.475 72.2402 115.363C74.4169 117.232 77.0618 118.495 80.1406 119.276C79.8765 119.355 79.5926 119.424 79.2822 119.513C78.9058 119.621 78.498 119.763 78.123 120.021C77.7394 120.286 77.4114 120.656 77.165 121.19L77.6133 121.503L77.5371 121.87C89.0249 124.276 100.404 125.648 111.934 126.009H111.935C140.869 126.901 169.215 123.817 196.222 112.561C209.116 107.188 221.012 100.228 230.551 89.6715L231.467 88.6383C243.161 75.1821 244.424 57.9628 234.453 43.2399C226.592 31.6351 215.342 24.2977 203.236 18.1246L203.235 18.1237C202.853 17.93 202.509 17.799 202.201 17.7633C201.87 17.725 201.552 17.796 201.303 18.0358C201.083 18.2476 200.977 18.5371 200.911 18.7926C200.843 19.0561 200.798 19.3697 200.754 19.691C200.604 20.7706 200.872 21.8245 201.062 22.7819C201.197 23.4684 201.299 24.14 201.259 24.8424C198.894 22.4861 196.343 20.8414 193.562 19.9596C190.866 19.1053 187.983 18.9737 184.885 19.5709C185.249 19.1175 185.612 18.7338 185.976 18.3073L185.977 18.3082C186.552 17.6465 187.252 16.9142 187.725 16.067C188.142 15.3314 188.475 14.7371 188.675 14.2584C188.87 13.7915 188.993 13.3099 188.822 12.8541C188.651 12.3972 188.24 12.1169 187.782 11.8961C187.548 11.7831 187.269 11.6711 186.948 11.5533L185.859 11.1764C171.538 6.34226 156.797 3.46434 141.771 2.22131Z" fill="#4A7155" stroke="#4A7155"/>
</svg>
