<svg width="24" height="24" viewBox="0 0 24 24" fill="none" xmlns="http://www.w3.org/2000/svg">
<path d="M12 20.25C12.4142 20.25 12.75 20.5858 12.75 21V22C12.75 22.4142 12.4142 22.75 12 22.75C11.5858 22.75 11.25 22.4142 11.25 22V21C11.25 20.5858 11.5858 20.25 12 20.25ZM5.10547 17.834C5.39836 17.5411 5.87312 17.5411 6.16602 17.834C6.45884 18.1269 6.45889 18.6017 6.16602 18.8945L5.45898 19.6016C5.16609 19.8942 4.69126 19.8943 4.39844 19.6016C4.10562 19.3087 4.10578 18.8339 4.39844 18.541L5.10547 17.834ZM17.834 17.834C18.1269 17.5411 18.6016 17.5411 18.8945 17.834L19.6016 18.541C19.8942 18.8339 19.8944 19.3088 19.6016 19.6016C19.3087 19.8944 18.8339 19.8942 18.541 19.6016L17.834 18.8945C17.5411 18.6016 17.5411 18.1269 17.834 17.834ZM12 6C15.3137 6 18 8.68629 18 12C18 15.3137 15.3137 18 12 18C8.68629 18 6 15.3137 6 12C6 8.68629 8.68629 6 12 6ZM3 11.25C3.41421 11.25 3.75 11.5858 3.75 12C3.75 12.4142 3.41421 12.75 3 12.75H2C1.58579 12.75 1.25 12.4142 1.25 12C1.25 11.5858 1.58579 11.25 2 11.25H3ZM22 11.25C22.4142 11.25 22.75 11.5858 22.75 12C22.75 12.4142 22.4142 12.75 22 12.75H21C20.5858 12.75 20.25 12.4142 20.25 12C20.25 11.5858 20.5858 11.25 21 11.25H22ZM4.39844 4.39844C4.69127 4.1056 5.16608 4.10572 5.45898 4.39844L6.16602 5.10547C6.45891 5.39836 6.45891 5.87312 6.16602 6.16602C5.87312 6.4589 5.39836 6.45891 5.10547 6.16602L4.39844 5.45898C4.10572 5.16608 4.10561 4.69127 4.39844 4.39844ZM18.541 4.39844C18.8339 4.10572 19.3087 4.1056 19.6016 4.39844C19.8943 4.69128 19.8943 5.1661 19.6016 5.45898L18.8945 6.16602C18.6017 6.45889 18.1269 6.45884 17.834 6.16602C17.5411 5.87312 17.5411 5.39836 17.834 5.10547L18.541 4.39844ZM12 1.25C12.4142 1.25 12.75 1.58579 12.75 2V3C12.75 3.41421 12.4142 3.75 12 3.75C11.5858 3.75 11.25 3.41421 11.25 3V2C11.25 1.58579 11.5858 1.25 12 1.25Z" fill="#4A7155"/>
</svg>
