<svg width="122" height="118" viewBox="0 0 122 118" fill="none" xmlns="http://www.w3.org/2000/svg">
<path d="M58.415 68.8751C59.2761 68.502 60.1185 68.2927 61.0664 68.4717L61.1582 68.4883L61.249 68.4717C62.1556 68.3078 62.9255 68.5258 63.6963 68.9083C64.0869 69.1021 64.4681 69.3328 64.8701 69.5772C65.2657 69.8177 65.6825 70.0721 66.1172 70.2881L66.1289 70.2706L66.123 70.2852C66.1161 70.2821 66.1286 70.287 66.1553 70.3116C66.1799 70.3344 66.2065 70.3651 66.2305 70.3995C66.2514 70.4295 66.2648 70.4569 66.2734 70.4766C66.2663 70.502 66.2515 70.5318 66.2178 70.5567C66.1695 70.5922 66.1357 70.5865 66.1377 70.587L66.1318 70.585C62.629 69.6991 59.1456 70.0139 55.7246 70.6075H55.7227C55.6647 70.6177 55.6018 70.6058 55.5566 70.5792C55.5206 70.5579 55.492 70.5272 55.4805 70.4669L55.4795 70.4581L55.4775 70.4503L55.4746 70.3887C55.4773 70.3768 55.4843 70.3613 55.499 70.3409C55.532 70.2953 55.6012 70.2372 55.71 70.1924H55.7109C56.1939 69.9929 56.6587 69.7524 57.1025 69.5215C57.5528 69.2874 57.9803 69.0634 58.415 68.8751Z" fill="#4A7155" stroke="#4A7155"/>
<path d="M57.1846 61.1516C57.2448 61.1358 57.3295 61.1335 57.4307 61.1526L57.54 61.1799C59.6903 61.8071 62.0138 62.405 64.3994 61.174L64.4033 61.1721C64.448 61.1487 64.502 61.1455 64.5605 61.1721C64.6043 61.1921 64.6573 61.2334 64.6992 61.3069L64.7373 61.3908C64.7986 61.5857 64.7457 61.771 64.4854 62.009C63.482 62.9156 62.2555 63.2061 60.6465 63.2092C59.4235 63.1197 58.1879 62.8957 57.25 61.9231L57.2441 61.9162L57.1582 61.8235C57.082 61.7326 57.0339 61.6492 57.0098 61.5764C56.9822 61.4929 56.9802 61.4091 57.0273 61.3029L57.0283 61.301C57.0555 61.2395 57.0836 61.2085 57.1035 61.1916C57.1237 61.1746 57.1489 61.161 57.1846 61.1516Z" fill="#4A7155" stroke="#4A7155"/>
<mask id="path-3-inside-1_709_5011" fill="white">
<path d="M104.5 65.5C101.34 65.17 98.35 64.26 95.64 62.54C94.72 61.96 94.85 61.14 94.93 60.29C95.01 59.42 95.69 59.35 96.34 59.24C100.58 58.48 104.26 56.64 107.44 53.72C110.23 51.16 113.55 49.62 117.26 48.91C118.56 48.66 119.87 48.51 121.48 48.27C121 48.03 120.8 47.91 120.59 47.82C115.68 45.85 110.81 46.43 105.97 48.1C102.34 49.35 98.65 50 94.79 49.4C93.65 49.22 93.19 48.54 92.91 47.57C92.62 46.56 93.41 46.29 94.03 45.89C97.37 43.72 99.97 40.88 101.63 37.24C103.48 33.19 106.4 30.16 110.25 27.97C110.99 27.55 111.73 27.13 112.72 26.58C111.33 26.4 110.3 26.51 109.26 26.65C104.77 27.27 101.19 29.65 97.86 32.54C95.11 34.93 92.03 36.71 88.44 37.53C87.42 37.76 86.73 37.45 86.09 36.68C85.4 35.84 85.88 35.25 86.34 34.57C88.51 31.36 89.84 27.87 89.94 23.95C90.06 19.41 91.53 15.35 94.4 11.82C94.9 11.2 95.39 10.57 96.09 9.69C95.55 9.86 95.36 9.91 95.18 9.98C90.22 11.9 87.13 15.7 84.87 20.32C83.2 23.73 81.02 26.71 77.86 28.92C76.91 29.58 76.14 29.4 75.25 28.91C74.35 28.41 74.63 27.7 74.78 26.96C75.57 23 75.27 19.14 73.77 15.35C72.22 11.42 72.06 7.38 73.18 3.31C73.42 2.44 73.67 1.58 74 0.41C72.61 1.56 71.69 2.66 70.88 3.86C68.58 7.26 68 11.13 67.76 15.11C67.54 18.65 66.64 21.98 64.69 25C64.09 25.93 63.28 25.97 62.34 25.86C61.45 25.76 61.28 25.1 61.14 24.38C60.36 20.3 58.48 16.81 55.58 13.81C52.54 10.67 50.76 6.88 50.23 2.52C50.14 1.78 50.01 1.04 49.85 0C48.89 1.88 48.42 3.55 48.23 5.3C47.84 8.86 48.58 12.24 49.81 15.56C51.06 18.93 51.62 22.39 51.01 25.99C50.83 27.07 50.17 27.49 49.24 27.74C48.35 27.98 47.91 27.5 47.44 26.81C45.17 23.47 42.2 20.94 38.48 19.34C34.14 17.48 30.87 14.47 28.54 10.4C28.22 9.83 27.88 9.27 27.55 8.7C27.31 9.27 27.3 9.72 27.32 10.16C27.34 10.56 27.38 10.96 27.43 11.35C27.95 15.76 30.17 19.3 33.12 22.47C35.74 25.28 37.86 28.37 38.75 32.2C38.99 33.22 38.55 33.79 37.85 34.36C37.11 34.96 36.52 34.69 35.84 34.23C32.44 31.95 28.7 30.73 24.6 30.63C19.58 30.5 15.15 28.77 11.28 25.58C10.93 25.29 10.56 25.04 9.95001 24.6C10.66 26.54 11.49 28.01 12.55 29.35C14.74 32.12 17.61 33.97 20.77 35.43C24.2 37.02 27.33 39.01 29.68 42.07C30.34 42.93 30.48 43.71 29.96 44.67C29.42 45.67 28.59 45.48 27.75 45.31C23.74 44.51 19.82 44.83 15.98 46.25C12.45 47.56 8.80002 47.94 5.08002 47.22C3.60002 46.93 2.15001 46.55 0.390015 46.14C2.74001 48.63 5.32 50.13 8.28 51.05C10.98 51.89 13.78 51.95 16.56 52.21C19.78 52.51 22.82 53.35 25.64 54.98C26.58 55.52 26.78 56.26 26.7 57.23C26.61 58.31 25.82 58.41 25.02 58.57C20.95 59.34 17.38 61.08 14.32 63.9C12.47 65.6 10.34 66.9 8 67.83C5.55 68.8 2.96 69.12 0 69.49C2.03 70.46 3.79 70.92 5.63 71.09C9.29 71.43 12.77 70.66 16.2 69.48C19.64 68.3 23.15 67.76 26.8 68.34C27.94 68.52 28.41 69.18 28.71 70.15C29.01 71.14 28.27 71.44 27.64 71.85C24.24 74.03 21.65 76.93 19.95 80.62C18.04 84.76 15.01 87.82 11.03 90C10.46 90.31 9.90001 90.62 9.07001 91.07C9.51001 91.19 9.65 91.25 9.78 91.25C10.13 91.26 10.48 91.25 10.83 91.25C15.84 91.05 19.85 88.67 23.5 85.48C26.31 83.02 29.43 81.12 33.13 80.25C34.25 79.98 34.91 80.38 35.58 81.17C36.31 82.03 35.75 82.62 35.3 83.28C33.15 86.44 31.84 89.91 31.74 93.76C31.61 98.64 29.96 102.92 26.81 106.63C26.5 107 26.08 107.3 25.95 108.01C28.31 107.26 30.23 106.01 31.96 104.41C34.39 102.16 35.91 99.3 37.4 96.41C38.96 93.4 41.01 90.8 43.83 88.85C44.7 88.25 45.48 88.4 46.34 88.86C47.27 89.36 46.97 90.07 46.82 90.8C46.07 94.61 46.24 98.36 47.68 101.98C49.41 106.32 49.61 110.7 48.26 115.17C48.08 115.78 47.92 116.39 47.63 117.43C49.94 115.43 51.36 113.33 52.33 110.91C53.4 108.23 53.68 105.4 53.86 102.56C54.08 99.12 55 95.89 56.84 92.94C57.43 91.99 58.24 91.79 59.27 91.92C60.26 92.05 60.34 92.78 60.49 93.53C61.27 97.39 62.95 100.79 65.74 103.6C69.06 106.96 70.92 111 71.46 115.67C71.53 116.27 71.61 116.86 71.73 117.74C72.76 115.85 73.19 114.13 73.39 112.33C73.79 108.71 72.91 105.3 71.7 101.94C70.52 98.65 69.99 95.29 70.57 91.79C70.75 90.73 71.35 90.26 72.28 89.98C73.27 89.69 73.71 90.28 74.19 90.98C76.46 94.33 79.47 96.79 83.18 98.41C87.33 100.22 90.57 103.09 92.84 107.03C93.23 107.7 93.62 108.37 94.19 109.34C94.34 106.55 93.89 104.25 92.99 102.02C91.76 98.95 89.58 96.54 87.42 94.11C85.2 91.61 83.58 88.78 82.82 85.49C82.58 84.47 83.03 83.88 83.74 83.33C84.4 82.81 84.98 82.99 85.63 83.43C89.11 85.78 92.96 86.97 97.17 87.09C101.86 87.22 106.04 88.81 109.73 91.7C110.21 92.08 110.7 92.44 111.19 92.8C110.8 91.01 109.97 89.56 108.91 88.24C106.69 85.49 103.79 83.69 100.64 82.22C97.26 80.64 94.2 78.63 91.88 75.62C91.21 74.75 91.1 73.96 91.6 73.01C92.13 72 92.96 72.21 93.8 72.38C97.87 73.2 101.83 72.84 105.72 71.41C109.16 70.14 112.71 69.8 116.33 70.48C117.85 70.77 119.36 71.15 121.12 71.55C119.01 69.33 116.71 67.93 114.08 67C110.97 65.89 107.71 65.87 104.5 65.53V65.5ZM43.02 69.88C42.97 71.91 41.26 72.89 38.49 72.67C35.54 72.44 33.5 70.24 33.75 67.6C34.04 64.66 36.36 62.39 38.88 62.6C42.93 62.94 43.12 65.28 43.01 69.88H43.02ZM74.54 68.6C74.84 70.97 74.05 72.78 72.38 74.42C70.37 76.39 68.57 78.57 66.02 79.94C60.84 82.71 56.25 81.36 51.94 77.97C50.28 76.67 48.83 75.17 47.52 73.51C46.58 72.32 46 71.07 46.03 69.55C46.08 66.31 45.8 63.19 43.48 60.61C42.92 59.99 42.88 59.15 43.34 58.37C43.45 58.18 43.61 58.01 43.66 57.8C44.3 55.06 45.62 54.13 48.49 55.33C50.14 56.02 52.06 55.31 53.74 54.55C54.46 54.22 55.34 53.8 54.98 52.81C54.63 51.84 53.63 51.87 52.96 52.3C50.07 54.15 47.2 51.87 44.27 52.33C43.03 52.52 42.88 50.93 43.35 49.79C44.07 48.04 46.28 47.14 48.76 47.61C49.97 47.84 51.14 48.21 52.35 48.47C52.9 48.59 53.58 48.73 53.8 47.96C53.96 47.39 53.52 47.01 53.09 46.73C51.45 45.68 49.62 45.27 47.7 45.5C46.47 45.65 46.21 45.33 46.42 44.1C47.16 39.76 47.12 39.8 51.45 39.25C54.04 38.92 56.59 38.37 58.72 36.67C59.42 36.11 60.22 35.73 61.1 36.37C63.91 38.44 67.22 38.82 70.53 39.24C72.64 39.51 74.73 42.97 73.94 44.93C73.65 45.65 73 45.43 72.44 45.42C70.9 45.39 69.39 45.57 67.98 46.18C67.2 46.52 66.23 47.01 66.66 48.08C67.06 49.08 68.05 48.67 68.75 48.39C70.77 47.58 72.81 47.39 74.92 47.86C76.43 48.2 77.12 49.23 77.18 50.66C77.23 51.89 76.85 52.87 75.26 52.43C74.55 52.23 73.81 52.15 73.12 52.43C71.27 53.22 69.49 53.13 67.67 52.32C66.87 51.96 65.8 51.72 65.42 52.77C65.02 53.85 66.08 54.22 66.86 54.58C68.12 55.16 69.41 55.62 70.54 55.46C71.13 55.43 71.45 55.49 71.71 55.39C74.56 54.26 75.99 55.55 76.98 58.16C77.39 59.24 77.54 59.95 76.8 60.89C75.04 63.15 74.21 65.76 74.57 68.61L74.54 68.6ZM86.19 68.16C84.72 70.72 81.67 71.84 79.45 70.61C75.9 68.64 76.68 66.42 78.68 62.27C79.56 60.44 81.52 60.25 83.95 61.58C86.54 63 87.51 65.84 86.18 68.15L86.19 68.16Z"/>
</mask>
<path d="M104.5 65.5C101.34 65.17 98.35 64.26 95.64 62.54C94.72 61.96 94.85 61.14 94.93 60.29C95.01 59.42 95.69 59.35 96.34 59.24C100.58 58.48 104.26 56.64 107.44 53.72C110.23 51.16 113.55 49.62 117.26 48.91C118.56 48.66 119.87 48.51 121.48 48.27C121 48.03 120.8 47.91 120.59 47.82C115.68 45.85 110.81 46.43 105.97 48.1C102.34 49.35 98.65 50 94.79 49.4C93.65 49.22 93.19 48.54 92.91 47.57C92.62 46.56 93.41 46.29 94.03 45.89C97.37 43.72 99.97 40.88 101.63 37.24C103.48 33.19 106.4 30.16 110.25 27.97C110.99 27.55 111.73 27.13 112.72 26.58C111.33 26.4 110.3 26.51 109.26 26.65C104.77 27.27 101.19 29.65 97.86 32.54C95.11 34.93 92.03 36.71 88.44 37.53C87.42 37.76 86.73 37.45 86.09 36.68C85.4 35.84 85.88 35.25 86.34 34.57C88.51 31.36 89.84 27.87 89.94 23.95C90.06 19.41 91.53 15.35 94.4 11.82C94.9 11.2 95.39 10.57 96.09 9.69C95.55 9.86 95.36 9.91 95.18 9.98C90.22 11.9 87.13 15.7 84.87 20.32C83.2 23.73 81.02 26.71 77.86 28.92C76.91 29.58 76.14 29.4 75.25 28.91C74.35 28.41 74.63 27.7 74.78 26.96C75.57 23 75.27 19.14 73.77 15.35C72.22 11.42 72.06 7.38 73.18 3.31C73.42 2.44 73.67 1.58 74 0.41C72.61 1.56 71.69 2.66 70.88 3.86C68.58 7.26 68 11.13 67.76 15.11C67.54 18.65 66.64 21.98 64.69 25C64.09 25.93 63.28 25.97 62.34 25.86C61.45 25.76 61.28 25.1 61.14 24.38C60.36 20.3 58.48 16.81 55.58 13.81C52.54 10.67 50.76 6.88 50.23 2.52C50.14 1.78 50.01 1.04 49.85 0C48.89 1.88 48.42 3.55 48.23 5.3C47.84 8.86 48.58 12.24 49.81 15.56C51.06 18.93 51.62 22.39 51.01 25.99C50.83 27.07 50.17 27.49 49.24 27.74C48.35 27.98 47.91 27.5 47.44 26.81C45.17 23.47 42.2 20.94 38.48 19.34C34.14 17.48 30.87 14.47 28.54 10.4C28.22 9.83 27.88 9.27 27.55 8.7C27.31 9.27 27.3 9.72 27.32 10.16C27.34 10.56 27.38 10.96 27.43 11.35C27.95 15.76 30.17 19.3 33.12 22.47C35.74 25.28 37.86 28.37 38.75 32.2C38.99 33.22 38.55 33.79 37.85 34.36C37.11 34.96 36.52 34.69 35.84 34.23C32.44 31.95 28.7 30.73 24.6 30.63C19.58 30.5 15.15 28.77 11.28 25.58C10.93 25.29 10.56 25.04 9.95001 24.6C10.66 26.54 11.49 28.01 12.55 29.35C14.74 32.12 17.61 33.97 20.77 35.43C24.2 37.02 27.33 39.01 29.68 42.07C30.34 42.93 30.48 43.71 29.96 44.67C29.42 45.67 28.59 45.48 27.75 45.31C23.74 44.51 19.82 44.83 15.98 46.25C12.45 47.56 8.80002 47.94 5.08002 47.22C3.60002 46.93 2.15001 46.55 0.390015 46.14C2.74001 48.63 5.32 50.13 8.28 51.05C10.98 51.89 13.78 51.95 16.56 52.21C19.78 52.51 22.82 53.35 25.64 54.98C26.58 55.52 26.78 56.26 26.7 57.23C26.61 58.31 25.82 58.41 25.02 58.57C20.95 59.34 17.38 61.08 14.32 63.9C12.47 65.6 10.34 66.9 8 67.83C5.55 68.8 2.96 69.12 0 69.49C2.03 70.46 3.79 70.92 5.63 71.09C9.29 71.43 12.77 70.66 16.2 69.48C19.64 68.3 23.15 67.76 26.8 68.34C27.94 68.52 28.41 69.18 28.71 70.15C29.01 71.14 28.27 71.44 27.64 71.85C24.24 74.03 21.65 76.93 19.95 80.62C18.04 84.76 15.01 87.82 11.03 90C10.46 90.31 9.90001 90.62 9.07001 91.07C9.51001 91.19 9.65 91.25 9.78 91.25C10.13 91.26 10.48 91.25 10.83 91.25C15.84 91.05 19.85 88.67 23.5 85.48C26.31 83.02 29.43 81.12 33.13 80.25C34.25 79.98 34.91 80.38 35.58 81.17C36.31 82.03 35.75 82.62 35.3 83.28C33.15 86.44 31.84 89.91 31.74 93.76C31.61 98.64 29.96 102.92 26.81 106.63C26.5 107 26.08 107.3 25.95 108.01C28.31 107.26 30.23 106.01 31.96 104.41C34.39 102.16 35.91 99.3 37.4 96.41C38.96 93.4 41.01 90.8 43.83 88.85C44.7 88.25 45.48 88.4 46.34 88.86C47.27 89.36 46.97 90.07 46.82 90.8C46.07 94.61 46.24 98.36 47.68 101.98C49.41 106.32 49.61 110.7 48.26 115.17C48.08 115.78 47.92 116.39 47.63 117.43C49.94 115.43 51.36 113.33 52.33 110.91C53.4 108.23 53.68 105.4 53.86 102.56C54.08 99.12 55 95.89 56.84 92.94C57.43 91.99 58.24 91.79 59.27 91.92C60.26 92.05 60.34 92.78 60.49 93.53C61.27 97.39 62.95 100.79 65.74 103.6C69.06 106.96 70.92 111 71.46 115.67C71.53 116.27 71.61 116.86 71.73 117.74C72.76 115.85 73.19 114.13 73.39 112.33C73.79 108.71 72.91 105.3 71.7 101.94C70.52 98.65 69.99 95.29 70.57 91.79C70.75 90.73 71.35 90.26 72.28 89.98C73.27 89.69 73.71 90.28 74.19 90.98C76.46 94.33 79.47 96.79 83.18 98.41C87.33 100.22 90.57 103.09 92.84 107.03C93.23 107.7 93.62 108.37 94.19 109.34C94.34 106.55 93.89 104.25 92.99 102.02C91.76 98.95 89.58 96.54 87.42 94.11C85.2 91.61 83.58 88.78 82.82 85.49C82.58 84.47 83.03 83.88 83.74 83.33C84.4 82.81 84.98 82.99 85.63 83.43C89.11 85.78 92.96 86.97 97.17 87.09C101.86 87.22 106.04 88.81 109.73 91.7C110.21 92.08 110.7 92.44 111.19 92.8C110.8 91.01 109.97 89.56 108.91 88.24C106.69 85.49 103.79 83.69 100.64 82.22C97.26 80.64 94.2 78.63 91.88 75.62C91.21 74.75 91.1 73.96 91.6 73.01C92.13 72 92.96 72.21 93.8 72.38C97.87 73.2 101.83 72.84 105.72 71.41C109.16 70.14 112.71 69.8 116.33 70.48C117.85 70.77 119.36 71.15 121.12 71.55C119.01 69.33 116.71 67.93 114.08 67C110.97 65.89 107.71 65.87 104.5 65.53V65.5ZM43.02 69.88C42.97 71.91 41.26 72.89 38.49 72.67C35.54 72.44 33.5 70.24 33.75 67.6C34.04 64.66 36.36 62.39 38.88 62.6C42.93 62.94 43.12 65.28 43.01 69.88H43.02ZM74.54 68.6C74.84 70.97 74.05 72.78 72.38 74.42C70.37 76.39 68.57 78.57 66.02 79.94C60.84 82.71 56.25 81.36 51.94 77.97C50.28 76.67 48.83 75.17 47.52 73.51C46.58 72.32 46 71.07 46.03 69.55C46.08 66.31 45.8 63.19 43.48 60.61C42.92 59.99 42.88 59.15 43.34 58.37C43.45 58.18 43.61 58.01 43.66 57.8C44.3 55.06 45.62 54.13 48.49 55.33C50.14 56.02 52.06 55.31 53.74 54.55C54.46 54.22 55.34 53.8 54.98 52.81C54.63 51.84 53.63 51.87 52.96 52.3C50.07 54.15 47.2 51.87 44.27 52.33C43.03 52.52 42.88 50.93 43.35 49.79C44.07 48.04 46.28 47.14 48.76 47.61C49.97 47.84 51.14 48.21 52.35 48.47C52.9 48.59 53.58 48.73 53.8 47.96C53.96 47.39 53.52 47.01 53.09 46.73C51.45 45.68 49.62 45.27 47.7 45.5C46.47 45.65 46.21 45.33 46.42 44.1C47.16 39.76 47.12 39.8 51.45 39.25C54.04 38.92 56.59 38.37 58.72 36.67C59.42 36.11 60.22 35.73 61.1 36.37C63.91 38.44 67.22 38.82 70.53 39.24C72.64 39.51 74.73 42.97 73.94 44.93C73.65 45.65 73 45.43 72.44 45.42C70.9 45.39 69.39 45.57 67.98 46.18C67.2 46.52 66.23 47.01 66.66 48.08C67.06 49.08 68.05 48.67 68.75 48.39C70.77 47.58 72.81 47.39 74.92 47.86C76.43 48.2 77.12 49.23 77.18 50.66C77.23 51.89 76.85 52.87 75.26 52.43C74.55 52.23 73.81 52.15 73.12 52.43C71.27 53.22 69.49 53.13 67.67 52.32C66.87 51.96 65.8 51.72 65.42 52.77C65.02 53.85 66.08 54.22 66.86 54.58C68.12 55.16 69.41 55.62 70.54 55.46C71.13 55.43 71.45 55.49 71.71 55.39C74.56 54.26 75.99 55.55 76.98 58.16C77.39 59.24 77.54 59.95 76.8 60.89C75.04 63.15 74.21 65.76 74.57 68.61L74.54 68.6ZM86.19 68.16C84.72 70.72 81.67 71.84 79.45 70.61C75.9 68.64 76.68 66.42 78.68 62.27C79.56 60.44 81.52 60.25 83.95 61.58C86.54 63 87.51 65.84 86.18 68.15L86.19 68.16Z" fill="#4A7155" stroke="#4A7155" stroke-width="2" mask="url(#path-3-inside-1_709_5011)"/>
</svg>
