<svg width="347" height="165" viewBox="0 0 347 165" fill="none" xmlns="http://www.w3.org/2000/svg">
<path d="M153.167 145.325C188.398 155.816 222.848 161.805 258.124 162.532C277.297 162.93 296.334 161.539 314.796 155.798C320.815 153.929 326.519 151.377 331.719 147.797C345.691 138.175 349.533 123.388 341.714 108.405C337.207 99.7669 331.044 92.289 323.955 85.5554C311.278 73.5057 296.793 63.9279 281.615 55.2539C268.318 47.652 254.445 41.2816 240.347 35.3187C238.205 34.415 235.983 33.6619 233.644 33.3872C224.935 32.3417 220.76 34.539 216.685 42.2739C216.271 43.0536 215.92 43.8687 215.524 44.6572C215.326 45.056 215.092 45.5167 214.552 45.3926C214.013 45.2597 214.031 44.7281 214.049 44.3028C214.076 43.6915 214.175 43.0713 214.256 42.4599C215.434 33.4138 212.987 29.0104 204.638 25.0588C203.72 24.6246 201.912 24.4917 202.2 23.4285C202.587 21.9932 204.179 22.9944 205.214 23.1007C214.606 24.0842 219.069 21.6122 222.902 13.2128C223.081 12.8141 223.234 12.3889 223.45 12.0079C223.702 11.556 223.972 10.9358 224.602 11.1219C225.25 11.3079 225.097 11.9636 225.034 12.4863C224.962 13.0977 224.854 13.709 224.791 14.3292C223.864 23.9069 226.599 28.3547 235.668 31.9519C253.914 39.1906 271.692 47.4216 288.471 57.5487C303.883 66.8429 318.556 77.1737 330.684 90.579C337.297 97.8797 343.136 105.73 345.817 115.352C349.578 128.828 344.189 141.338 332.259 149.011C320.824 156.365 308.102 159.705 294.904 161.699C274.742 164.756 254.481 164.543 234.247 162.611C212.357 160.512 190.729 156.879 169.397 151.457C154.345 147.629 139.455 143.341 124.925 137.972C93.4273 126.321 62.9638 112.632 36.1621 92.1295C25.4828 83.9605 15.6672 74.941 8.05579 63.8127C5.17678 59.6042 2.93656 55.0944 1.45207 50.2391C-2.60553 36.9313 1.96489 24.4563 13.6069 16.5797C26.1845 8.04741 40.4626 4.52996 55.2535 2.52759C74.03 -0.0152547 92.8425 0.472049 111.646 2.04914C113.058 2.16432 114.174 2.12002 115.326 1.08339C117.053 -0.467119 119.113 -0.307637 120.265 1.26946C121.417 2.85541 121.318 4.44136 119.779 5.76151C118.268 7.05509 116.252 6.77156 114.912 4.95525C114.273 4.08696 113.634 3.62624 112.546 3.51992C88.1281 1.2163 63.7825 0.968214 39.7788 6.8513C29.3694 9.40301 19.4099 13.0356 11.1687 20.3098C1.73097 28.656 -0.49126 38.7919 2.91856 50.3986C5.79757 60.1978 12.1944 67.9061 19.104 75.1359C31.0608 87.6375 45.024 97.6848 60.0128 106.385C75.4065 115.325 91.358 123.184 107.849 129.953C123.099 136.217 138.7 141.489 153.167 145.317V145.325Z" fill="#D9D9FF"/>
<path d="M36.865 24.9525C34.9576 22.9767 33.2032 21.4971 31.5928 20.5048V19.0251H47.8502V20.5048C47.0494 21.0009 46.3927 21.568 45.8888 22.2059C45.385 22.8527 45.0881 23.7653 44.9891 24.9525L61.5524 101.459L78.1157 25.8385C77.108 23.0742 73.3923 21.2933 66.9776 20.5048V19.0251H84.4405L60.6527 124.301H58.9973L36.865 24.9525Z" fill="#D9D9FF"/>
<path d="M129.767 94.4865C125.853 105.455 122.093 113.296 118.476 117.983C114.859 122.679 111.098 125.027 107.185 125.027C103.271 125.027 99.8523 123.37 96.6494 120.057C93.4375 116.743 90.8554 111.95 88.894 105.677C86.9327 99.4039 85.9611 91.9614 85.9611 83.3583C85.9611 72.0883 87.6435 63.3699 91.0083 57.1856C94.3732 51.0101 99.1145 47.918 105.232 47.918C108.642 47.918 111.782 49.3799 114.643 52.2948C117.504 55.2098 119.762 59.2146 121.418 64.3002C123.073 69.3948 123.955 75.0475 124.054 81.2762H91.5301C91.926 88.887 93.0056 95.4346 94.769 100.919C96.5234 106.403 98.7366 110.559 101.391 113.376C104.045 116.194 106.888 117.602 109.902 117.602C113.114 117.602 116.101 115.804 118.863 112.189C121.625 108.583 124.756 102.576 128.273 94.1764L129.776 94.4688L129.767 94.4865ZM91.3772 75.6589V77.5904H116.065C115.768 70.2808 114.508 64.2471 112.304 59.4981C110.091 54.7491 107.284 52.3834 103.874 52.3834C95.5428 52.3834 91.3772 60.1449 91.3772 75.6589Z" fill="#D9D9FF"/>
<path d="M177.944 117.912C178.646 118.905 179.348 119.614 180.05 120.065C180.751 120.508 181.804 120.934 183.207 121.324V122.803H167.4V121.324C169.208 120.34 170.459 119.197 171.161 117.912V65.8683C171.161 61.9167 170.783 59.1701 170.036 57.6373C169.28 56.1045 167.904 55.3426 165.897 55.3426C161.579 55.3426 154.804 59.6929 145.573 68.3935V117.912C146.275 119.197 147.526 120.34 149.334 121.324V122.803H133.527V121.324C134.93 120.934 135.983 120.508 136.685 120.065C137.386 119.622 138.088 118.905 138.79 117.912V58.3107L132.312 63.0508L131.259 61.8636L144.053 48.6709H145.555V66.019C150.369 61.075 155.065 56.8222 159.636 53.2693C164.206 49.7076 167.787 47.9355 170.396 47.9355C173.005 47.9355 174.912 48.6001 176.118 49.9379C177.323 51.2758 177.926 53.5706 177.926 56.8311V117.921L177.944 117.912Z" fill="#D9D9FF"/>
<path d="M235.301 94.4865C231.388 105.455 227.627 113.296 224.01 117.983C220.393 122.679 216.633 125.027 212.719 125.027C208.805 125.027 205.396 123.37 202.184 120.057C198.972 116.743 196.39 111.95 194.428 105.677C192.467 99.4039 191.495 91.9614 191.495 83.3583C191.495 72.0883 193.178 63.3699 196.543 57.1856C199.907 51.0101 204.649 47.918 210.767 47.918C214.177 47.918 217.316 49.3799 220.177 52.2948C223.038 55.2098 225.297 59.2146 226.952 64.3002C228.608 69.3948 229.489 75.0475 229.588 81.2762H197.064C197.469 88.887 198.549 95.4346 200.303 100.919C202.058 106.403 204.271 110.559 206.925 113.376C209.579 116.194 212.422 117.602 215.436 117.602C218.648 117.602 221.635 115.804 224.397 112.189C227.159 108.583 230.29 102.576 233.808 94.1764L235.31 94.4688L235.301 94.4865ZM196.911 75.6589V77.5904H221.599C221.302 70.2808 220.042 64.2471 217.838 59.4981C215.625 54.7491 212.818 52.3834 209.408 52.3834C201.077 52.3834 196.911 60.1449 196.911 75.6589Z" fill="#D9D9FF"/>
<path d="M239.069 121.324C240.472 120.934 241.525 120.508 242.227 120.065C242.929 119.622 243.63 118.905 244.332 117.912V58.3107L237.854 63.0508L236.802 61.8636L249.595 48.6709H251.098V66.019C255.11 59.9941 258.421 55.4666 261.03 52.4542C263.639 49.4418 265.997 47.9355 268.111 47.9355C269.919 47.9355 271.521 48.3343 272.933 49.1228L270.522 65.133H269.02C268.615 61.8724 267.967 59.5954 267.058 58.3107C266.158 57.026 264.899 56.3792 263.297 56.3792C261.993 56.3792 260.365 57.3981 258.403 59.4182C256.442 61.4472 254.013 64.433 251.098 68.3846V117.904C251.799 118.896 252.501 119.605 253.203 120.057C253.905 120.5 254.957 120.925 256.361 121.315V122.794H239.051V121.315L239.069 121.324Z" fill="#D9D9FF"/>
<path d="M325.188 108.725L322.327 112.428C318.917 116.973 316.128 120.216 313.969 122.139C311.81 124.07 310.028 125.027 308.625 125.027C306.816 125.027 305.485 124.061 304.639 122.139C303.784 120.207 303.362 117.221 303.362 113.172V107.537C298.944 112.579 295.435 116.335 292.826 118.807C290.217 121.279 288.103 122.936 286.501 123.778C284.891 124.62 283.235 125.036 281.535 125.036C279.43 125.036 277.594 124.168 276.038 122.44C274.481 120.712 273.708 118.311 273.708 115.246C273.708 110.107 275.588 105.136 279.358 100.343C283.119 95.5497 288.67 90.1362 295.993 84.1113L303.371 78.0333V63.6534C303.371 59.498 303.146 56.6805 302.696 55.2009C302.246 53.7212 301.166 52.977 299.457 52.977C296.947 52.977 293.681 55.3515 289.668 60.0916C285.656 64.8406 281.94 71.1136 278.53 78.9193H277.028L281.697 59.3474C282.903 58.6563 285.161 57.2741 288.472 55.192C292.385 52.7201 295.498 50.8949 297.81 49.7076C300.123 48.5204 302.228 47.9268 304.135 47.9268C306.645 47.9268 308.274 48.5204 309.03 49.7076C309.785 50.8949 310.154 53.2162 310.154 56.6805V107.83C310.154 110.497 310.379 112.428 310.829 113.615C311.279 114.803 312.16 115.396 313.465 115.396C314.77 115.396 316.2 114.776 317.757 113.544C319.313 112.313 321.445 110.355 324.153 107.688L325.206 108.725H325.188ZM303.362 105.021V80.2572L295.984 86.6364C285.647 95.6294 280.473 103.79 280.473 111.099C280.473 114.953 282.48 116.885 286.492 116.885C290.505 116.885 295.93 112.933 303.353 105.021H303.362Z" fill="#D9D9FF"/>
</svg>
