<svg width="18" height="16" viewBox="0 0 18 16" fill="none" xmlns="http://www.w3.org/2000/svg">
<path d="M14 0.5C15.8408 0.5 17.3328 1.99221 17.333 3.83301V5.08301H14C12.3892 5.08301 11.083 6.38917 11.083 8C11.083 9.61083 12.3892 10.917 14 10.917H17.333V12.167C17.3328 14.0078 15.8408 15.5 14 15.5H4C2.15916 15.5 0.667168 14.0078 0.666992 12.167V3.83301C0.667168 1.99221 2.15916 0.5 4 0.5H14ZM17.333 9.66699H14C13.0795 9.66699 12.333 8.92048 12.333 8C12.333 7.07953 13.0795 6.33301 14 6.33301H17.333V9.66699Z" fill="#4A7155"/>
</svg>
