<svg width="61" height="133" viewBox="0 0 61 133" fill="none" xmlns="http://www.w3.org/2000/svg">
<path d="M27.5928 0.500977C28.4049 0.512997 28.9568 0.739551 29.3535 1.07422C29.7585 1.416 30.0457 1.90738 30.2568 2.51758C30.4684 3.12914 30.5927 3.82736 30.6934 4.55371C30.7911 5.25945 30.8693 6.02296 30.9893 6.67578V6.67676C32.2028 13.2429 32.3918 19.9105 32.5127 26.6455V26.6465C32.7412 38.7357 33.5337 50.8177 34.124 62.8857V62.8877C34.153 63.4334 34.2507 63.9631 34.373 64.5273C34.498 65.1034 34.6439 65.6958 34.791 66.4336L35.0674 67.8193L35.7246 66.5684C37.4032 63.3701 37.2721 60.4811 37.2588 57.7012C37.1915 43.2409 36.3068 28.8666 38.2344 14.5303C38.3768 13.4696 38.5446 12.5524 38.9297 11.8857C39.1156 11.5639 39.3467 11.3111 39.6455 11.1309C39.9078 10.9728 40.2434 10.8577 40.6826 10.8154L40.877 10.8018C41.9234 10.756 42.5451 11.1672 42.9717 11.79C43.3689 12.3701 43.6039 13.1474 43.7725 13.9775L43.8408 14.3369C44.4574 17.7671 44.6982 21.2033 44.8027 24.7178L44.8398 26.2295C45.0953 38.9024 45.9426 51.5721 46.9365 64.2871L47.8975 64.4395C48.7862 62.2881 49.12 60.0525 49.2979 57.8359C49.4563 55.8613 49.4889 53.9771 49.6611 52.083L49.7441 51.2695C50.2167 47.1064 50.2451 42.884 50.4336 38.7441C50.6229 34.5874 50.9741 30.485 52.0801 26.4736C52.2514 25.8516 52.3932 25.1184 52.5479 24.4453C52.7072 23.7521 52.8858 23.0907 53.1387 22.5244C53.3912 21.959 53.7028 21.5234 54.1064 21.2451C54.4506 21.0079 54.8988 20.8594 55.5146 20.8799L55.7891 20.8994C56.5891 20.9832 57.127 21.263 57.5039 21.6416C57.888 22.0275 58.1415 22.5527 58.3008 23.1836C58.626 24.4724 58.5247 26.0181 58.5107 27.332V27.333C58.4233 37.587 59.0561 47.8227 59.6299 58.0312C60.204 68.2463 60.7191 78.4373 60.4043 88.6338C60.1172 98.136 60.2334 107.669 58.1309 116.975L57.9199 117.875C57.1131 121.177 55.8155 124.275 54.1924 127.29C52.7587 129.955 50.4318 131.498 47.7207 131.822L47.457 131.85C41.8288 132.335 36.1477 132.761 30.5957 132.307H30.5947C24.6955 131.834 20.3235 130.243 17.0137 127.298C13.6982 124.347 11.3908 119.986 9.72559 113.861C4.99586 96.4751 2.48724 78.6912 0.71582 60.7666H0.716797C0.67954 60.3762 0.602891 59.9186 0.556641 59.5488C0.506913 59.1511 0.480904 58.7907 0.515625 58.4678C0.549692 58.1513 0.640014 57.8885 0.808594 57.6699C0.976975 57.4518 1.25416 57.2384 1.72754 57.0713L1.72949 57.0703C2.16721 56.9144 2.52391 56.8955 2.82324 56.9512C3.12475 57.0073 3.40042 57.1451 3.66406 57.3496C4.21385 57.7761 4.64356 58.426 5.11621 59.084V59.085C7.3627 62.2365 8.52717 65.876 9.37988 69.6875L9.5459 70.4521C10.6309 75.5873 11.7291 80.7092 12.8271 85.8301L12.6279 86.4561H13.9844L13.8584 85.873C16.3316 77.8655 14.9177 69.8535 14.5361 62.083C14.1798 54.7814 13.5348 47.4944 12.9629 40.2227C12.3906 32.9459 11.8912 25.6778 11.8242 18.3906C11.8112 16.4998 12.1269 14.6245 12.3193 12.6533C12.4031 11.7925 12.4666 11.0018 12.7363 10.3828C12.8653 10.087 13.0339 9.85176 13.2598 9.67773C13.4563 9.52629 13.7183 9.40374 14.0811 9.34082L14.2422 9.31738C14.7503 9.25884 15.1278 9.32832 15.4199 9.46289C15.7135 9.59818 15.9554 9.81609 16.168 10.1064C16.5016 10.5623 16.7288 11.1434 16.9521 11.7754L17.1777 12.4219C18.691 16.7199 18.8178 21.2269 19.0713 25.79L19.1914 27.749C20.0781 40.4796 21.221 53.1991 23.4414 65.8027L24.4346 65.7158C24.4346 58.1798 24.4883 50.632 24.4346 43.0889V43.0879C24.3807 36.9683 23.8245 30.8322 23.5137 24.7598C23.202 18.6702 23.1335 12.6097 24.0391 6.55273C24.2439 5.19248 24.3363 3.66482 24.8193 2.43164C25.0541 1.83224 25.3662 1.35102 25.792 1.02148C26.2103 0.697761 26.7796 0.488966 27.5928 0.500977Z" fill="#4A7155" stroke="#4A7155" stroke-width="2"/>
</svg>
